o 
v 10 0 0
v 22 0 0
v 22 0 8
v 30 0 20
v 22 0 8
v 30 0 8
v 10 0 20
v 10 0 0
v 22 0 8
v 22 0 8
v 30 0 20
v 10 0 20
v 22 0 0
v 22 -3 0
v 22 -3 8
v 22 -3 8
v 22 0 8
v 22 0 0
v 22 0 8
v 22 -3 8
v 30 -3 8
v 30 -3 8
v 30 0 8
v 22 0 8
v 22 -3 8
v 22 -3 0
v 30 -3 0
v 30 -3 0
v 30 -3 8
v 22 -3 8
vn 0 -1 0
vn 0 -1 0
vn 0 -1 0
vn 0 -1 0
vn 0 -1 0
vn 0 -1 0
vn 0 -1 0
vn 0 -1 0
vn 0 -1 0
vn 0 -1 0
vn 0 -1 0
vn 0 -1 0
vn -1 0 0
vn -1 0 0
vn -1 0 0
vn -1 0 0
vn -1 0 0
vn -1 0 0
vn 0 0 1
vn 0 0 1
vn 0 0 1
vn 0 0 1
vn 0 0 1
vn 0 0 1
vn 0 -1 0
vn 0 -1 0
vn 0 -1 0
vn 0 -1 0
vn 0 -1 0
vn 0 -1 0
f 1//1 2//2 3//3
f 4//4 5//5 6//6
f 7//7 8//8 9//9
f 10//10 11//11 12//12
f 13//13 14//14 15//15
f 16//16 17//17 18//18
f 19//19 20//20 21//21
f 22//22 23//23 24//24
f 25//25 26//26 27//27
f 28//28 29//29 30//30
o 
v 10 0 0
v 10 0 20
v 22 0 0
v 10 0 0
v 22 -3 0
v 22 0 0
v 30 -3 0
v 22 -3 0
v 30 -3 8
v 30 -3 0
v 30 0 8
v 30 -3 8
v 30 0 20
v 30 0 8
v 10 0 20
v 30 0 20
v 10 -12 0
v 10 -12 20
v 30 -12 0
v 10 -12 0
v 30 -12 20
v 30 -12 0
v 10 -12 20
v 30 -12 20
v 30 -12 0
v 30 -3 0
v 10 -12 0
v 10 0 0
v 30 -12 20
v 30 0 20
v 10 -12 20
v 10 0 20
l 31 32
l 33 34
l 35 36
l 37 38
l 39 40
l 41 42
l 43 44
l 45 46
l 47 48
l 49 50
l 51 52
l 53 54
l 55 56
l 57 58
l 59 60
l 61 62
o 
v 0 0 24
v 6 0 24
v 6 0 27
v 5 0 32
v 1 0 29
v 6 0 27
v 0 0 29
v 0 0 24
v 6 0 27
v 6 0 27
v 1 0 29
v 0 0 29
v 10 0 32
v 5 0 32
v 6 0 27
v 6 0 27
v 10 0 27
v 10 0 32
v 1 0 34
v 1 0 29
v 5 0 32
v 5 0 32
v 5 0 34
v 1 0 34
v 10 -1 34
v 5 -1 34
v 5 -1 32
v 5 -1 32
v 10 -1 32
v 10 -1 34
v 10 0 32
v 10 -1 32
v 5 -1 32
v 5 -1 32
v 5 0 32
v 10 0 32
v 5 0 32
v 5 -1 32
v 5 -1 34
v 5 -1 34
v 5 0 34
v 5 0 32
v 6 0 27
v 6 -1 27
v 10 -1 27
v 10 -1 27
v 10 0 27
v 6 0 27
v 10 -1 24
v 10 -1 27
v 6 -1 27
v 6 -1 27
v 6 -1 24
v 10 -1 24
v 6 0 24
v 6 -1 24
v 6 -1 27
v 6 -1 27
v 6 0 27
v 6 0 24
v 1 0 29
v 1 0 34
v 1 -3 34
v 1 -3 34
v 1 -3 29
v 1 0 29
v 1 0 29
v 1 -3 29
v 0 -3 29
v 0 -3 29
v 0 0 29
v 1 0 29
v 1 -3 34
v 0 -3 34
v 0 -3 29
v 0 -3 29
v 1 -3 29
v 1 -3 34
vn 0 -1 0
vn 0 -1 0
vn 0 -1 0
vn 0 -1 0
vn 0 -1 0
vn 0 -1 0
vn 0 -1 0
vn 0 -1 0
vn 0 -1 0
vn 0 -1 0
vn 0 -1 0
vn 0 -1 0
vn 0 -1 0
vn 0 -1 0
vn 0 -1 0
vn 0 -1 0
vn 0 -1 0
vn 0 -1 0
vn 0 -1 0
vn 0 -1 0
vn 0 -1 0
vn 0 -1 0
vn 0 -1 0
vn 0 -1 0
vn 0 -1 0
vn 0 -1 0
vn 0 -1 0
vn 0 -1 0
vn 0 -1 0
vn 0 -1 0
vn 0 0 -1
vn 0 0 -1
vn 0 0 -1
vn 0 0 -1
vn 0 0 -1
vn 0 0 -1
vn -1 0 0
vn -1 0 0
vn -1 0 0
vn -1 0 0
vn -1 0 0
vn -1 0 0
vn 0 0 1
vn 0 0 1
vn 0 0 1
vn 0 0 1
vn 0 0 1
vn 0 0 1
vn 0 -1 0
vn 0 -1 0
vn 0 -1 0
vn 0 -1 0
vn 0 -1 0
vn 0 -1 0
vn -1 0 0
vn -1 0 0
vn -1 0 0
vn -1 0 0
vn -1 0 0
vn -1 0 0
vn 1 0 0
vn 1 0 0
vn 1 0 0
vn 1 0 0
vn 1 0 0
vn 1 0 0
vn 0 0 -1
vn 0 0 -1
vn 0 0 -1
vn 0 0 -1
vn 0 0 -1
vn 0 0 -1
vn 0 -1 0
vn 0 -1 0
vn 0 -1 0
vn 0 -1 0
vn 0 -1 0
vn 0 -1 0
f 63//31 64//32 65//33
f 66//34 67//35 68//36
f 69//37 70//38 71//39
f 72//40 73//41 74//42
f 75//43 76//44 77//45
f 78//46 79//47 80//48
f 81//49 82//50 83//51
f 84//52 85//53 86//54
f 87//55 88//56 89//57
f 90//58 91//59 92//60
f 93//61 94//62 95//63
f 96//64 97//65 98//66
f 99//67 100//68 101//69
f 102//70 103//71 104//72
f 105//73 106//74 107//75
f 108//76 109//77 110//78
f 111//79 112//80 113//81
f 114//82 115//83 116//84
f 117//85 118//86 119//87
f 120//88 121//89 122//90
f 123//91 124//92 125//93
f 126//94 127//95 128//96
f 129//97 130//98 131//99
f 132//100 133//101 134//102
f 135//103 136//104 137//105
f 138//106 139//107 140//108
o 
v 0 -3 29
v 0 0 29
v 0 -3 34
v 0 -3 29
v 0 -3 34
v 1 -3 34
v 1 -3 34
v 1 0 34
v 5 -1 34
v 5 0 34
v 10 -1 34
v 5 -1 34
v 10 -1 32
v 10 -1 34
v 10 -1 32
v 10 0 32
v 10 -1 27
v 10 0 27
v 10 -1 27
v 10 -1 24
v 6 -1 24
v 10 -1 24
v 10 0 27
v 10 0 32
v 5 0 34
v 1 0 34
v 0 0 29
v 0 0 24
v 6 -1 24
v 6 0 24
v 0 0 24
v 6 0 24
v 10 -6 34
v 0 -6 34
v 10 -6 34
v 10 -6 24
v 0 -6 24
v 10 -6 24
v 0 -6 34
v 0 -6 24
v 10 -6 24
v 10 -1 24
v 10 -6 34
v 10 -1 34
v 0 -3 34
v 0 -6 34
v 0 -6 24
v 0 0 24
l 141 142
l 143 144
l 145 146
l 147 148
l 149 150
l 151 152
l 153 154
l 155 156
l 157 158
l 159 160
l 161 162
l 163 164
l 165 166
l 167 168
l 169 170
l 171 172
l 173 174
l 175 176
l 177 178
l 179 180
l 181 182
l 183 184
l 185 186
l 187 188
o 
v 13 0 27
v 18 0 29
v 18 0 33
v 18 0 33
v 13 0 31
v 13 0 27
v 27 0 29
v 27 0 33
v 22 0 33
v 22 0 33
v 22 0 29
v 27 0 29
v 22 0 29
v 22 0 33
v 18 0 33
v 18 0 33
v 18 0 29
v 22 0 29
v 18 0 29
v 18 0 23
v 22 0 23
v 22 0 23
v 22 0 29
v 18 0 29
v 18 0 33
v 22 0 33
v 22 0 37
v 22 0 37
v 18 0 37
v 18 0 33
vn 0 -1 0
vn 0 -1 0
vn 0 -1 0
vn 0 -1 0
vn 0 -1 0
vn 0 -1 0
vn 0 -1 0
vn 0 -1 0
vn 0 -1 0
vn 0 -1 0
vn 0 -1 0
vn 0 -1 0
vn 0 -1 0
vn 0 -1 0
vn 0 -1 0
vn 0 -1 0
vn 0 -1 0
vn 0 -1 0
vn 0 -1 0
vn 0 -1 0
vn 0 -1 0
vn 0 -1 0
vn 0 -1 0
vn 0 -1 0
vn 0 -1 0
vn 0 -1 0
vn 0 -1 0
vn 0 -1 0
vn 0 -1 0
vn 0 -1 0
f 189//109 190//110 191//111
f 192//112 193//113 194//114
f 195//115 196//116 197//117
f 198//118 199//119 200//120
f 201//121 202//122 203//123
f 204//124 205//125 206//126
f 207//127 208//128 209//129
f 210//130 211//131 212//132
f 213//133 214//134 215//135
f 216//136 217//137 218//138
o 
v 13 0 27
v 13 0 31
v 18 0 29
v 13 0 27
v 18 0 23
v 18 0 29
v 22 0 23
v 18 0 23
v 22 0 29
v 22 0 23
v 27 0 29
v 22 0 29
v 27 0 33
v 27 0 29
v 22 0 33
v 27 0 33
v 22 0 37
v 22 0 33
v 18 0 37
v 22 0 37
v 18 0 33
v 18 0 37
v 13 0 31
v 18 0 33
v 22 -5 37
v 18 -5 37
v 22 -5 33
v 22 -5 37
v 27 -5 33
v 22 -5 33
v 27 -5 29
v 27 -5 33
v 22 -5 29
v 27 -5 29
v 22 -5 23
v 22 -5 29
v 18 -5 23
v 22 -5 23
v 18 -5 29
v 18 -5 23
v 13 -5 27
v 18 -5 29
v 13 -5 31
v 13 -5 27
v 18 -5 33
v 13 -5 31
v 18 -5 37
v 18 -5 33
v 13 0 31
v 13 -5 31
v 13 -5 27
v 13 0 27
v 18 0 29
v 18 -5 29
v 18 -5 23
v 18 0 23
v 22 -5 23
v 22 0 23
v 22 -5 29
v 22 0 29
v 27 -5 29
v 27 0 29
v 27 0 33
v 27 -5 33
v 22 -5 33
v 22 0 33
v 22 0 37
v 22 -5 37
v 18 -5 37
v 18 0 37
v 18 -5 33
v 18 0 33
l 219 220
l 221 222
l 223 224
l 225 226
l 227 228
l 229 230
l 231 232
l 233 234
l 235 236
l 237 238
l 239 240
l 241 242
l 243 244
l 245 246
l 247 248
l 249 250
l 251 252
l 253 254
l 255 256
l 257 258
l 259 260
l 261 262
l 263 264
l 265 266
l 267 268
l 269 270
l 271 272
l 273 274
l 275 276
l 277 278
l 279 280
l 281 282
l 283 284
l 285 286
l 287 288
l 289 290
o 
v 40 0 36
v 34 0 36
v 34 0 33
v 35 0 28
v 39 0 31
v 34 0 33
v 40 0 31
v 40 0 36
v 34 0 33
v 34 0 33
v 39 0 31
v 40 0 31
v 30 0 28
v 35 0 28
v 34 0 33
v 34 0 33
v 30 0 33
v 30 0 28
v 39 0 26
v 39 0 31
v 35 0 28
v 35 0 28
v 35 0 26
v 39 0 26
v 30 -1 26
v 35 -1 26
v 35 -1 28
v 35 -1 28
v 30 -1 28
v 30 -1 26
v 30 0 28
v 30 -1 28
v 35 -1 28
v 35 -1 28
v 35 0 28
v 30 0 28
v 35 0 28
v 35 -1 28
v 35 -1 26
v 35 -1 26
v 35 0 26
v 35 0 28
v 34 0 33
v 34 -1 33
v 30 -1 33
v 30 -1 33
v 30 0 33
v 34 0 33
v 30 -1 36
v 30 -1 33
v 34 -1 33
v 34 -1 33
v 34 -1 36
v 30 -1 36
v 34 0 36
v 34 -1 36
v 34 -1 33
v 34 -1 33
v 34 0 33
v 34 0 36
v 39 0 31
v 39 0 26
v 39 -3 26
v 39 -3 26
v 39 -3 31
v 39 0 31
v 39 0 31
v 39 -3 31
v 40 -3 31
v 40 -3 31
v 40 0 31
v 39 0 31
v 39 -3 26
v 40 -3 26
v 40 -3 31
v 40 -3 31
v 39 -3 31
v 39 -3 26
vn 0 -1 0
vn 0 -1 0
vn 0 -1 0
vn 0 -1 0
vn 0 -1 0
vn 0 -1 0
vn 0 -1 0
vn 0 -1 0
vn 0 -1 0
vn 0 -1 0
vn 0 -1 0
vn 0 -1 0
vn 0 -1 0
vn 0 -1 0
vn 0 -1 0
vn 0 -1 0
vn 0 -1 0
vn 0 -1 0
vn 0 -1 0
vn 0 -1 0
vn 0 -1 0
vn 0 -1 0
vn 0 -1 0
vn 0 -1 0
vn 0 -1 0
vn 0 -1 0
vn 0 -1 0
vn 0 -1 0
vn 0 -1 0
vn 0 -1 0
vn 0 0 1
vn 0 0 1
vn 0 0 1
vn 0 0 1
vn 0 0 1
vn 0 0 1
vn 1 0 0
vn 1 0 0
vn 1 0 0
vn 1 0 0
vn 1 0 0
vn 1 0 0
vn 0 0 -1
vn 0 0 -1
vn 0 0 -1
vn 0 0 -1
vn 0 0 -1
vn 0 0 -1
vn 0 -1 0
vn 0 -1 0
vn 0 -1 0
vn 0 -1 0
vn 0 -1 0
vn 0 -1 0
vn 1 0 0
vn 1 0 0
vn 1 0 0
vn 1 0 0
vn 1 0 0
vn 1 0 0
vn -1 0 0
vn -1 0 0
vn -1 0 0
vn -1 0 0
vn -1 0 0
vn -1 0 0
vn 0 0 1
vn 0 0 1
vn 0 0 1
vn 0 0 1
vn 0 0 1
vn 0 0 1
vn 0 -1 0
vn 0 -1 0
vn 0 -1 0
vn 0 -1 0
vn 0 -1 0
vn 0 -1 0
f 291//139 292//140 293//141
f 294//142 295//143 296//144
f 297//145 298//146 299//147
f 300//148 301//149 302//150
f 303//151 304//152 305//153
f 306//154 307//155 308//156
f 309//157 310//158 311//159
f 312//160 313//161 314//162
f 315//163 316//164 317//165
f 318//166 319//167 320//168
f 321//169 322//170 323//171
f 324//172 325//173 326//174
f 327//175 328//176 329//177
f 330//178 331//179 332//180
f 333//181 334//182 335//183
f 336//184 337//185 338//186
f 339//187 340//188 341//189
f 342//190 343//191 344//192
f 345//193 346//194 347//195
f 348//196 349//197 350//198
f 351//199 352//200 353//201
f 354//202 355//203 356//204
f 357//205 358//206 359//207
f 360//208 361//209 362//210
f 363//211 364//212 365//213
f 366//214 367//215 368//216
o 
v 40 -3 31
v 40 0 31
v 40 -3 26
v 40 -3 31
v 40 -3 26
v 39 -3 26
v 39 -3 26
v 39 0 26
v 35 -1 26
v 35 0 26
v 30 -1 26
v 35 -1 26
v 30 -1 28
v 30 -1 26
v 30 -1 28
v 30 0 28
v 30 -1 33
v 30 0 33
v 30 -1 33
v 30 -1 36
v 34 -1 36
v 30 -1 36
v 30 0 33
v 30 0 28
v 35 0 26
v 39 0 26
v 40 0 31
v 40 0 36
v 34 -1 36
v 34 0 36
v 40 0 36
v 34 0 36
v 30 -6 26
v 40 -6 26
v 30 -6 26
v 30 -6 36
v 40 -6 36
v 30 -6 36
v 40 -6 26
v 40 -6 36
v 30 -6 36
v 30 -1 36
v 30 -6 26
v 30 -1 26
v 40 -3 26
v 40 -6 26
v 40 -6 36
v 40 0 36
l 369 370
l 371 372
l 373 374
l 375 376
l 377 378
l 379 380
l 381 382
l 383 384
l 385 386
l 387 388
l 389 390
l 391 392
l 393 394
l 395 396
l 397 398
l 399 400
l 401 402
l 403 404
l 405 406
l 407 408
l 409 410
l 411 412
l 413 414
l 415 416