o 
v 17 0 33
v 22 0 37
v 22 0 41
v 22 0 41
v 17 0 37
v 17 0 33
v 31 0 37
v 31 0 41
v 26 0 41
v 26 0 41
v 26 0 37
v 31 0 37
v 26 0 37
v 26 0 41
v 22 0 41
v 22 0 41
v 22 0 37
v 26 0 37
v 22 0 37
v 22 0 31
v 26 0 31
v 26 0 31
v 26 0 37
v 22 0 37
v 22 0 41
v 26 0 41
v 26 0 45
v 26 0 45
v 22 0 45
v 22 0 41
vn 0 -1 0
vn 0 -1 0
vn 0 -1 0
vn 0 -1 0
vn 0 -1 0
vn 0 -1 0
vn 0 -1 0
vn 0 -1 0
vn 0 -1 0
vn 0 -1 0
vn 0 -1 0
vn 0 -1 0
vn 0 -1 0
vn 0 -1 0
vn 0 -1 0
vn 0 -1 0
vn 0 -1 0
vn 0 -1 0
vn 0 -1 0
vn 0 -1 0
vn 0 -1 0
vn 0 -1 0
vn 0 -1 0
vn 0 -1 0
vn 0 -1 0
vn 0 -1 0
vn 0 -1 0
vn 0 -1 0
vn 0 -1 0
vn 0 -1 0
f 1//1 2//2 3//3
f 4//4 5//5 6//6
f 7//7 8//8 9//9
f 10//10 11//11 12//12
f 13//13 14//14 15//15
f 16//16 17//17 18//18
f 19//19 20//20 21//21
f 22//22 23//23 24//24
f 25//25 26//26 27//27
f 28//28 29//29 30//30
o 
v 17 0 33
v 17 0 37
v 22 0 37
v 17 0 33
v 22 0 31
v 22 0 37
v 26 0 31
v 22 0 31
v 26 0 37
v 26 0 31
v 31 0 37
v 26 0 37
v 31 0 41
v 31 0 37
v 26 0 41
v 31 0 41
v 26 0 45
v 26 0 41
v 22 0 45
v 26 0 45
v 22 0 41
v 22 0 45
v 17 0 37
v 22 0 41
v 26 -5 45
v 22 -5 45
v 26 -5 41
v 26 -5 45
v 31 -5 41
v 26 -5 41
v 31 -5 37
v 31 -5 41
v 26 -5 37
v 31 -5 37
v 26 -5 31
v 26 -5 37
v 22 -5 31
v 26 -5 31
v 22 -5 37
v 22 -5 31
v 17 -5 33
v 22 -5 37
v 17 -5 37
v 17 -5 33
v 22 -5 41
v 17 -5 37
v 22 -5 45
v 22 -5 41
v 17 0 37
v 17 -5 37
v 17 -5 33
v 17 0 33
v 22 0 37
v 22 -5 37
v 22 -5 31
v 22 0 31
v 26 -5 31
v 26 0 31
v 26 -5 37
v 26 0 37
v 31 -5 37
v 31 0 37
v 31 0 41
v 31 -5 41
v 26 -5 41
v 26 0 41
v 26 0 45
v 26 -5 45
v 22 -5 45
v 22 0 45
v 22 -5 41
v 22 0 41
l 31 32
l 33 34
l 35 36
l 37 38
l 39 40
l 41 42
l 43 44
l 45 46
l 47 48
l 49 50
l 51 52
l 53 54
l 55 56
l 57 58
l 59 60
l 61 62
l 63 64
l 65 66
l 67 68
l 69 70
l 71 72
l 73 74
l 75 76
l 77 78
l 79 80
l 81 82
l 83 84
l 85 86
l 87 88
l 89 90
l 91 92
l 93 94
l 95 96
l 97 98
l 99 100
l 101 102
o 
v 4 0 30
v 10 0 30
v 10 0 33
v 9 0 38
v 5 0 35
v 10 0 33
v 4 0 35
v 4 0 30
v 10 0 33
v 10 0 33
v 5 0 35
v 4 0 35
v 14 0 38
v 9 0 38
v 10 0 33
v 10 0 33
v 14 0 33
v 14 0 38
v 5 0 40
v 5 0 35
v 9 0 38
v 9 0 38
v 9 0 40
v 5 0 40
v 14 -1 40
v 9 -1 40
v 9 -1 38
v 9 -1 38
v 14 -1 38
v 14 -1 40
v 14 0 38
v 14 -1 38
v 9 -1 38
v 9 -1 38
v 9 0 38
v 14 0 38
v 9 0 38
v 9 -1 38
v 9 -1 40
v 9 -1 40
v 9 0 40
v 9 0 38
v 10 0 33
v 10 -1 33
v 14 -1 33
v 14 -1 33
v 14 0 33
v 10 0 33
v 14 -1 30
v 14 -1 33
v 10 -1 33
v 10 -1 33
v 10 -1 30
v 14 -1 30
v 10 0 30
v 10 -1 30
v 10 -1 33
v 10 -1 33
v 10 0 33
v 10 0 30
v 5 0 35
v 5 0 40
v 5 -3 40
v 5 -3 40
v 5 -3 35
v 5 0 35
v 5 0 35
v 5 -3 35
v 4 -3 35
v 4 -3 35
v 4 0 35
v 5 0 35
v 5 -3 40
v 4 -3 40
v 4 -3 35
v 4 -3 35
v 5 -3 35
v 5 -3 40
vn 0 -1 0
vn 0 -1 0
vn 0 -1 0
vn 0 -1 0
vn 0 -1 0
vn 0 -1 0
vn 0 -1 0
vn 0 -1 0
vn 0 -1 0
vn 0 -1 0
vn 0 -1 0
vn 0 -1 0
vn 0 -1 0
vn 0 -1 0
vn 0 -1 0
vn 0 -1 0
vn 0 -1 0
vn 0 -1 0
vn 0 -1 0
vn 0 -1 0
vn 0 -1 0
vn 0 -1 0
vn 0 -1 0
vn 0 -1 0
vn 0 -1 0
vn 0 -1 0
vn 0 -1 0
vn 0 -1 0
vn 0 -1 0
vn 0 -1 0
vn 0 0 -1
vn 0 0 -1
vn 0 0 -1
vn 0 0 -1
vn 0 0 -1
vn 0 0 -1
vn -1 0 0
vn -1 0 0
vn -1 0 0
vn -1 0 0
vn -1 0 0
vn -1 0 0
vn 0 0 1
vn 0 0 1
vn 0 0 1
vn 0 0 1
vn 0 0 1
vn 0 0 1
vn 0 -1 0
vn 0 -1 0
vn 0 -1 0
vn 0 -1 0
vn 0 -1 0
vn 0 -1 0
vn -1 0 0
vn -1 0 0
vn -1 0 0
vn -1 0 0
vn -1 0 0
vn -1 0 0
vn 1 0 0
vn 1 0 0
vn 1 0 0
vn 1 0 0
vn 1 0 0
vn 1 0 0
vn 0 0 -1
vn 0 0 -1
vn 0 0 -1
vn 0 0 -1
vn 0 0 -1
vn 0 0 -1
vn 0 -1 0
vn 0 -1 0
vn 0 -1 0
vn 0 -1 0
vn 0 -1 0
vn 0 -1 0
f 103//31 104//32 105//33
f 106//34 107//35 108//36
f 109//37 110//38 111//39
f 112//40 113//41 114//42
f 115//43 116//44 117//45
f 118//46 119//47 120//48
f 121//49 122//50 123//51
f 124//52 125//53 126//54
f 127//55 128//56 129//57
f 130//58 131//59 132//60
f 133//61 134//62 135//63
f 136//64 137//65 138//66
f 139//67 140//68 141//69
f 142//70 143//71 144//72
f 145//73 146//74 147//75
f 148//76 149//77 150//78
f 151//79 152//80 153//81
f 154//82 155//83 156//84
f 157//85 158//86 159//87
f 160//88 161//89 162//90
f 163//91 164//92 165//93
f 166//94 167//95 168//96
f 169//97 170//98 171//99
f 172//100 173//101 174//102
f 175//103 176//104 177//105
f 178//106 179//107 180//108
o 
v 4 -3 35
v 4 0 35
v 4 -3 40
v 4 -3 35
v 4 -3 40
v 5 -3 40
v 5 -3 40
v 5 0 40
v 9 -1 40
v 9 0 40
v 14 -1 40
v 9 -1 40
v 14 -1 38
v 14 -1 40
v 14 -1 38
v 14 0 38
v 14 -1 33
v 14 0 33
v 14 -1 33
v 14 -1 30
v 10 -1 30
v 14 -1 30
v 10 -1 30
v 10 0 30
v 14 0 33
v 14 0 38
v 9 0 40
v 5 0 40
v 4 0 30
v 10 0 30
v 4 0 35
v 4 0 30
v 14 -6 40
v 4 -6 40
v 14 -6 40
v 14 -6 30
v 4 -6 30
v 14 -6 30
v 4 -6 40
v 4 -6 30
v 14 -6 30
v 14 -1 30
v 14 -6 40
v 14 -1 40
v 4 -6 30
v 4 0 30
v 4 -3 40
v 4 -6 40
l 181 182
l 183 184
l 185 186
l 187 188
l 189 190
l 191 192
l 193 194
l 195 196
l 197 198
l 199 200
l 201 202
l 203 204
l 205 206
l 207 208
l 209 210
l 211 212
l 213 214
l 215 216
l 217 218
l 219 220
l 221 222
l 223 224
l 225 226
l 227 228
o 
v 39 0 37
v 45 0 37
v 39 0 41
v 40 0 49
v 39 0 46
v 45 0 46
v 45 0 46
v 44 0 49
v 40 0 49
v 45 0 46
v 39 0 46
v 39 0 41
v 39 0 41
v 45 0 37
v 45 0 46
v 39 0 37
v 39 0 41
v 34 0 41
v 34 0 41
v 34 0 37
v 39 0 37
vn 0 -1 0
vn 0 -1 0
vn 0 -1 0
vn 0 -1 0
vn 0 -1 0
vn 0 -1 0
vn 0 -1 0
vn 0 -1 0
vn 0 -1 0
vn 0 -1 0
vn 0 -1 0
vn 0 -1 0
vn 0 -1 0
vn 0 -1 0
vn 0 -1 0
vn 0 -1 0
vn 0 -1 0
vn 0 -1 0
vn 0 -1 0
vn 0 -1 0
vn 0 -1 0
f 229//109 230//110 231//111
f 232//112 233//113 234//114
f 235//115 236//116 237//117
f 238//118 239//119 240//120
f 241//121 242//122 243//123
f 244//124 245//125 246//126
f 247//127 248//128 249//129
o 
v 34 0 37
v 34 0 41
v 39 0 37
v 34 0 37
v 45 0 37
v 39 0 37
v 45 0 46
v 45 0 37
v 44 0 49
v 45 0 46
v 40 0 49
v 44 0 49
v 39 0 46
v 40 0 49
v 39 0 41
v 39 0 46
v 34 0 41
v 39 0 41
v 42 -7 46
v 40 -4 49
v 44 -4 49
v 42 -7 46
v 42 -7 39
v 42 -7 46
v 42 -7 39
v 36 -7 39
v 45 -4 37
v 42 -7 39
v 39 -4 41
v 42 -7 39
v 36 -7 39
v 34 -4 37
v 34 -4 41
v 36 -7 39
v 39 -4 46
v 40 -4 49
v 39 -4 41
v 39 -4 46
v 34 -4 41
v 39 -4 41
v 34 -4 37
v 34 -4 41
v 45 -4 37
v 34 -4 37
v 45 -4 46
v 45 -4 37
v 44 -4 49
v 45 -4 46
v 44 -4 49
v 40 -4 49
v 34 -4 37
v 34 0 37
v 34 -4 41
v 34 0 41
v 39 -4 41
v 39 0 41
v 45 0 37
v 45 -4 37
v 45 0 46
v 45 -4 46
v 39 -4 46
v 39 0 46
v 44 -4 49
v 44 0 49
v 40 -4 49
v 40 0 49
l 250 251
l 252 253
l 254 255
l 256 257
l 258 259
l 260 261
l 262 263
l 264 265
l 266 267
l 268 269
l 270 271
l 272 273
l 274 275
l 276 277
l 278 279
l 280 281
l 282 283
l 284 285
l 286 287
l 288 289
l 290 291
l 292 293
l 294 295
l 296 297
l 298 299
l 300 301
l 302 303
l 304 305
l 306 307
l 308 309
l 310 311
l 312 313
l 314 315
o 
v 45 0 64
v 39 0 64
v 45 0 60
v 44 0 52
v 45 0 55
v 39 0 55
v 39 0 55
v 40 0 52
v 44 0 52
v 39 0 55
v 45 0 55
v 45 0 60
v 45 0 60
v 39 0 64
v 39 0 55
v 45 0 64
v 45 0 60
v 50 0 60
v 50 0 60
v 50 0 64
v 45 0 64
vn 0 -1 0
vn 0 -1 0
vn 0 -1 0
vn 0 -1 0
vn 0 -1 0
vn 0 -1 0
vn 0 -1 0
vn 0 -1 0
vn 0 -1 0
vn 0 -1 0
vn 0 -1 0
vn 0 -1 0
vn 0 -1 0
vn 0 -1 0
vn 0 -1 0
vn 0 -1 0
vn 0 -1 0
vn 0 -1 0
vn 0 -1 0
vn 0 -1 0
vn 0 -1 0
f 316//130 317//131 318//132
f 319//133 320//134 321//135
f 322//136 323//137 324//138
f 325//139 326//140 327//141
f 328//142 329//143 330//144
f 331//145 332//146 333//147
f 334//148 335//149 336//150
o 
v 50 0 64
v 50 0 60
v 45 0 64
v 50 0 64
v 39 0 64
v 45 0 64
v 39 0 55
v 39 0 64
v 40 0 52
v 39 0 55
v 44 0 52
v 40 0 52
v 45 0 55
v 44 0 52
v 45 0 60
v 45 0 55
v 50 0 60
v 45 0 60
v 42 -7 55
v 44 -4 52
v 40 -4 52
v 42 -7 55
v 42 -7 62
v 42 -7 55
v 42 -7 62
v 48 -7 62
v 39 -4 64
v 42 -7 62
v 45 -4 60
v 42 -7 62
v 48 -7 62
v 50 -4 64
v 50 -4 60
v 48 -7 62
v 45 -4 55
v 44 -4 52
v 45 -4 60
v 45 -4 55
v 50 -4 60
v 45 -4 60
v 50 -4 64
v 50 -4 60
v 39 -4 64
v 50 -4 64
v 39 -4 55
v 39 -4 64
v 40 -4 52
v 39 -4 55
v 40 -4 52
v 44 -4 52
v 50 -4 64
v 50 0 64
v 50 -4 60
v 50 0 60
v 45 -4 60
v 45 0 60
v 39 0 64
v 39 -4 64
v 39 0 55
v 39 -4 55
v 45 -4 55
v 45 0 55
v 40 -4 52
v 40 0 52
v 44 -4 52
v 44 0 52
l 337 338
l 339 340
l 341 342
l 343 344
l 345 346
l 347 348
l 349 350
l 351 352
l 353 354
l 355 356
l 357 358
l 359 360
l 361 362
l 363 364
l 365 366
l 367 368
l 369 370
l 371 372
l 373 374
l 375 376
l 377 378
l 379 380
l 381 382
l 383 384
l 385 386
l 387 388
l 389 390
l 391 392
l 393 394
l 395 396
l 397 398
l 399 400
l 401 402
o 
v 65 0 59
v 65 0 65
v 61 0 59
v 53 0 60
v 56 0 59
v 56 0 65
v 56 0 65
v 53 0 64
v 53 0 60
v 56 0 65
v 56 0 59
v 61 0 59
v 61 0 59
v 65 0 65
v 56 0 65
v 65 0 59
v 61 0 59
v 61 0 53
v 61 0 53
v 65 0 53
v 65 0 59
vn 0 -1 0
vn 0 -1 0
vn 0 -1 0
vn 0 -1 0
vn 0 -1 0
vn 0 -1 0
vn 0 -1 0
vn 0 -1 0
vn 0 -1 0
vn 0 -1 0
vn 0 -1 0
vn 0 -1 0
vn 0 -1 0
vn 0 -1 0
vn 0 -1 0
vn 0 -1 0
vn 0 -1 0
vn 0 -1 0
vn 0 -1 0
vn 0 -1 0
vn 0 -1 0
f 403//151 404//152 405//153
f 406//154 407//155 408//156
f 409//157 410//158 411//159
f 412//160 413//161 414//162
f 415//163 416//164 417//165
f 418//166 419//167 420//168
f 421//169 422//170 423//171
o 
v 65 0 53
v 61 0 53
v 65 0 59
v 65 0 53
v 65 0 65
v 65 0 59
v 56 0 65
v 65 0 65
v 53 0 64
v 56 0 65
v 53 0 60
v 53 0 64
v 56 0 59
v 53 0 60
v 61 0 59
v 56 0 59
v 61 0 53
v 61 0 59
v 56 -7 62
v 53 -4 60
v 53 -4 64
v 56 -7 62
v 63 -7 62
v 56 -7 62
v 63 -7 62
v 63 -7 55
v 65 -4 65
v 63 -7 62
v 61 -4 59
v 63 -7 62
v 63 -7 55
v 65 -4 53
v 61 -4 53
v 63 -7 55
v 56 -4 59
v 53 -4 60
v 61 -4 59
v 56 -4 59
v 61 -4 53
v 61 -4 59
v 65 -4 53
v 61 -4 53
v 65 -4 65
v 65 -4 53
v 56 -4 65
v 65 -4 65
v 53 -4 64
v 56 -4 65
v 53 -4 64
v 53 -4 60
v 65 -4 53
v 65 0 53
v 61 -4 53
v 61 0 53
v 61 -4 59
v 61 0 59
v 65 0 65
v 65 -4 65
v 56 0 65
v 56 -4 65
v 56 -4 59
v 56 0 59
v 53 -4 64
v 53 0 64
v 53 -4 60
v 53 0 60
l 424 425
l 426 427
l 428 429
l 430 431
l 432 433
l 434 435
l 436 437
l 438 439
l 440 441
l 442 443
l 444 445
l 446 447
l 448 449
l 450 451
l 452 453
l 454 455
l 456 457
l 458 459
l 460 461
l 462 463
l 464 465
l 466 467
l 468 469
l 470 471
l 472 473
l 474 475
l 476 477
l 478 479
l 480 481
l 482 483
l 484 485
l 486 487
l 488 489
o 
v 30 0 28
v 18 0 28
v 18 0 18
v 18 0 18
v 30 0 18
v 30 0 28
vn 0 -1 0
vn 0 -1 0
vn 0 -1 0
vn 0 -1 0
vn 0 -1 0
vn 0 -1 0
f 490//172 491//173 492//174
f 493//175 494//176 495//177
o 
v 18 0 18
v 18 0 28
v 30 0 18
v 18 0 18
v 30 0 28
v 30 0 18
v 18 0 28
v 30 0 28
v 18 -8 28
v 18 -8 18
v 30 -8 28
v 18 -8 28
v 30 -8 18
v 30 -8 28
v 18 -8 18
v 30 -8 18
v 30 -8 18
v 30 0 18
v 30 0 28
v 30 -8 28
v 18 -8 18
v 18 0 18
v 18 -8 28
v 18 0 28
l 496 497
l 498 499
l 500 501
l 502 503
l 504 505
l 506 507
l 508 509
l 510 511
l 512 513
l 514 515
l 516 517
l 518 519
o 
v 21 0 3
v 27 0 3
v 21 0 7
v 22 0 15
v 21 0 12
v 27 0 12
v 27 0 12
v 26 0 15
v 22 0 15
v 27 0 12
v 21 0 12
v 21 0 7
v 21 0 7
v 27 0 3
v 27 0 12
v 21 0 3
v 21 0 7
v 13 0 7
v 13 0 7
v 13 0 3
v 21 0 3
vn 0 -1 0
vn 0 -1 0
vn 0 -1 0
vn 0 -1 0
vn 0 -1 0
vn 0 -1 0
vn 0 -1 0
vn 0 -1 0
vn 0 -1 0
vn 0 -1 0
vn 0 -1 0
vn 0 -1 0
vn 0 -1 0
vn 0 -1 0
vn 0 -1 0
vn 0 -1 0
vn 0 -1 0
vn 0 -1 0
vn 0 -1 0
vn 0 -1 0
vn 0 -1 0
f 520//178 521//179 522//180
f 523//181 524//182 525//183
f 526//184 527//185 528//186
f 529//187 530//188 531//189
f 532//190 533//191 534//192
f 535//193 536//194 537//195
f 538//196 539//197 540//198
o 
v 13 0 3
v 13 0 7
v 21 0 3
v 13 0 3
v 27 0 3
v 21 0 3
v 27 0 12
v 27 0 3
v 26 0 15
v 27 0 12
v 22 0 15
v 26 0 15
v 21 0 12
v 22 0 15
v 21 0 7
v 21 0 12
v 13 0 7
v 21 0 7
v 24 -6 12
v 22 -4 15
v 26 -4 15
v 24 -6 12
v 24 -6 5
v 24 -6 12
v 24 -6 5
v 15 -6 5
v 27 -4 3
v 24 -6 5
v 21 -4 7
v 24 -6 5
v 15 -6 5
v 13 -4 3
v 13 -4 7
v 15 -6 5
v 21 -4 12
v 22 -4 15
v 21 -4 7
v 21 -4 12
v 13 -4 7
v 21 -4 7
v 13 -4 3
v 13 -4 7
v 27 -4 3
v 13 -4 3
v 27 -4 12
v 27 -4 3
v 26 -4 15
v 27 -4 12
v 26 -4 15
v 22 -4 15
v 13 -4 3
v 13 0 3
v 13 -4 7
v 13 0 7
v 21 -4 7
v 21 0 7
v 27 0 3
v 27 -4 3
v 27 0 12
v 27 -4 12
v 21 -4 12
v 21 0 12
v 26 -4 15
v 26 0 15
v 22 -4 15
v 22 0 15
l 541 542
l 543 544
l 545 546
l 547 548
l 549 550
l 551 552
l 553 554
l 555 556
l 557 558
l 559 560
l 561 562
l 563 564
l 565 566
l 567 568
l 569 570
l 571 572
l 573 574
l 575 576
l 577 578
l 579 580
l 581 582
l 583 584
l 585 586
l 587 588
l 589 590
l 591 592
l 593 594
l 595 596
l 597 598
l 599 600
l 601 602
l 603 604
l 605 606
o 
v 0 0 0
v 6 0 0
v 6 0 3
v 5 0 8
v 1 0 5
v 6 0 3
v 0 0 5
v 0 0 0
v 6 0 3
v 6 0 3
v 1 0 5
v 0 0 5
v 10 0 8
v 5 0 8
v 6 0 3
v 6 0 3
v 10 0 3
v 10 0 8
v 1 0 10
v 1 0 5
v 5 0 8
v 5 0 8
v 5 0 10
v 1 0 10
v 10 -1 10
v 5 -1 10
v 5 -1 8
v 5 -1 8
v 10 -1 8
v 10 -1 10
v 10 0 8
v 10 -1 8
v 5 -1 8
v 5 -1 8
v 5 0 8
v 10 0 8
v 5 0 8
v 5 -1 8
v 5 -1 10
v 5 -1 10
v 5 0 10
v 5 0 8
v 6 0 3
v 6 -1 3
v 10 -1 3
v 10 -1 3
v 10 0 3
v 6 0 3
v 10 -1 0
v 10 -1 3
v 6 -1 3
v 6 -1 3
v 6 -1 0
v 10 -1 0
v 6 0 0
v 6 -1 0
v 6 -1 3
v 6 -1 3
v 6 0 3
v 6 0 0
v 1 0 5
v 1 0 10
v 1 -3 10
v 1 -3 10
v 1 -3 5
v 1 0 5
v 1 0 5
v 1 -3 5
v 0 -3 5
v 0 -3 5
v 0 0 5
v 1 0 5
v 1 -3 10
v 0 -3 10
v 0 -3 5
v 0 -3 5
v 1 -3 5
v 1 -3 10
vn 0 -1 0
vn 0 -1 0
vn 0 -1 0
vn 0 -1 0
vn 0 -1 0
vn 0 -1 0
vn 0 -1 0
vn 0 -1 0
vn 0 -1 0
vn 0 -1 0
vn 0 -1 0
vn 0 -1 0
vn 0 -1 0
vn 0 -1 0
vn 0 -1 0
vn 0 -1 0
vn 0 -1 0
vn 0 -1 0
vn 0 -1 0
vn 0 -1 0
vn 0 -1 0
vn 0 -1 0
vn 0 -1 0
vn 0 -1 0
vn 0 -1 0
vn 0 -1 0
vn 0 -1 0
vn 0 -1 0
vn 0 -1 0
vn 0 -1 0
vn 0 0 -1
vn 0 0 -1
vn 0 0 -1
vn 0 0 -1
vn 0 0 -1
vn 0 0 -1
vn -1 0 0
vn -1 0 0
vn -1 0 0
vn -1 0 0
vn -1 0 0
vn -1 0 0
vn 0 0 1
vn 0 0 1
vn 0 0 1
vn 0 0 1
vn 0 0 1
vn 0 0 1
vn 0 -1 0
vn 0 -1 0
vn 0 -1 0
vn 0 -1 0
vn 0 -1 0
vn 0 -1 0
vn -1 0 0
vn -1 0 0
vn -1 0 0
vn -1 0 0
vn -1 0 0
vn -1 0 0
vn 1 0 0
vn 1 0 0
vn 1 0 0
vn 1 0 0
vn 1 0 0
vn 1 0 0
vn 0 0 -1
vn 0 0 -1
vn 0 0 -1
vn 0 0 -1
vn 0 0 -1
vn 0 0 -1
vn 0 -1 0
vn 0 -1 0
vn 0 -1 0
vn 0 -1 0
vn 0 -1 0
vn 0 -1 0
f 607//199 608//200 609//201
f 610//202 611//203 612//204
f 613//205 614//206 615//207
f 616//208 617//209 618//210
f 619//211 620//212 621//213
f 622//214 623//215 624//216
f 625//217 626//218 627//219
f 628//220 629//221 630//222
f 631//223 632//224 633//225
f 634//226 635//227 636//228
f 637//229 638//230 639//231
f 640//232 641//233 642//234
f 643//235 644//236 645//237
f 646//238 647//239 648//240
f 649//241 650//242 651//243
f 652//244 653//245 654//246
f 655//247 656//248 657//249
f 658//250 659//251 660//252
f 661//253 662//254 663//255
f 664//256 665//257 666//258
f 667//259 668//260 669//261
f 670//262 671//263 672//264
f 673//265 674//266 675//267
f 676//268 677//269 678//270
f 679//271 680//272 681//273
f 682//274 683//275 684//276
o 
v 0 -3 5
v 0 0 5
v 0 -3 10
v 0 -3 5
v 0 -3 10
v 1 -3 10
v 1 -3 10
v 1 0 10
v 5 -1 10
v 5 0 10
v 10 -1 10
v 5 -1 10
v 10 -1 8
v 10 -1 10
v 10 -1 8
v 10 0 8
v 10 -1 3
v 10 0 3
v 10 -1 3
v 10 -1 0
v 6 -1 0
v 10 -1 0
v 6 -1 0
v 6 0 0
v 10 0 3
v 10 0 8
v 5 0 10
v 1 0 10
v 0 0 0
v 6 0 0
v 0 0 5
v 0 0 0
v 10 -6 10
v 0 -6 10
v 10 -6 10
v 10 -6 0
v 0 -6 0
v 10 -6 0
v 0 -6 10
v 0 -6 0
v 10 -6 0
v 10 -1 0
v 10 -6 10
v 10 -1 10
v 0 -6 0
v 0 0 0
v 0 -3 10
v 0 -6 10
l 685 686
l 687 688
l 689 690
l 691 692
l 693 694
l 695 696
l 697 698
l 699 700
l 701 702
l 703 704
l 705 706
l 707 708
l 709 710
l 711 712
l 713 714
l 715 716
l 717 718
l 719 720
l 721 722
l 723 724
l 725 726
l 727 728
l 729 730
l 731 732