o 
v 30 -4 80
v 31 -10 79
v 32 -4 80
v 30 -4 80
v 30 -4 78
v 31 -10 79
v 31 -10 79
v 30 -4 78
v 32 -4 78
v 32 -4 78
v 32 -4 80
v 31 -10 79
v 10 -4 76
v 11 -10 75
v 12 -4 76
v 10 -4 76
v 10 -4 74
v 11 -10 75
v 11 -10 75
v 10 -4 74
v 12 -4 74
v 12 -4 74
v 12 -4 76
v 11 -10 75
v 21 0 86
v 21 0 84
v 21 -2 86
v 25 0 84
v 25 0 86
v 25 -2 86
v 25 0 84
v 25 -2 86
v 21 -2 86
v 21 -2 86
v 21 0 84
v 25 0 84
v 29 0 70
v 25 0 84
v 21 0 84
v 21 0 84
v 13 0 70
v 29 0 70
v 29 0 70
v 29 0 86
v 25 0 86
v 25 0 86
v 25 0 84
v 29 0 70
v 21 0 84
v 21 0 86
v 13 0 86
v 13 0 86
v 13 0 70
v 21 0 84
vn 0 -0.16439898312091827 0.986393928527832
vn 0 -0.16439898312091827 0.986393928527832
vn 0 -0.16439898312091827 0.986393928527832
vn -0.986393928527832 -0.16439898312091827 0
vn -0.986393928527832 -0.16439898312091827 0
vn -0.986393928527832 -0.16439898312091827 0
vn 0 -0.16439898312091827 -0.986393928527832
vn 0 -0.16439898312091827 -0.986393928527832
vn 0 -0.16439898312091827 -0.986393928527832
vn 0.986393928527832 -0.16439898312091827 0
vn 0.986393928527832 -0.16439898312091827 0
vn 0.986393928527832 -0.16439898312091827 0
vn 0 -0.16439898312091827 0.986393928527832
vn 0 -0.16439898312091827 0.986393928527832
vn 0 -0.16439898312091827 0.986393928527832
vn -0.986393928527832 -0.16439898312091827 0
vn -0.986393928527832 -0.16439898312091827 0
vn -0.986393928527832 -0.16439898312091827 0
vn 0 -0.16439898312091827 -0.986393928527832
vn 0 -0.16439898312091827 -0.986393928527832
vn 0 -0.16439898312091827 -0.986393928527832
vn 0.986393928527832 -0.16439898312091827 0
vn 0.986393928527832 -0.16439898312091827 0
vn 0.986393928527832 -0.16439898312091827 0
vn -1 0 0
vn -1 0 0
vn -1 0 0
vn 1 0 0
vn 1 0 0
vn 1 0 0
vn 0 -0.7071067690849304 -0.7071067690849304
vn 0 -0.7071067690849304 -0.7071067690849304
vn 0 -0.7071067690849304 -0.7071067690849304
vn 0 -0.7071067690849304 -0.7071067690849304
vn 0 -0.7071067690849304 -0.7071067690849304
vn 0 -0.7071067690849304 -0.7071067690849304
vn 0 -1 0
vn 0 -1 0
vn 0 -1 0
vn 0 -1 0
vn 0 -1 0
vn 0 -1 0
vn 0 -1 0
vn 0 -1 0
vn 0 -1 0
vn 0 -1 0
vn 0 -1 0
vn 0 -1 0
vn 0 -1 0
vn 0 -1 0
vn 0 -1 0
vn 0 -1 0
vn 0 -1 0
vn 0 -1 0
f 1//1 2//2 3//3
f 4//4 5//5 6//6
f 7//7 8//8 9//9
f 10//10 11//11 12//12
f 13//13 14//14 15//15
f 16//16 17//17 18//18
f 19//19 20//20 21//21
f 22//22 23//23 24//24
f 25//25 26//26 27//27
f 28//28 29//29 30//30
f 31//31 32//32 33//33
f 34//34 35//35 36//36
f 37//37 38//38 39//39
f 40//40 41//41 42//42
f 43//43 44//44 45//45
f 46//46 47//47 48//48
f 49//49 50//50 51//51
f 52//52 53//53 54//54
o 
v 13 0 70
v 13 0 86
v 29 0 70
v 13 0 70
v 29 0 86
v 29 0 70
v 25 0 86
v 29 0 86
v 25 -2 86
v 25 0 86
v 21 -2 86
v 25 -2 86
v 21 0 86
v 21 -2 86
v 13 0 86
v 21 0 86
v 31 -4 79
v 31 0 79
v 11 -4 75
v 11 0 75
v 35 -21 85
v 46 -21 85
v 29 -21 89
v 35 -21 85
v 13 -21 89
v 29 -21 89
v 13 -21 89
v 13 -14 86
v 29 -21 89
v 29 -14 86
v 35 -21 85
v 35 -14 82
v 46 -21 85
v 46 -14 82
v 46 0 82
v 35 0 82
v 46 -14 82
v 46 0 82
v 35 -14 82
v 46 -14 82
v 35 0 82
v 29 0 86
v 35 -14 82
v 35 0 82
v 29 -14 86
v 35 -14 82
v 29 -14 86
v 29 0 86
v 13 -14 86
v 29 -14 86
v 13 -14 86
v 13 0 86
l 55 56
l 57 58
l 59 60
l 61 62
l 63 64
l 65 66
l 67 68
l 69 70
l 71 72
l 73 74
l 75 76
l 77 78
l 79 80
l 81 82
l 83 84
l 85 86
l 87 88
l 89 90
l 91 92
l 93 94
l 95 96
l 97 98
l 99 100
l 101 102
l 103 104
l 105 106
o 
v 26 -4 48
v 27 -10 47
v 28 -4 48
v 26 -4 48
v 26 -4 46
v 27 -10 47
v 27 -10 47
v 26 -4 46
v 28 -4 46
v 28 -4 46
v 28 -4 48
v 27 -10 47
v 11 -4 41
v 12 -10 40
v 13 -4 41
v 11 -4 41
v 11 -4 39
v 12 -10 40
v 12 -10 40
v 11 -4 39
v 13 -4 39
v 13 -4 39
v 13 -4 41
v 12 -10 40
v 13 -4 61
v 14 -10 60
v 15 -4 61
v 13 -4 61
v 13 -4 59
v 14 -10 60
v 14 -10 60
v 13 -4 59
v 15 -4 59
v 15 -4 59
v 15 -4 61
v 14 -10 60
v 19 0 67
v 18 0 59
v 24 0 59
v 24 0 59
v 23 0 67
v 19 0 67
v 18 0 59
v 15 0 45
v 21 0 45
v 21 0 45
v 24 0 59
v 18 0 59
v 15 0 45
v 18 0 36
v 22 0 36
v 22 0 36
v 21 0 45
v 15 0 45
vn 0 -0.16439898312091827 0.986393928527832
vn 0 -0.16439898312091827 0.986393928527832
vn 0 -0.16439898312091827 0.986393928527832
vn -0.986393928527832 -0.16439898312091827 0
vn -0.986393928527832 -0.16439898312091827 0
vn -0.986393928527832 -0.16439898312091827 0
vn 0 -0.16439898312091827 -0.986393928527832
vn 0 -0.16439898312091827 -0.986393928527832
vn 0 -0.16439898312091827 -0.986393928527832
vn 0.986393928527832 -0.16439898312091827 0
vn 0.986393928527832 -0.16439898312091827 0
vn 0.986393928527832 -0.16439898312091827 0
vn 0 -0.16439898312091827 0.986393928527832
vn 0 -0.16439898312091827 0.986393928527832
vn 0 -0.16439898312091827 0.986393928527832
vn -0.986393928527832 -0.16439898312091827 0
vn -0.986393928527832 -0.16439898312091827 0
vn -0.986393928527832 -0.16439898312091827 0
vn 0 -0.16439898312091827 -0.986393928527832
vn 0 -0.16439898312091827 -0.986393928527832
vn 0 -0.16439898312091827 -0.986393928527832
vn 0.986393928527832 -0.16439898312091827 0
vn 0.986393928527832 -0.16439898312091827 0
vn 0.986393928527832 -0.16439898312091827 0
vn 0 -0.16439898312091827 0.986393928527832
vn 0 -0.16439898312091827 0.986393928527832
vn 0 -0.16439898312091827 0.986393928527832
vn -0.986393928527832 -0.16439898312091827 0
vn -0.986393928527832 -0.16439898312091827 0
vn -0.986393928527832 -0.16439898312091827 0
vn 0 -0.16439898312091827 -0.986393928527832
vn 0 -0.16439898312091827 -0.986393928527832
vn 0 -0.16439898312091827 -0.986393928527832
vn 0.986393928527832 -0.16439898312091827 0
vn 0.986393928527832 -0.16439898312091827 0
vn 0.986393928527832 -0.16439898312091827 0
vn 0 -1 0
vn 0 -1 0
vn 0 -1 0
vn 0 -1 0
vn 0 -1 0
vn 0 -1 0
vn 0 -1 0
vn 0 -1 0
vn 0 -1 0
vn 0 -1 0
vn 0 -1 0
vn 0 -1 0
vn 0 -1 0
vn 0 -1 0
vn 0 -1 0
vn 0 -1 0
vn 0 -1 0
vn 0 -1 0
f 107//55 108//56 109//57
f 110//58 111//59 112//60
f 113//61 114//62 115//63
f 116//64 117//65 118//66
f 119//67 120//68 121//69
f 122//70 123//71 124//72
f 125//73 126//74 127//75
f 128//76 129//77 130//78
f 131//79 132//80 133//81
f 134//82 135//83 136//84
f 137//85 138//86 139//87
f 140//88 141//89 142//90
f 143//91 144//92 145//93
f 146//94 147//95 148//96
f 149//97 150//98 151//99
f 152//100 153//101 154//102
f 155//103 156//104 157//105
f 158//106 159//107 160//108
o 
v 21 0 45
v 22 0 36
v 24 0 59
v 21 0 45
v 23 0 67
v 24 0 59
v 19 0 67
v 23 0 67
v 18 0 59
v 19 0 67
v 15 0 45
v 18 0 59
v 18 0 36
v 15 0 45
v 22 0 36
v 18 0 36
v 27 -4 47
v 27 0 47
v 12 -4 40
v 12 0 40
v 14 -4 60
v 14 0 60
l 161 162
l 163 164
l 165 166
l 167 168
l 169 170
l 171 172
l 173 174
l 175 176
l 177 178
l 179 180
l 181 182
o 
v 33 -4 8
v 34 -10 7
v 35 -4 8
v 33 -4 8
v 33 -4 6
v 34 -10 7
v 34 -10 7
v 33 -4 6
v 35 -4 6
v 35 -4 6
v 35 -4 8
v 34 -10 7
v 0 -4 23
v 1 -10 22
v 2 -4 23
v 0 -4 23
v 0 -4 21
v 1 -10 22
v 1 -10 22
v 0 -4 21
v 2 -4 21
v 2 -4 21
v 2 -4 23
v 1 -10 22
v 11 0 4
v 11 0 0
v 32 0 0
v 32 0 26
v 28 0 26
v 32 0 0
v 32 0 0
v 28 0 26
v 11 0 25
v 11 0 25
v 11 0 4
v 32 0 0
v 28 0 33
v 28 0 26
v 28 -3 26
v 28 -3 26
v 28 -3 33
v 28 0 33
v 32 0 26
v 32 -3 26
v 28 -3 26
v 28 -3 26
v 28 0 26
v 32 0 26
v 28 0 26
v 28 0 33
v 11 0 33
v 11 0 33
v 11 0 25
v 28 0 26
v 11 -3 33
v 11 -3 25
v 11 0 25
v 11 0 25
v 11 0 33
v 11 -3 33
v 11 0 4
v 4 0 4
v 4 -3 4
v 4 -3 4
v 11 -3 4
v 11 0 4
v 11 0 4
v 11 0 25
v 4 0 25
v 4 0 25
v 4 0 4
v 11 0 4
v 11 0 25
v 11 -3 25
v 4 -3 25
v 4 -3 25
v 4 0 25
v 11 0 25
v 11 0 0
v 11 0 4
v 11 -3 4
v 11 -3 4
v 11 -3 0
v 11 0 0
v 11 -3 0
v 11 -3 4
v 4 -3 4
v 4 -3 4
v 4 -3 0
v 11 -3 0
v 11 -3 25
v 11 -3 33
v 4 -3 33
v 4 -3 33
v 4 -3 25
v 11 -3 25
v 32 -3 26
v 32 -3 33
v 28 -3 33
v 28 -3 33
v 28 -3 26
v 32 -3 26
vn 0 -0.16439898312091827 0.986393928527832
vn 0 -0.16439898312091827 0.986393928527832
vn 0 -0.16439898312091827 0.986393928527832
vn -0.986393928527832 -0.16439898312091827 0
vn -0.986393928527832 -0.16439898312091827 0
vn -0.986393928527832 -0.16439898312091827 0
vn 0 -0.16439898312091827 -0.986393928527832
vn 0 -0.16439898312091827 -0.986393928527832
vn 0 -0.16439898312091827 -0.986393928527832
vn 0.986393928527832 -0.16439898312091827 0
vn 0.986393928527832 -0.16439898312091827 0
vn 0.986393928527832 -0.16439898312091827 0
vn 0 -0.16439898312091827 0.986393928527832
vn 0 -0.16439898312091827 0.986393928527832
vn 0 -0.16439898312091827 0.986393928527832
vn -0.986393928527832 -0.16439898312091827 0
vn -0.986393928527832 -0.16439898312091827 0
vn -0.986393928527832 -0.16439898312091827 0
vn 0 -0.16439898312091827 -0.986393928527832
vn 0 -0.16439898312091827 -0.986393928527832
vn 0 -0.16439898312091827 -0.986393928527832
vn 0.986393928527832 -0.16439898312091827 0
vn 0.986393928527832 -0.16439898312091827 0
vn 0.986393928527832 -0.16439898312091827 0
vn 0 -1 0
vn 0 -1 0
vn 0 -1 0
vn 0 -1 0
vn 0 -1 0
vn 0 -1 0
vn 0 -1 0
vn 0 -1 0
vn 0 -1 0
vn 0 -1 0
vn 0 -1 0
vn 0 -1 0
vn -1 0 0
vn -1 0 0
vn -1 0 0
vn -1 0 0
vn -1 0 0
vn -1 0 0
vn 0 0 -1
vn 0 0 -1
vn 0 0 -1
vn 0 0 -1
vn 0 0 -1
vn 0 0 -1
vn 0 -1 0
vn 0 -1 0
vn 0 -1 0
vn 0 -1 0
vn 0 -1 0
vn 0 -1 0
vn 1 0 0
vn 1 0 0
vn 1 0 0
vn 1 0 0
vn 1 0 0
vn 1 0 0
vn 0 0 1
vn 0 0 1
vn 0 0 1
vn 0 0 1
vn 0 0 1
vn 0 0 1
vn 0 -1 0
vn 0 -1 0
vn 0 -1 0
vn 0 -1 0
vn 0 -1 0
vn 0 -1 0
vn 0 0 -1
vn 0 0 -1
vn 0 0 -1
vn 0 0 -1
vn 0 0 -1
vn 0 0 -1
vn 1 0 0
vn 1 0 0
vn 1 0 0
vn 1 0 0
vn 1 0 0
vn 1 0 0
vn 0 -1 0
vn 0 -1 0
vn 0 -1 0
vn 0 -1 0
vn 0 -1 0
vn 0 -1 0
vn 0 -1 0
vn 0 -1 0
vn 0 -1 0
vn 0 -1 0
vn 0 -1 0
vn 0 -1 0
vn 0 -1 0
vn 0 -1 0
vn 0 -1 0
vn 0 -1 0
vn 0 -1 0
vn 0 -1 0
f 183//109 184//110 185//111
f 186//112 187//113 188//114
f 189//115 190//116 191//117
f 192//118 193//119 194//120
f 195//121 196//122 197//123
f 198//124 199//125 200//126
f 201//127 202//128 203//129
f 204//130 205//131 206//132
f 207//133 208//134 209//135
f 210//136 211//137 212//138
f 213//139 214//140 215//141
f 216//142 217//143 218//144
f 219//145 220//146 221//147
f 222//148 223//149 224//150
f 225//151 226//152 227//153
f 228//154 229//155 230//156
f 231//157 232//158 233//159
f 234//160 235//161 236//162
f 237//163 238//164 239//165
f 240//166 241//167 242//168
f 243//169 244//170 245//171
f 246//172 247//173 248//174
f 249//175 250//176 251//177
f 252//178 253//179 254//180
f 255//181 256//182 257//183
f 258//184 259//185 260//186
f 261//187 262//188 263//189
f 264//190 265//191 266//192
f 267//193 268//194 269//195
f 270//196 271//197 272//198
f 273//199 274//200 275//201
f 276//202 277//203 278//204
f 279//205 280//206 281//207
f 282//208 283//209 284//210
o 
v 4 -3 25
v 4 -3 33
v 4 0 25
v 4 -3 25
v 4 0 4
v 4 0 25
v 4 -3 4
v 4 0 4
v 4 -3 0
v 4 -3 4
v 11 -3 0
v 4 -3 0
v 11 0 0
v 11 -3 0
v 32 0 0
v 11 0 0
v 32 0 26
v 32 0 0
v 32 -3 26
v 32 0 26
v 32 -3 33
v 32 -3 26
v 28 -3 33
v 32 -3 33
v 28 0 33
v 28 -3 33
v 11 0 33
v 28 0 33
v 11 -3 33
v 11 0 33
v 4 -3 33
v 11 -3 33
v 34 -4 7
v 34 0 7
v 1 -4 22
v 1 0 22
l 285 286
l 287 288
l 289 290
l 291 292
l 293 294
l 295 296
l 297 298
l 299 300
l 301 302
l 303 304
l 305 306
l 307 308
l 309 310
l 311 312
l 313 314
l 315 316
l 317 318
l 319 320