o 
v 22 -6 65
v 22 0 58
v 22 -6 58
v 22 -6 65
v 26 -6 75
v 27 -6 80
v 27 -6 80
v 22 -6 77
v 22 -6 65
v 32 -6 80
v 27 -6 80
v 26 -6 75
v 26 -6 75
v 32 -6 75
v 32 -6 80
v 26 -6 58
v 26 -6 75
v 22 -6 65
v 22 -6 65
v 22 -6 58
v 26 -6 58
v 18 -6 77
v 18 -6 65
v 22 -6 65
v 22 -6 65
v 22 -6 77
v 18 -6 77
v 18 0 58
v 22 0 58
v 22 -6 65
v 22 -6 65
v 18 -6 65
v 18 0 58
vn -1 0 0
vn -1 0 0
vn -1 0 0
vn 0 -1 0
vn 0 -1 0
vn 0 -1 0
vn 0 -1 0
vn 0 -1 0
vn 0 -1 0
vn 0 -1 0
vn 0 -1 0
vn 0 -1 0
vn 0 -1 0
vn 0 -1 0
vn 0 -1 0
vn 0 -1 0
vn 0 -1 0
vn 0 -1 0
vn 0 -1 0
vn 0 -1 0
vn 0 -1 0
vn 0 -1 0
vn 0 -1 0
vn 0 -1 0
vn 0 -1 0
vn 0 -1 0
vn 0 -1 0
vn 0 -0.7592566013336182 -0.650791347026825
vn 0 -0.7592566013336182 -0.650791347026825
vn 0 -0.7592566013336182 -0.650791347026825
vn 0 -0.7592566013336182 -0.650791347026825
vn 0 -0.7592566013336182 -0.650791347026825
vn 0 -0.7592566013336182 -0.650791347026825
f 1//1 2//2 3//3
f 4//4 5//5 6//6
f 7//7 8//8 9//9
f 10//10 11//11 12//12
f 13//13 14//14 15//15
f 16//16 17//17 18//18
f 19//19 20//20 21//21
f 22//22 23//23 24//24
f 25//25 26//26 27//27
f 28//28 29//29 30//30
f 31//31 32//32 33//33
o 
v 27 -6 80
v 32 -6 80
v 22 -6 77
v 27 -6 80
v 18 -6 77
v 22 -6 77
v 26 -6 75
v 32 -6 75
v 26 -6 75
v 26 -6 58
v 18 -6 65
v 18 -6 77
v 18 0 58
v 18 -6 65
v 22 0 58
v 18 0 58
v 22 -6 58
v 22 0 58
v 26 -6 58
v 22 -6 58
v 32 -6 80
v 32 -6 75
v 18 -12 58
v 18 -12 77
v 18 0 58
v 18 -12 58
v 26 -10 58
v 26 -6 58
v 32 -10 69
v 26 -10 69
v 32 -22 69
v 26 -22 69
v 26 -22 75
v 32 -22 75
v 26 -22 75
v 26 -6 75
v 26 -22 69
v 26 -22 75
v 26 -22 69
v 26 -10 69
v 26 -10 58
v 26 -10 69
v 32 -22 69
v 32 -10 69
v 32 -22 75
v 32 -22 69
v 32 -22 75
v 32 -6 75
v 32 -12 80
v 32 -6 80
v 27 -12 80
v 32 -12 80
v 27 -12 80
v 27 -6 80
v 22 -12 77
v 27 -12 80
v 22 -12 77
v 22 -6 77
v 22 -12 77
v 18 -12 77
v 18 -12 77
v 18 -6 77
l 34 35
l 36 37
l 38 39
l 40 41
l 42 43
l 44 45
l 46 47
l 48 49
l 50 51
l 52 53
l 54 55
l 56 57
l 58 59
l 60 61
l 62 63
l 64 65
l 66 67
l 68 69
l 70 71
l 72 73
l 74 75
l 76 77
l 78 79
l 80 81
l 82 83
l 84 85
l 86 87
l 88 89
l 90 91
l 92 93
l 94 95
o 
v 59 -6 62
v 59 -6 67
v 57 -6 67
v 47 -6 80
v 41 -6 80
v 48 -6 76
v 48 -6 76
v 52 -6 76
v 47 -6 80
v 41 -6 80
v 35 -6 80
v 35 -6 76
v 35 -6 76
v 48 -6 76
v 41 -6 80
v 41 0 80
v 41 -6 80
v 47 -6 80
v 47 -6 80
v 47 0 80
v 41 0 80
v 47 0 80
v 47 -6 80
v 52 -6 76
v 52 -6 76
v 52 0 76
v 47 0 80
v 57 0 67
v 57 -6 67
v 59 -6 67
v 59 -6 67
v 59 0 67
v 57 0 67
v 59 0 67
v 59 -6 67
v 59 -6 62
v 59 -6 62
v 59 0 62
v 59 0 67
v 52 -6 76
v 48 -6 76
v 48 -6 66
v 48 -6 66
v 52 -6 67
v 52 -6 76
v 59 -6 62
v 57 -6 67
v 52 -6 67
v 52 -6 67
v 48 -6 66
v 59 -6 62
v 48 -6 66
v 47 -6 66
v 47 -6 62
v 47 -6 62
v 59 -6 62
v 48 -6 66
vn 0 -1 0
vn 0 -1 0
vn 0 -1 0
vn 0 -1 0
vn 0 -1 0
vn 0 -1 0
vn 0 -1 0
vn 0 -1 0
vn 0 -1 0
vn 0 -1 0
vn 0 -1 0
vn 0 -1 0
vn 0 -1 0
vn 0 -1 0
vn 0 -1 0
vn 0 0 1
vn 0 0 1
vn 0 0 1
vn 0 0 1
vn 0 0 1
vn 0 0 1
vn 0.6246950626373291 0 0.7808688282966614
vn 0.6246950626373291 0 0.7808688282966614
vn 0.6246950626373291 0 0.7808688282966614
vn 0.6246950626373291 0 0.7808688282966614
vn 0.6246950626373291 0 0.7808688282966614
vn 0.6246950626373291 0 0.7808688282966614
vn 0 0 1
vn 0 0 1
vn 0 0 1
vn 0 0 1
vn 0 0 1
vn 0 0 1
vn 1 0 0
vn 1 0 0
vn 1 0 0
vn 1 0 0
vn 1 0 0
vn 1 0 0
vn 0 -1 0
vn 0 -1 0
vn 0 -1 0
vn 0 -1 0
vn 0 -1 0
vn 0 -1 0
vn 0 -1 0
vn 0 -1 0
vn 0 -1 0
vn 0 -1 0
vn 0 -1 0
vn 0 -1 0
vn 0 -1 0
vn 0 -1 0
vn 0 -1 0
vn 0 -1 0
vn 0 -1 0
vn 0 -1 0
f 96//34 97//35 98//36
f 99//37 100//38 101//39
f 102//40 103//41 104//42
f 105//43 106//44 107//45
f 108//46 109//47 110//48
f 111//49 112//50 113//51
f 114//52 115//53 116//54
f 117//55 118//56 119//57
f 120//58 121//59 122//60
f 123//61 124//62 125//63
f 126//64 127//65 128//66
f 129//67 130//68 131//69
f 132//70 133//71 134//72
f 135//73 136//74 137//75
f 138//76 139//77 140//78
f 141//79 142//80 143//81
f 144//82 145//83 146//84
f 147//85 148//86 149//87
f 150//88 151//89 152//90
o 
v 41 0 80
v 47 0 80
v 41 -6 80
v 41 0 80
v 35 -6 80
v 41 -6 80
v 52 -6 67
v 52 -6 76
v 59 -6 62
v 59 0 62
v 59 -6 62
v 47 -6 62
v 47 -6 66
v 47 -6 62
v 47 -6 66
v 48 -6 66
v 48 -6 76
v 48 -6 66
v 48 -6 76
v 35 -6 76
v 35 -6 80
v 35 -6 76
v 52 0 76
v 47 0 80
v 59 0 67
v 59 0 62
v 57 0 67
v 59 0 67
v 57 -6 67
v 57 0 67
v 52 -6 76
v 52 0 76
v 52 -6 67
v 57 -6 67
v 41 -6 80
v 41 -12 80
v 35 -12 80
v 35 -6 80
v 41 -12 80
v 35 -12 80
v 47 0 80
v 64 0 80
v 52 -11 67
v 52 -11 76
v 57 0 67
v 57 0 76
v 47 -12 66
v 48 -12 66
v 47 -6 66
v 47 -12 66
v 59 -12 62
v 59 -6 62
v 47 -12 62
v 59 -12 62
v 47 -6 62
v 47 -12 62
v 35 -12 76
v 35 -6 76
v 48 -12 76
v 35 -12 76
v 48 -12 76
v 48 -6 76
v 48 -12 66
v 48 -12 76
v 48 -6 66
v 48 -12 66
v 62 -8 62
v 62 0 62
v 62 -8 71
v 62 -8 62
v 64 -8 74
v 62 -8 71
v 62 0 71
v 62 -8 71
v 64 0 74
v 64 -8 74
v 64 0 74
v 64 0 80
v 62 0 71
v 64 0 74
v 62 0 62
v 62 0 71
v 59 0 62
v 62 0 62
v 52 0 76
v 57 0 76
v 52 -11 76
v 52 -6 76
v 57 -11 67
v 57 -6 67
v 52 -11 67
v 52 -6 67
v 57 -11 67
v 52 -11 67
l 153 154
l 155 156
l 157 158
l 159 160
l 161 162
l 163 164
l 165 166
l 167 168
l 169 170
l 171 172
l 173 174
l 175 176
l 177 178
l 179 180
l 181 182
l 183 184
l 185 186
l 187 188
l 189 190
l 191 192
l 193 194
l 195 196
l 197 198
l 199 200
l 201 202
l 203 204
l 205 206
l 207 208
l 209 210
l 211 212
l 213 214
l 215 216
l 217 218
l 219 220
l 221 222
l 223 224
l 225 226
l 227 228
l 229 230
l 231 232
l 233 234
l 235 236
l 237 238
l 239 240
l 241 242
l 243 244
l 245 246
o 
v 40 -6 58
v 40 -6 62
v 36 -6 66
v 36 -6 66
v 36 -6 58
v 40 -6 58
v 36 -6 66
v 40 -6 62
v 44 -6 62
v 44 -6 62
v 44 -6 66
v 36 -6 66
vn 0 -1 0
vn 0 -1 0
vn 0 -1 0
vn 0 -1 0
vn 0 -1 0
vn 0 -1 0
vn 0 -1 0
vn 0 -1 0
vn 0 -1 0
vn 0 -1 0
vn 0 -1 0
vn 0 -1 0
f 247//91 248//92 249//93
f 250//94 251//95 252//96
f 253//97 254//98 255//99
f 256//100 257//101 258//102
o 
v 36 -6 58
v 36 -6 66
v 40 -6 62
v 40 -6 58
v 44 -6 62
v 40 -6 62
v 36 -6 66
v 44 -6 66
v 40 -6 58
v 36 -6 58
v 44 -6 66
v 44 -6 62
v 36 -10 58
v 36 -10 66
v 36 -6 58
v 36 -10 58
v 36 -6 66
v 36 -10 66
v 44 -12 62
v 44 -6 62
v 44 -10 66
v 36 -10 66
v 44 -10 66
v 44 -6 66
v 40 -12 62
v 44 -12 62
v 40 -12 62
v 40 -12 58
v 40 -12 62
v 40 -6 62
v 40 -12 58
v 40 -6 58
l 259 260
l 261 262
l 263 264
l 265 266
l 267 268
l 269 270
l 271 272
l 273 274
l 275 276
l 277 278
l 279 280
l 281 282
l 283 284
l 285 286
l 287 288
l 289 290
o 
v 22 0 48
v 40 0 48
v 40 -6 48
v 40 -6 48
v 22 -6 48
v 22 0 48
v 40 -6 48
v 36 -6 51
v 26 -6 51
v 26 -6 51
v 22 -6 48
v 40 -6 48
v 36 -6 51
v 40 -6 48
v 40 -6 55
v 40 -6 55
v 36 -6 55
v 36 -6 51
v 22 -6 55
v 22 -6 48
v 26 -6 51
v 26 -6 51
v 26 -6 55
v 22 -6 55
v 20 -6 41
v 20 -6 34
v 24 -6 34
v 24 -6 34
v 24 -6 38
v 20 -6 41
v 20 -6 41
v 24 -6 38
v 39 -6 38
v 39 -6 38
v 43 -6 41
v 20 -6 41
v 43 -6 34
v 43 -6 41
v 39 -6 38
v 39 -6 38
v 39 -6 34
v 43 -6 34
v 20 0 41
v 20 -6 41
v 43 -6 41
v 43 -6 41
v 43 0 41
v 20 0 41
vn 0 0 -1
vn 0 0 -1
vn 0 0 -1
vn 0 0 -1
vn 0 0 -1
vn 0 0 -1
vn 0 -1 0
vn 0 -1 0
vn 0 -1 0
vn 0 -1 0
vn 0 -1 0
vn 0 -1 0
vn 0 -1 0
vn 0 -1 0
vn 0 -1 0
vn 0 -1 0
vn 0 -1 0
vn 0 -1 0
vn 0 -1 0
vn 0 -1 0
vn 0 -1 0
vn 0 -1 0
vn 0 -1 0
vn 0 -1 0
vn 0 -1 0
vn 0 -1 0
vn 0 -1 0
vn 0 -1 0
vn 0 -1 0
vn 0 -1 0
vn 0 -1 0
vn 0 -1 0
vn 0 -1 0
vn 0 -1 0
vn 0 -1 0
vn 0 -1 0
vn 0 -1 0
vn 0 -1 0
vn 0 -1 0
vn 0 -1 0
vn 0 -1 0
vn 0 -1 0
vn 0 0 1
vn 0 0 1
vn 0 0 1
vn 0 0 1
vn 0 0 1
vn 0 0 1
f 291//103 292//104 293//105
f 294//106 295//107 296//108
f 297//109 298//110 299//111
f 300//112 301//113 302//114
f 303//115 304//116 305//117
f 306//118 307//119 308//120
f 309//121 310//122 311//123
f 312//124 313//125 314//126
f 315//127 316//128 317//129
f 318//130 319//131 320//132
f 321//133 322//134 323//135
f 324//136 325//137 326//138
f 327//139 328//140 329//141
f 330//142 331//143 332//144
f 333//145 334//146 335//147
f 336//148 337//149 338//150
o 
v 26 -6 55
v 26 -6 51
v 36 -6 55
v 36 -6 51
v 26 -6 51
v 36 -6 51
v 40 0 48
v 22 0 48
v 43 0 41
v 20 0 41
v 40 -6 55
v 36 -6 55
v 40 -6 55
v 40 -6 48
v 40 -6 48
v 40 0 48
v 26 -6 55
v 22 -6 55
v 22 -6 55
v 22 -6 48
v 22 0 48
v 22 -6 48
v 24 -6 34
v 20 -6 34
v 24 -6 34
v 24 -6 38
v 43 -6 41
v 43 0 41
v 20 -6 41
v 20 0 41
v 20 -6 34
v 20 -6 41
v 39 -6 38
v 24 -6 38
v 39 -6 34
v 39 -6 38
v 39 -6 34
v 43 -6 34
v 43 -6 41
v 43 -6 34
v 48 0 48
v 48 0 41
v 48 -14 41
v 48 0 41
v 48 -13 48
v 48 0 48
v 39 -12 38
v 39 -6 38
v 39 -12 34
v 39 -6 34
v 39 -12 38
v 39 -12 34
v 24 -12 38
v 39 -12 38
v 24 -12 38
v 24 -6 38
v 24 -12 34
v 24 -12 38
v 24 -6 34
v 24 -12 34
v 26 -10 51
v 36 -10 51
v 36 -10 51
v 36 -6 51
v 36 -10 55
v 36 -10 51
v 26 -10 51
v 26 -6 51
v 26 -10 55
v 26 -10 51
v 26 -6 55
v 26 -10 55
v 36 -6 55
v 36 -10 55
v 14 0 41
v 14 0 48
v 14 0 48
v 22 0 48
v 14 -14 48
v 14 0 48
v 22 -14 48
v 14 -14 48
v 22 -14 48
v 22 -6 48
v 22 -14 55
v 22 -14 48
v 22 -6 55
v 22 -14 55
v 43 -6 41
v 43 -14 41
v 43 0 41
v 48 0 41
v 43 -14 41
v 48 -14 41
v 48 0 48
v 40 0 48
v 40 -13 48
v 48 -13 48
v 40 -13 48
v 40 -6 48
v 40 -13 55
v 40 -13 48
v 40 -13 55
v 40 -6 55
v 20 -12 41
v 20 -6 41
v 20 -12 34
v 20 -6 34
v 20 -12 41
v 20 -12 34
v 14 0 41
v 20 0 41
v 14 -12 41
v 14 0 41
v 14 -12 41
v 20 -12 41
v 43 -14 34
v 43 -6 34
v 43 -14 34
v 43 -14 41
l 339 340
l 341 342
l 343 344
l 345 346
l 347 348
l 349 350
l 351 352
l 353 354
l 355 356
l 357 358
l 359 360
l 361 362
l 363 364
l 365 366
l 367 368
l 369 370
l 371 372
l 373 374
l 375 376
l 377 378
l 379 380
l 381 382
l 383 384
l 385 386
l 387 388
l 389 390
l 391 392
l 393 394
l 395 396
l 397 398
l 399 400
l 401 402
l 403 404
l 405 406
l 407 408
l 409 410
l 411 412
l 413 414
l 415 416
l 417 418
l 419 420
l 421 422
l 423 424
l 425 426
l 427 428
l 429 430
l 431 432
l 433 434
l 435 436
l 437 438
l 439 440
l 441 442
l 443 444
l 445 446
l 447 448
l 449 450
l 451 452
l 453 454
l 455 456
l 457 458
o 
v 20 -6 25
v 20 -6 23
v 24 -6 24
v 26 -6 20
v 24 -6 24
v 22 -6 20
v 24 -6 31
v 20 -6 31
v 20 -6 25
v 20 -6 25
v 24 -6 24
v 24 -6 31
v 20 -6 20
v 22 -6 20
v 24 -6 24
v 24 -6 24
v 20 -6 23
v 20 -6 20
v 26 -6 17
v 26 -6 20
v 22 -6 20
v 22 -6 20
v 22 -6 17
v 26 -6 17
v 30 -6 24
v 24 -6 24
v 26 -6 20
v 26 -6 20
v 30 -6 20
v 30 -6 24
v 20 -6 23
v 20 -6 25
v 17 -3 25
v 17 -3 25
v 17 -3 23
v 20 -6 23
vn 0 -1 0
vn 0 -1 0
vn 0 -1 0
vn 0 -1 0
vn 0 -1 0
vn 0 -1 0
vn 0 -1 0
vn 0 -1 0
vn 0 -1 0
vn 0 -1 0
vn 0 -1 0
vn 0 -1 0
vn 0 -1 0
vn 0 -1 0
vn 0 -1 0
vn 0 -1 0
vn 0 -1 0
vn 0 -1 0
vn 0 -1 0
vn 0 -1 0
vn 0 -1 0
vn 0 -1 0
vn 0 -1 0
vn 0 -1 0
vn 0 -1 0
vn 0 -1 0
vn 0 -1 0
vn 0 -1 0
vn 0 -1 0
vn 0 -1 0
vn -0.7071067690849304 -0.7071067690849304 0
vn -0.7071067690849304 -0.7071067690849304 0
vn -0.7071067690849304 -0.7071067690849304 0
vn -0.7071067690849304 -0.7071067690849304 0
vn -0.7071067690849304 -0.7071067690849304 0
vn -0.7071067690849304 -0.7071067690849304 0
f 459//151 460//152 461//153
f 462//154 463//155 464//156
f 465//157 466//158 467//159
f 468//160 469//161 470//162
f 471//163 472//164 473//165
f 474//166 475//167 476//168
f 477//169 478//170 479//171
f 480//172 481//173 482//174
f 483//175 484//176 485//177
f 486//178 487//179 488//180
f 489//181 490//182 491//183
f 492//184 493//185 494//186
o 
v 20 -6 31
v 24 -6 31
v 30 -6 20
v 30 -6 24
v 22 -6 17
v 26 -6 17
v 17 -3 23
v 17 -3 25
v 20 -6 23
v 17 -3 23
v 20 -6 25
v 17 -3 25
v 24 -6 24
v 30 -6 24
v 24 -6 31
v 24 -6 24
v 30 -6 20
v 26 -6 20
v 26 -6 20
v 26 -6 17
v 22 -6 20
v 22 -6 17
v 20 -6 20
v 22 -6 20
v 20 -6 23
v 20 -6 20
v 20 -6 25
v 20 -6 31
v 17 -12 23
v 17 -3 23
v 17 -12 25
v 17 -3 25
v 24 -6 24
v 24 -12 24
v 24 -12 31
v 24 -6 31
v 24 -12 24
v 24 -12 31
v 30 -12 24
v 24 -12 24
v 30 -12 24
v 30 -6 24
v 30 -12 20
v 30 -6 20
v 26 -12 20
v 30 -12 20
v 26 -12 20
v 26 -6 20
v 26 -12 17
v 26 -12 20
v 26 -12 17
v 26 -6 17
v 22 -6 17
v 22 -12 17
v 22 -6 20
v 22 -12 20
v 20 -6 20
v 20 -12 20
v 20 -6 23
v 20 -12 23
v 22 -12 20
v 22 -12 17
v 22 -12 20
v 20 -12 20
v 20 -12 23
v 20 -12 20
v 17 -12 23
v 20 -12 23
v 20 -6 31
v 20 -12 31
v 20 -12 25
v 20 -6 25
v 20 -12 25
v 20 -12 31
v 17 -12 25
v 20 -12 25
l 495 496
l 497 498
l 499 500
l 501 502
l 503 504
l 505 506
l 507 508
l 509 510
l 511 512
l 513 514
l 515 516
l 517 518
l 519 520
l 521 522
l 523 524
l 525 526
l 527 528
l 529 530
l 531 532
l 533 534
l 535 536
l 537 538
l 539 540
l 541 542
l 543 544
l 545 546
l 547 548
l 549 550
l 551 552
l 553 554
l 555 556
l 557 558
l 559 560
l 561 562
l 563 564
l 565 566
l 567 568
l 569 570
o 
v 33 -6 24
v 33 -6 20
v 35 -6 20
v 39 -6 20
v 39 -6 24
v 37 -6 20
v 43 -6 15
v 43 -6 17
v 39 -6 20
v 39 -6 20
v 39 -6 15
v 43 -6 15
v 43 -6 22
v 43 -6 31
v 39 -6 31
v 39 -6 31
v 39 -6 24
v 43 -6 22
v 43 -6 17
v 43 -6 22
v 39 -6 24
v 39 -6 24
v 39 -6 20
v 43 -6 17
v 39 -6 24
v 33 -6 24
v 35 -6 20
v 35 -6 20
v 37 -6 20
v 39 -6 24
v 35 -3 17
v 37 -3 17
v 37 -6 20
v 37 -6 20
v 35 -6 20
v 35 -3 17
vn 0 -1 0
vn 0 -1 0
vn 0 -1 0
vn 0 -1 0
vn 0 -1 0
vn 0 -1 0
vn 0 -1 0
vn 0 -1 0
vn 0 -1 0
vn 0 -1 0
vn 0 -1 0
vn 0 -1 0
vn 0 -1 0
vn 0 -1 0
vn 0 -1 0
vn 0 -1 0
vn 0 -1 0
vn 0 -1 0
vn 0 -1 0
vn 0 -1 0
vn 0 -1 0
vn 0 -1 0
vn 0 -1 0
vn 0 -1 0
vn 0 -1 0
vn 0 -1 0
vn 0 -1 0
vn 0 -1 0
vn 0 -1 0
vn 0 -1 0
vn 0 -0.7071067690849304 -0.7071067690849304
vn 0 -0.7071067690849304 -0.7071067690849304
vn 0 -0.7071067690849304 -0.7071067690849304
vn 0 -0.7071067690849304 -0.7071067690849304
vn 0 -0.7071067690849304 -0.7071067690849304
vn 0 -0.7071067690849304 -0.7071067690849304
f 571//187 572//188 573//189
f 574//190 575//191 576//192
f 577//193 578//194 579//195
f 580//196 581//197 582//198
f 583//199 584//200 585//201
f 586//202 587//203 588//204
f 589//205 590//206 591//207
f 592//208 593//209 594//210
f 595//211 596//212 597//213
f 598//214 599//215 600//216
f 601//217 602//218 603//219
f 604//220 605//221 606//222
o 
v 43 -6 22
v 43 -6 17
v 43 -6 15
v 39 -6 15
v 43 -6 17
v 43 -6 15
v 39 -6 24
v 33 -6 24
v 39 -6 31
v 39 -6 24
v 39 -6 20
v 37 -6 20
v 35 -6 20
v 33 -6 20
v 35 -3 17
v 35 -6 20
v 37 -3 17
v 35 -3 17
v 37 -6 20
v 37 -3 17
v 39 -6 20
v 39 -6 15
v 33 -6 24
v 33 -6 20
v 43 -6 31
v 43 -6 22
v 39 -6 31
v 43 -6 31
v 37 -12 20
v 37 -6 20
v 37 -12 17
v 37 -3 17
v 35 -12 20
v 35 -6 20
v 35 -12 17
v 35 -3 17
v 35 -12 20
v 33 -12 20
v 35 -12 17
v 35 -12 20
v 37 -12 20
v 37 -12 17
v 39 -12 20
v 37 -12 20
v 43 -12 17
v 43 -6 17
v 39 -12 24
v 39 -6 24
v 45 -7 17
v 43 -6 17
v 45 -7 20
v 45 -7 17
v 39 -12 20
v 39 -12 15
v 39 -12 24
v 33 -12 24
v 39 -12 31
v 39 -12 24
v 43 -14 22
v 43 -14 31
v 45 -14 20
v 43 -14 22
v 43 -12 17
v 45 -12 17
v 43 -12 15
v 43 -12 17
v 39 -12 15
v 39 -6 15
v 43 -12 15
v 43 -6 15
v 45 -7 17
v 45 -12 17
v 45 -7 20
v 45 -14 20
v 43 -14 22
v 43 -6 22
v 43 -6 31
v 43 -14 31
v 39 -12 31
v 39 -6 31
v 39 -12 20
v 39 -6 20
v 33 -12 24
v 33 -6 24
v 33 -12 20
v 33 -6 20
v 43 -6 22
v 45 -7 20
l 607 608
l 609 610
l 611 612
l 613 614
l 615 616
l 617 618
l 619 620
l 621 622
l 623 624
l 625 626
l 627 628
l 629 630
l 631 632
l 633 634
l 635 636
l 637 638
l 639 640
l 641 642
l 643 644
l 645 646
l 647 648
l 649 650
l 651 652
l 653 654
l 655 656
l 657 658
l 659 660
l 661 662
l 663 664
l 665 666
l 667 668
l 669 670
l 671 672
l 673 674
l 675 676
l 677 678
l 679 680
l 681 682
l 683 684
l 685 686
l 687 688
l 689 690
l 691 692
l 693 694
o 
v 2 -6 18
v 4 -6 4
v 4 -6 18
v 0 -2 22
v 0 -6 18
v 2 -6 18
v 2 -6 18
v 2 -2 22
v 0 -2 22
v 0 -6 0
v 4 -6 4
v 2 -6 18
v 2 -6 18
v 0 -6 18
v 0 -6 0
v 12 -6 0
v 12 -6 4
v 4 -6 4
v 4 -6 4
v 0 -6 0
v 12 -6 0
vn 0 -1 0
vn 0 -1 0
vn 0 -1 0
vn 0 -0.7071067690849304 0.7071067690849304
vn 0 -0.7071067690849304 0.7071067690849304
vn 0 -0.7071067690849304 0.7071067690849304
vn 0 -0.7071067690849304 0.7071067690849304
vn 0 -0.7071067690849304 0.7071067690849304
vn 0 -0.7071067690849304 0.7071067690849304
vn 0 -1 0
vn 0 -1 0
vn 0 -1 0
vn 0 -1 0
vn 0 -1 0
vn 0 -1 0
vn 0 -1 0
vn 0 -1 0
vn 0 -1 0
vn 0 -1 0
vn 0 -1 0
vn 0 -1 0
f 695//223 696//224 697//225
f 698//226 699//227 700//228
f 701//229 702//230 703//231
f 704//232 705//233 706//234
f 707//235 708//236 709//237
f 710//238 711//239 712//240
f 713//241 714//242 715//243
o 
v 0 -6 18
v 0 -2 22
v 0 -6 0
v 0 -6 18
v 4 -6 4
v 4 -6 18
v 2 -6 18
v 4 -6 18
v 2 -2 22
v 2 -6 18
v 0 -2 22
v 2 -2 22
v 12 -6 4
v 4 -6 4
v 12 -6 0
v 12 -6 4
v 0 -6 0
v 12 -6 0
v 2 -6 18
v 2 -13 18
v 2 -13 22
v 2 -2 22
v 2 -13 18
v 2 -13 22
v 4 -13 18
v 2 -13 18
v 4 -6 4
v 4 -13 4
v 4 -13 18
v 4 -6 18
v 4 -13 4
v 4 -13 18
v 12 -13 4
v 4 -13 4
v 12 -13 4
v 12 -6 4
v 0 -2 22
v 0 -17 22
v 0 -17 22
v 0 -17 0
v 0 -6 0
v 0 -17 0
v 12 -17 0
v 0 -17 0
v 12 -6 0
v 12 -17 0
l 716 717
l 718 719
l 720 721
l 722 723
l 724 725
l 726 727
l 728 729
l 730 731
l 732 733
l 734 735
l 736 737
l 738 739
l 740 741
l 742 743
l 744 745
l 746 747
l 748 749
l 750 751
l 752 753
l 754 755
l 756 757
l 758 759
l 760 761
o 
v 15 -6 4
v 15 -6 0
v 22 -6 4
v 28 -6 0
v 28 -6 4
v 26 -6 4
v 15 -6 0
v 28 -6 0
v 26 -6 4
v 26 -6 4
v 22 -6 4
v 15 -6 0
v 22 -6 4
v 26 -6 4
v 26 -6 14
v 26 -6 14
v 22 -6 14
v 22 -6 4
vn 0 -1 0
vn 0 -1 0
vn 0 -1 0
vn 0 -1 0
vn 0 -1 0
vn 0 -1 0
vn 0 -1 0
vn 0 -1 0
vn 0 -1 0
vn 0 -1 0
vn 0 -1 0
vn 0 -1 0
vn 0 -1 0
vn 0 -1 0
vn 0 -1 0
vn 0 -1 0
vn 0 -1 0
vn 0 -1 0
f 762//244 763//245 764//246
f 765//247 766//248 767//249
f 768//250 769//251 770//252
f 771//253 772//254 773//255
f 774//256 775//257 776//258
f 777//259 778//260 779//261
o 
v 28 -6 4
v 28 -6 0
v 28 -6 0
v 15 -6 0
v 26 -6 4
v 28 -6 4
v 26 -6 14
v 26 -6 4
v 22 -6 14
v 26 -6 14
v 22 -6 4
v 22 -6 14
v 15 -6 4
v 22 -6 4
v 15 -6 0
v 15 -6 4
v 22 -13 4
v 22 -13 14
v 22 -13 4
v 15 -13 4
v 15 -17 0
v 28 -17 0
v 26 -12 4
v 28 -12 4
v 26 -12 14
v 26 -12 4
v 28 -17 0
v 28 -6 0
v 15 -17 0
v 15 -6 0
v 15 -6 4
v 15 -13 4
v 22 -13 14
v 22 -6 14
v 26 -12 14
v 26 -6 14
v 28 -12 4
v 28 -6 4
v 26 -12 4
v 26 -6 4
v 22 -13 4
v 22 -6 4
l 780 781
l 782 783
l 784 785
l 786 787
l 788 789
l 790 791
l 792 793
l 794 795
l 796 797
l 798 799
l 800 801
l 802 803
l 804 805
l 806 807
l 808 809
l 810 811
l 812 813
l 814 815
l 816 817
l 818 819
l 820 821
o 
v 7 -9 8
v 19 -9 8
v 19 -9 12
v 19 -9 12
v 11 -9 12
v 7 -9 8
v 11 -9 16
v 7 -9 16
v 7 -9 8
v 7 -9 8
v 11 -9 12
v 11 -9 16
vn 0 -1 0
vn 0 -1 0
vn 0 -1 0
vn 0 -1 0
vn 0 -1 0
vn 0 -1 0
vn 0 -1 0
vn 0 -1 0
vn 0 -1 0
vn 0 -1 0
vn 0 -1 0
vn 0 -1 0
f 822//262 823//263 824//264
f 825//265 826//266 827//267
f 828//268 829//269 830//270
f 831//271 832//272 833//273
o 
v 11 -9 12
v 19 -9 12
v 11 -9 16
v 11 -9 12
v 7 -9 16
v 11 -9 16
v 7 -9 8
v 7 -9 16
v 19 -9 8
v 7 -9 8
v 19 -9 12
v 19 -9 8
v 9 -15 10
v 7 -13 8
v 11 -13 12
v 9 -15 10
v 9 -15 10
v 9 -15 16
v 19 -15 10
v 9 -15 10
v 9 -15 16
v 11 -13 16
v 7 -13 16
v 9 -15 16
v 19 -15 10
v 19 -13 8
v 19 -13 12
v 19 -15 10
v 19 -9 8
v 19 -13 8
v 19 -13 12
v 19 -9 12
v 11 -9 12
v 11 -13 12
v 7 -13 8
v 7 -9 8
v 19 -13 8
v 7 -13 8
v 11 -13 12
v 19 -13 12
v 7 -13 16
v 7 -13 8
v 11 -13 16
v 11 -13 12
v 11 -9 16
v 11 -13 16
v 7 -13 16
v 7 -9 16
l 834 835
l 836 837
l 838 839
l 840 841
l 842 843
l 844 845
l 846 847
l 848 849
l 850 851
l 852 853
l 854 855
l 856 857
l 858 859
l 860 861
l 862 863
l 864 865
l 866 867
l 868 869
l 870 871
l 872 873
l 874 875
l 876 877
l 878 879
l 880 881
o 
v 37 -6 69
v 45 -6 69
v 45 -6 73
v 45 -6 73
v 37 -6 73
v 37 -6 69
vn 0 -1 0
vn 0 -1 0
vn 0 -1 0
vn 0 -1 0
vn 0 -1 0
vn 0 -1 0
f 882//274 883//275 884//276
f 885//277 886//278 887//279
o 
v 37 -6 69
v 37 -6 73
v 45 -6 69
v 37 -6 69
v 45 -6 73
v 45 -6 69
v 37 -6 73
v 45 -6 73
v 37 -10 73
v 45 -10 73
v 37 -10 69
v 37 -10 73
v 45 -10 69
v 37 -10 69
v 45 -10 73
v 45 -10 69
v 45 -6 73
v 45 -10 73
v 45 -10 69
v 45 -6 69
v 37 -10 73
v 37 -6 73
v 37 -10 69
v 37 -6 69
l 888 889
l 890 891
l 892 893
l 894 895
l 896 897
l 898 899
l 900 901
l 902 903
l 904 905
l 906 907
l 908 909
l 910 911