o 
v 8 -8 38
v 8 -8 54
v 0 -8 54
v 0 -8 54
v 0 -8 38
v 8 -8 38
vn 0 -1 0
vn 0 -1 0
vn 0 -1 0
vn 0 -1 0
vn 0 -1 0
vn 0 -1 0
f 1//1 2//2 3//3
f 4//4 5//5 6//6
o 
v 8 -8 38
v 8 -8 54
v 0 -8 38
v 8 -8 38
v 0 -8 54
v 0 -8 38
v 8 -8 54
v 0 -8 54
v 6 -23 54
v 6 -23 38
v 2 -23 54
v 2 -23 38
v 6 -18 38
v 6 -18 54
v 2 -18 54
v 2 -18 38
v 0 -16 38
v 0 -16 54
v 0 -16 54
v 0 -8 54
v 2 -18 54
v 0 -16 54
v 2 -23 54
v 2 -18 54
v 6 -23 54
v 2 -23 54
v 6 -18 54
v 6 -23 54
v 8 -16 54
v 6 -18 54
v 8 -16 54
v 8 -8 54
v 8 -16 38
v 8 -16 54
v 0 -16 38
v 0 -8 38
v 2 -18 38
v 0 -16 38
v 2 -23 38
v 2 -18 38
v 6 -23 38
v 2 -23 38
v 6 -18 38
v 6 -23 38
v 8 -16 38
v 6 -18 38
v 8 -16 38
v 8 -8 38
l 7 8
l 9 10
l 11 12
l 13 14
l 15 16
l 17 18
l 19 20
l 21 22
l 23 24
l 25 26
l 27 28
l 29 30
l 31 32
l 33 34
l 35 36
l 37 38
l 39 40
l 41 42
l 43 44
l 45 46
l 47 48
l 49 50
l 51 52
l 53 54
o 
v 8 -8 19
v 8 -8 35
v 0 -8 35
v 0 -8 35
v 0 -8 19
v 8 -8 19
vn 0 -1 0
vn 0 -1 0
vn 0 -1 0
vn 0 -1 0
vn 0 -1 0
vn 0 -1 0
f 55//7 56//8 57//9
f 58//10 59//11 60//12
o 
v 8 -8 19
v 8 -8 35
v 0 -8 19
v 8 -8 19
v 0 -8 35
v 0 -8 19
v 8 -8 35
v 0 -8 35
v 6 -23 35
v 6 -23 19
v 2 -23 35
v 2 -23 19
v 6 -18 19
v 6 -18 35
v 2 -18 35
v 2 -18 19
v 0 -16 19
v 0 -16 35
v 0 -16 35
v 0 -8 35
v 2 -18 35
v 0 -16 35
v 2 -23 35
v 2 -18 35
v 6 -23 35
v 2 -23 35
v 6 -18 35
v 6 -23 35
v 8 -16 35
v 6 -18 35
v 8 -16 35
v 8 -8 35
v 8 -16 19
v 8 -16 35
v 0 -16 19
v 0 -8 19
v 2 -18 19
v 0 -16 19
v 2 -23 19
v 2 -18 19
v 6 -23 19
v 2 -23 19
v 6 -18 19
v 6 -23 19
v 8 -16 19
v 6 -18 19
v 8 -16 19
v 8 -8 19
l 61 62
l 63 64
l 65 66
l 67 68
l 69 70
l 71 72
l 73 74
l 75 76
l 77 78
l 79 80
l 81 82
l 83 84
l 85 86
l 87 88
l 89 90
l 91 92
l 93 94
l 95 96
l 97 98
l 99 100
l 101 102
l 103 104
l 105 106
l 107 108
o 
v 8 0 0
v 8 0 3
v 0 0 3
v 0 0 3
v 0 0 0
v 8 0 0
v 8 0 3
v 8 -3 5
v 0 -3 5
v 0 -3 5
v 0 0 3
v 8 0 3
v 8 -3 5
v 8 -3 7
v 0 -3 7
v 0 -3 7
v 0 -3 5
v 8 -3 5
v 8 -3 7
v 8 -5 8
v 0 -5 8
v 0 -5 8
v 0 -3 7
v 8 -3 7
v 8 -5 8
v 8 -5 11
v 0 -5 11
v 0 -5 11
v 0 -5 8
v 8 -5 8
v 8 -5 11
v 8 -8 13
v 0 -8 13
v 0 -8 13
v 0 -5 11
v 8 -5 11
v 8 -8 13
v 8 -8 16
v 0 -8 16
v 0 -8 16
v 0 -8 13
v 8 -8 13
vn 0 -1 0
vn 0 -1 0
vn 0 -1 0
vn 0 -1 0
vn 0 -1 0
vn 0 -1 0
vn 0 -0.5547001957893372 -0.8320503234863281
vn 0 -0.5547001957893372 -0.8320503234863281
vn 0 -0.5547001957893372 -0.8320503234863281
vn 0 -0.5547001957893372 -0.8320503234863281
vn 0 -0.5547001957893372 -0.8320503234863281
vn 0 -0.5547001957893372 -0.8320503234863281
vn 0 -1 0
vn 0 -1 0
vn 0 -1 0
vn 0 -1 0
vn 0 -1 0
vn 0 -1 0
vn 0 -0.4472135901451111 -0.8944271802902222
vn 0 -0.4472135901451111 -0.8944271802902222
vn 0 -0.4472135901451111 -0.8944271802902222
vn 0 -0.4472135901451111 -0.8944271802902222
vn 0 -0.4472135901451111 -0.8944271802902222
vn 0 -0.4472135901451111 -0.8944271802902222
vn 0 -1 0
vn 0 -1 0
vn 0 -1 0
vn 0 -1 0
vn 0 -1 0
vn 0 -1 0
vn 0 -0.5547001957893372 -0.8320503234863281
vn 0 -0.5547001957893372 -0.8320503234863281
vn 0 -0.5547001957893372 -0.8320503234863281
vn 0 -0.5547001957893372 -0.8320503234863281
vn 0 -0.5547001957893372 -0.8320503234863281
vn 0 -0.5547001957893372 -0.8320503234863281
vn 0 -1 0
vn 0 -1 0
vn 0 -1 0
vn 0 -1 0
vn 0 -1 0
vn 0 -1 0
f 109//13 110//14 111//15
f 112//16 113//17 114//18
f 115//19 116//20 117//21
f 118//22 119//23 120//24
f 121//25 122//26 123//27
f 124//28 125//29 126//30
f 127//31 128//32 129//33
f 130//34 131//35 132//36
f 133//37 134//38 135//39
f 136//40 137//41 138//42
f 139//43 140//44 141//45
f 142//46 143//47 144//48
f 145//49 146//50 147//51
f 148//52 149//53 150//54
o 
v 8 -8 13
v 8 -8 16
v 8 -5 11
v 8 -8 13
v 8 -5 8
v 8 -5 11
v 8 -3 7
v 8 -5 8
v 8 -3 5
v 8 -3 7
v 8 0 3
v 8 -3 5
v 8 0 0
v 8 0 3
v 0 0 3
v 0 0 0
v 0 -3 5
v 0 0 3
v 0 -3 7
v 0 -3 5
v 0 -5 8
v 0 -3 7
v 0 -5 11
v 0 -5 8
v 0 -8 13
v 0 -5 11
v 0 -8 16
v 0 -8 13
v 0 0 0
v 8 0 0
v 8 -8 16
v 0 -8 16
v 6 -23 16
v 6 -23 0
v 2 -23 16
v 2 -23 0
v 6 -18 0
v 6 -18 16
v 2 -18 16
v 2 -18 0
v 0 -16 0
v 0 -16 16
v 0 -16 16
v 0 -8 16
v 2 -18 16
v 0 -16 16
v 2 -23 16
v 2 -18 16
v 6 -23 16
v 2 -23 16
v 6 -18 16
v 6 -23 16
v 8 -16 16
v 6 -18 16
v 8 -16 16
v 8 -8 16
v 8 -16 0
v 8 -16 16
v 0 -16 0
v 0 0 0
v 2 -18 0
v 0 -16 0
v 2 -23 0
v 2 -18 0
v 6 -23 0
v 2 -23 0
v 6 -18 0
v 6 -23 0
v 8 -16 0
v 6 -18 0
v 8 -16 0
v 8 0 0
l 151 152
l 153 154
l 155 156
l 157 158
l 159 160
l 161 162
l 163 164
l 165 166
l 167 168
l 169 170
l 171 172
l 173 174
l 175 176
l 177 178
l 179 180
l 181 182
l 183 184
l 185 186
l 187 188
l 189 190
l 191 192
l 193 194
l 195 196
l 197 198
l 199 200
l 201 202
l 203 204
l 205 206
l 207 208
l 209 210
l 211 212
l 213 214
l 215 216
l 217 218
l 219 220
l 221 222