o 
v 23 -15 108
v 17 -15 108
v 17 -15 88
v 17 -15 88
v 23 -15 88
v 23 -15 108
vn 0 -1 0
vn 0 -1 0
vn 0 -1 0
vn 0 -1 0
vn 0 -1 0
vn 0 -1 0
f 1//1 2//2 3//3
f 4//4 5//5 6//6
o 
v 23 -15 108
v 23 -15 88
v 17 -15 108
v 23 -15 108
v 17 -15 88
v 17 -15 108
v 17 -15 88
v 23 -15 88
v 17 -24 88
v 23 -24 88
v 17 -24 88
v 17 -24 108
v 17 -15 88
v 17 -24 88
v 23 -24 88
v 23 -15 88
v 23 -24 108
v 23 -24 88
v 23 -24 108
v 23 -15 108
v 17 -24 108
v 23 -24 108
v 17 -24 108
v 17 -15 108
l 7 8
l 9 10
l 11 12
l 13 14
l 15 16
l 17 18
l 19 20
l 21 22
l 23 24
l 25 26
l 27 28
l 29 30
o 
v 26 -15 70
v 26 -15 85
v 17 -15 85
v 17 -15 85
v 17 -15 82
v 26 -15 70
v 26 -15 70
v 17 -15 82
v 14 -15 82
v 14 -15 82
v 14 -15 70
v 26 -15 70
v 17 -15 85
v 17 -17 85
v 17 -17 82
v 17 -17 82
v 17 -15 82
v 17 -15 85
v 17 -15 82
v 17 -17 82
v 14 -17 82
v 14 -17 82
v 14 -15 82
v 17 -15 82
v 17 -17 82
v 17 -17 85
v 14 -17 85
v 14 -17 85
v 14 -17 82
v 17 -17 82
vn 0 -1 0
vn 0 -1 0
vn 0 -1 0
vn 0 -1 0
vn 0 -1 0
vn 0 -1 0
vn 0 -1 0
vn 0 -1 0
vn 0 -1 0
vn 0 -1 0
vn 0 -1 0
vn 0 -1 0
vn 1 0 0
vn 1 0 0
vn 1 0 0
vn 1 0 0
vn 1 0 0
vn 1 0 0
vn 0 0 -1
vn 0 0 -1
vn 0 0 -1
vn 0 0 -1
vn 0 0 -1
vn 0 0 -1
vn 0 -1 0
vn 0 -1 0
vn 0 -1 0
vn 0 -1 0
vn 0 -1 0
vn 0 -1 0
f 31//7 32//8 33//9
f 34//10 35//11 36//12
f 37//13 38//14 39//15
f 40//16 41//17 42//18
f 43//19 44//20 45//21
f 46//22 47//23 48//24
f 49//25 50//26 51//27
f 52//28 53//29 54//30
f 55//31 56//32 57//33
f 58//34 59//35 60//36
o 
v 14 -17 85
v 17 -17 85
v 17 -15 85
v 17 -17 85
v 26 -15 85
v 17 -15 85
v 26 -15 70
v 26 -15 85
v 14 -15 70
v 26 -15 70
v 14 -15 82
v 14 -15 70
v 14 -17 82
v 14 -15 82
v 14 -17 85
v 14 -17 82
v 26 -25 85
v 26 -25 70
v 14 -25 85
v 26 -25 85
v 14 -25 70
v 14 -25 85
v 26 -25 70
v 14 -25 70
v 26 -15 70
v 26 -25 70
v 14 -25 70
v 14 -15 70
v 26 -25 85
v 26 -15 85
v 14 -17 85
v 14 -25 85
l 61 62
l 63 64
l 65 66
l 67 68
l 69 70
l 71 72
l 73 74
l 75 76
l 77 78
l 79 80
l 81 82
l 83 84
l 85 86
l 87 88
l 89 90
l 91 92
o 
v 26 -15 52
v 26 -15 67
v 17 -15 67
v 17 -15 67
v 17 -15 64
v 26 -15 52
v 26 -15 52
v 17 -15 64
v 14 -15 64
v 14 -15 64
v 14 -15 52
v 26 -15 52
v 17 -15 67
v 17 -17 67
v 17 -17 64
v 17 -17 64
v 17 -15 64
v 17 -15 67
v 17 -15 64
v 17 -17 64
v 14 -17 64
v 14 -17 64
v 14 -15 64
v 17 -15 64
v 17 -17 64
v 17 -17 67
v 14 -17 67
v 14 -17 67
v 14 -17 64
v 17 -17 64
vn 0 -1 0
vn 0 -1 0
vn 0 -1 0
vn 0 -1 0
vn 0 -1 0
vn 0 -1 0
vn 0 -1 0
vn 0 -1 0
vn 0 -1 0
vn 0 -1 0
vn 0 -1 0
vn 0 -1 0
vn 1 0 0
vn 1 0 0
vn 1 0 0
vn 1 0 0
vn 1 0 0
vn 1 0 0
vn 0 0 -1
vn 0 0 -1
vn 0 0 -1
vn 0 0 -1
vn 0 0 -1
vn 0 0 -1
vn 0 -1 0
vn 0 -1 0
vn 0 -1 0
vn 0 -1 0
vn 0 -1 0
vn 0 -1 0
f 93//37 94//38 95//39
f 96//40 97//41 98//42
f 99//43 100//44 101//45
f 102//46 103//47 104//48
f 105//49 106//50 107//51
f 108//52 109//53 110//54
f 111//55 112//56 113//57
f 114//58 115//59 116//60
f 117//61 118//62 119//63
f 120//64 121//65 122//66
o 
v 14 -17 67
v 17 -17 67
v 17 -15 67
v 17 -17 67
v 26 -15 67
v 17 -15 67
v 26 -15 52
v 26 -15 67
v 14 -15 52
v 26 -15 52
v 14 -15 64
v 14 -15 52
v 14 -17 64
v 14 -15 64
v 14 -17 67
v 14 -17 64
v 26 -25 67
v 26 -25 52
v 14 -25 67
v 26 -25 67
v 14 -25 52
v 14 -25 67
v 26 -25 52
v 14 -25 52
v 26 -15 52
v 26 -25 52
v 14 -25 52
v 14 -15 52
v 26 -25 67
v 26 -15 67
v 14 -17 67
v 14 -25 67
l 123 124
l 125 126
l 127 128
l 129 130
l 131 132
l 133 134
l 135 136
l 137 138
l 139 140
l 141 142
l 143 144
l 145 146
l 147 148
l 149 150
l 151 152
l 153 154
o 
v 23 -15 43
v 27 -15 37
v 27 -15 43
v 13 -15 43
v 13 -15 37
v 17 -15 43
v 17 -15 43
v 13 -15 37
v 27 -15 37
v 27 -15 37
v 23 -15 43
v 17 -15 43
v 17 -15 49
v 17 -15 43
v 23 -15 43
v 23 -15 43
v 23 -15 49
v 17 -15 49
vn 0 -1 0
vn 0 -1 0
vn 0 -1 0
vn 0 -1 0
vn 0 -1 0
vn 0 -1 0
vn 0 -1 0
vn 0 -1 0
vn 0 -1 0
vn 0 -1 0
vn 0 -1 0
vn 0 -1 0
vn 0 -1 0
vn 0 -1 0
vn 0 -1 0
vn 0 -1 0
vn 0 -1 0
vn 0 -1 0
f 155//67 156//68 157//69
f 158//70 159//71 160//72
f 161//73 162//74 163//75
f 164//76 165//77 166//78
f 167//79 168//80 169//81
f 170//82 171//83 172//84
o 
v 13 -15 37
v 27 -15 37
v 13 -15 43
v 13 -15 37
v 17 -15 43
v 13 -15 43
v 17 -15 49
v 17 -15 43
v 23 -15 49
v 17 -15 49
v 23 -15 43
v 23 -15 49
v 27 -15 43
v 23 -15 43
v 27 -15 37
v 27 -15 43
v 13 -25 37
v 27 -25 37
v 13 -25 43
v 13 -25 37
v 17 -25 43
v 13 -25 43
v 17 -25 49
v 17 -25 43
v 23 -25 49
v 17 -25 49
v 23 -25 43
v 23 -25 49
v 27 -25 43
v 23 -25 43
v 27 -25 37
v 27 -25 43
v 13 -25 37
v 13 -15 37
v 13 -25 43
v 13 -15 43
v 17 -25 43
v 17 -15 43
v 27 -25 37
v 27 -15 37
v 27 -25 43
v 27 -15 43
v 23 -25 43
v 23 -15 43
v 17 -25 49
v 17 -15 49
v 23 -25 49
v 23 -15 49
l 173 174
l 175 176
l 177 178
l 179 180
l 181 182
l 183 184
l 185 186
l 187 188
l 189 190
l 191 192
l 193 194
l 195 196
l 197 198
l 199 200
l 201 202
l 203 204
l 205 206
l 207 208
l 209 210
l 211 212
l 213 214
l 215 216
l 217 218
l 219 220
o 
v 36 -15 43
v 42 -15 47
v 36 -15 47
v 36 -15 33
v 42 -15 33
v 36 -15 37
v 36 -15 37
v 42 -15 33
v 42 -15 47
v 42 -15 47
v 36 -15 43
v 36 -15 37
v 30 -15 37
v 36 -15 37
v 36 -15 43
v 36 -15 43
v 30 -15 43
v 30 -15 37
vn 0 -1 0
vn 0 -1 0
vn 0 -1 0
vn 0 -1 0
vn 0 -1 0
vn 0 -1 0
vn 0 -1 0
vn 0 -1 0
vn 0 -1 0
vn 0 -1 0
vn 0 -1 0
vn 0 -1 0
vn 0 -1 0
vn 0 -1 0
vn 0 -1 0
vn 0 -1 0
vn 0 -1 0
vn 0 -1 0
f 221//85 222//86 223//87
f 224//88 225//89 226//90
f 227//91 228//92 229//93
f 230//94 231//95 232//96
f 233//97 234//98 235//99
f 236//100 237//101 238//102
o 
v 42 -15 33
v 42 -15 47
v 36 -15 33
v 42 -15 33
v 36 -15 37
v 36 -15 33
v 30 -15 37
v 36 -15 37
v 30 -15 43
v 30 -15 37
v 36 -15 43
v 30 -15 43
v 36 -15 47
v 36 -15 43
v 42 -15 47
v 36 -15 47
v 42 -25 33
v 42 -25 47
v 36 -25 33
v 42 -25 33
v 36 -25 37
v 36 -25 33
v 30 -25 37
v 36 -25 37
v 30 -25 43
v 30 -25 37
v 36 -25 43
v 30 -25 43
v 36 -25 47
v 36 -25 43
v 42 -25 47
v 36 -25 47
v 42 -25 33
v 42 -15 33
v 36 -25 33
v 36 -15 33
v 36 -25 37
v 36 -15 37
v 42 -25 47
v 42 -15 47
v 36 -25 47
v 36 -15 47
v 36 -25 43
v 36 -15 43
v 30 -25 37
v 30 -15 37
v 30 -25 43
v 30 -15 43
l 239 240
l 241 242
l 243 244
l 245 246
l 247 248
l 249 250
l 251 252
l 253 254
l 255 256
l 257 258
l 259 260
l 261 262
l 263 264
l 265 266
l 267 268
l 269 270
l 271 272
l 273 274
l 275 276
l 277 278
l 279 280
l 281 282
l 283 284
l 285 286
o 
v 45 -15 15
v 45 -15 30
v 36 -15 30
v 36 -15 30
v 36 -15 27
v 45 -15 15
v 45 -15 15
v 36 -15 27
v 33 -15 27
v 33 -15 27
v 33 -15 15
v 45 -15 15
v 36 -15 30
v 36 -17 30
v 36 -17 27
v 36 -17 27
v 36 -15 27
v 36 -15 30
v 36 -15 27
v 36 -17 27
v 33 -17 27
v 33 -17 27
v 33 -15 27
v 36 -15 27
v 36 -17 27
v 36 -17 30
v 33 -17 30
v 33 -17 30
v 33 -17 27
v 36 -17 27
vn 0 -1 0
vn 0 -1 0
vn 0 -1 0
vn 0 -1 0
vn 0 -1 0
vn 0 -1 0
vn 0 -1 0
vn 0 -1 0
vn 0 -1 0
vn 0 -1 0
vn 0 -1 0
vn 0 -1 0
vn 1 0 0
vn 1 0 0
vn 1 0 0
vn 1 0 0
vn 1 0 0
vn 1 0 0
vn 0 0 -1
vn 0 0 -1
vn 0 0 -1
vn 0 0 -1
vn 0 0 -1
vn 0 0 -1
vn 0 -1 0
vn 0 -1 0
vn 0 -1 0
vn 0 -1 0
vn 0 -1 0
vn 0 -1 0
f 287//103 288//104 289//105
f 290//106 291//107 292//108
f 293//109 294//110 295//111
f 296//112 297//113 298//114
f 299//115 300//116 301//117
f 302//118 303//119 304//120
f 305//121 306//122 307//123
f 308//124 309//125 310//126
f 311//127 312//128 313//129
f 314//130 315//131 316//132
o 
v 33 -17 30
v 36 -17 30
v 36 -15 30
v 36 -17 30
v 45 -15 30
v 36 -15 30
v 45 -15 15
v 45 -15 30
v 33 -15 15
v 45 -15 15
v 33 -15 27
v 33 -15 15
v 33 -17 27
v 33 -15 27
v 33 -17 30
v 33 -17 27
v 45 -25 30
v 45 -25 15
v 33 -25 30
v 45 -25 30
v 33 -25 15
v 33 -25 30
v 45 -25 15
v 33 -25 15
v 45 -15 15
v 45 -25 15
v 33 -25 15
v 33 -15 15
v 45 -25 30
v 45 -15 30
v 33 -17 30
v 33 -25 30
l 317 318
l 319 320
l 321 322
l 323 324
l 325 326
l 327 328
l 329 330
l 331 332
l 333 334
l 335 336
l 337 338
l 339 340
l 341 342
l 343 344
l 345 346
l 347 348
o 
v 30 -15 2
v 42 -15 2
v 36 -15 8
v 36 -15 8
v 30 -15 8
v 30 -15 2
v 36 -15 12
v 36 -15 8
v 42 -15 2
v 42 -15 2
v 42 -15 12
v 36 -15 12
vn 0 -1 0
vn 0 -1 0
vn 0 -1 0
vn 0 -1 0
vn 0 -1 0
vn 0 -1 0
vn 0 -1 0
vn 0 -1 0
vn 0 -1 0
vn 0 -1 0
vn 0 -1 0
vn 0 -1 0
f 349//133 350//134 351//135
f 352//136 353//137 354//138
f 355//139 356//140 357//141
f 358//142 359//143 360//144
o 
v 30 -15 2
v 30 -15 8
v 36 -15 12
v 42 -15 12
v 42 -15 2
v 30 -15 2
v 42 -15 2
v 42 -15 12
v 36 -15 8
v 36 -15 12
v 30 -15 8
v 36 -15 8
v 39 -26 5
v 42 -25 2
v 39 -26 5
v 30 -26 5
v 39 -26 5
v 39 -26 12
v 42 -25 2
v 30 -25 2
v 42 -25 12
v 42 -25 2
v 36 -25 8
v 36 -25 12
v 30 -25 8
v 36 -25 8
v 30 -26 5
v 30 -25 8
v 30 -26 5
v 30 -25 2
v 39 -26 12
v 36 -25 12
v 39 -26 12
v 42 -25 12
v 42 -25 12
v 42 -15 12
v 36 -15 12
v 36 -25 12
v 42 -15 2
v 42 -25 2
v 36 -25 8
v 36 -15 8
v 30 -15 8
v 30 -25 8
v 30 -15 2
v 30 -25 2
l 361 362
l 363 364
l 365 366
l 367 368
l 369 370
l 371 372
l 373 374
l 375 376
l 377 378
l 379 380
l 381 382
l 383 384
l 385 386
l 387 388
l 389 390
l 391 392
l 393 394
l 395 396
l 397 398
l 399 400
l 401 402
l 403 404
l 405 406
o 
v 27 -15 10
v 20 -15 10
v 20 -15 7
v 20 -15 0
v 27 -15 0
v 20 -15 3
v 20 -15 3
v 27 -15 0
v 27 -15 10
v 27 -15 10
v 20 -15 7
v 20 -15 3
v 20 -15 7
v 17 -15 7
v 17 -15 3
v 17 -15 3
v 20 -15 3
v 20 -15 7
v 20 -15 7
v 20 -15 10
v 20 -17 10
v 20 -17 10
v 20 -17 7
v 20 -15 7
v 20 -17 7
v 20 -17 10
v 17 -17 10
v 17 -17 10
v 17 -17 7
v 20 -17 7
v 20 -15 7
v 20 -17 7
v 17 -17 7
v 17 -17 7
v 17 -15 7
v 20 -15 7
v 20 -15 3
v 17 -15 3
v 17 -17 3
v 17 -17 3
v 20 -17 3
v 20 -15 3
v 20 -15 3
v 20 -17 3
v 20 -17 0
v 20 -17 0
v 20 -15 0
v 20 -15 3
v 20 -17 3
v 17 -17 3
v 17 -17 0
v 17 -17 0
v 20 -17 0
v 20 -17 3
vn 0 -1 0
vn 0 -1 0
vn 0 -1 0
vn 0 -1 0
vn 0 -1 0
vn 0 -1 0
vn 0 -1 0
vn 0 -1 0
vn 0 -1 0
vn 0 -1 0
vn 0 -1 0
vn 0 -1 0
vn 0 -1 0
vn 0 -1 0
vn 0 -1 0
vn 0 -1 0
vn 0 -1 0
vn 0 -1 0
vn 1 0 0
vn 1 0 0
vn 1 0 0
vn 1 0 0
vn 1 0 0
vn 1 0 0
vn 0 -1 0
vn 0 -1 0
vn 0 -1 0
vn 0 -1 0
vn 0 -1 0
vn 0 -1 0
vn 0 0 -1
vn 0 0 -1
vn 0 0 -1
vn 0 0 -1
vn 0 0 -1
vn 0 0 -1
vn 0 0 1
vn 0 0 1
vn 0 0 1
vn 0 0 1
vn 0 0 1
vn 0 0 1
vn 1 0 0
vn 1 0 0
vn 1 0 0
vn 1 0 0
vn 1 0 0
vn 1 0 0
vn 0 -1 0
vn 0 -1 0
vn 0 -1 0
vn 0 -1 0
vn 0 -1 0
vn 0 -1 0
f 407//145 408//146 409//147
f 410//148 411//149 412//150
f 413//151 414//152 415//153
f 416//154 417//155 418//156
f 419//157 420//158 421//159
f 422//160 423//161 424//162
f 425//163 426//164 427//165
f 428//166 429//167 430//168
f 431//169 432//170 433//171
f 434//172 435//173 436//174
f 437//175 438//176 439//177
f 440//178 441//179 442//180
f 443//181 444//182 445//183
f 446//184 447//185 448//186
f 449//187 450//188 451//189
f 452//190 453//191 454//192
f 455//193 456//194 457//195
f 458//196 459//197 460//198
o 
v 20 -15 10
v 27 -15 10
v 20 -17 10
v 20 -15 10
v 17 -17 10
v 20 -17 10
v 17 -17 7
v 17 -17 10
v 17 -15 7
v 17 -17 7
v 17 -15 3
v 17 -15 7
v 17 -17 3
v 17 -15 3
v 17 -17 0
v 17 -17 3
v 20 -17 0
v 17 -17 0
v 20 -15 0
v 20 -17 0
v 27 -15 0
v 20 -15 0
v 27 -15 10
v 27 -15 0
v 27 -23 0
v 17 -23 0
v 27 -23 10
v 27 -23 0
v 17 -23 10
v 27 -23 10
v 17 -23 0
v 17 -23 10
v 27 -23 0
v 27 -15 0
v 27 -23 10
v 27 -15 10
v 17 -17 10
v 17 -23 10
v 17 -17 0
v 17 -23 0
l 461 462
l 463 464
l 465 466
l 467 468
l 469 470
l 471 472
l 473 474
l 475 476
l 477 478
l 479 480
l 481 482
l 483 484
l 485 486
l 487 488
l 489 490
l 491 492
l 493 494
l 495 496
l 497 498
l 499 500
o 
v 10 -15 45
v 3 -15 45
v 3 -15 42
v 3 -15 35
v 10 -15 35
v 3 -15 38
v 3 -15 38
v 10 -15 35
v 10 -15 45
v 10 -15 45
v 3 -15 42
v 3 -15 38
v 3 -15 42
v 0 -15 42
v 0 -15 38
v 0 -15 38
v 3 -15 38
v 3 -15 42
v 3 -15 42
v 3 -15 45
v 3 -17 45
v 3 -17 45
v 3 -17 42
v 3 -15 42
v 3 -17 42
v 3 -17 45
v 0 -17 45
v 0 -17 45
v 0 -17 42
v 3 -17 42
v 3 -15 42
v 3 -17 42
v 0 -17 42
v 0 -17 42
v 0 -15 42
v 3 -15 42
v 3 -15 38
v 0 -15 38
v 0 -17 38
v 0 -17 38
v 3 -17 38
v 3 -15 38
v 3 -15 38
v 3 -17 38
v 3 -17 35
v 3 -17 35
v 3 -15 35
v 3 -15 38
v 3 -17 38
v 0 -17 38
v 0 -17 35
v 0 -17 35
v 3 -17 35
v 3 -17 38
vn 0 -1 0
vn 0 -1 0
vn 0 -1 0
vn 0 -1 0
vn 0 -1 0
vn 0 -1 0
vn 0 -1 0
vn 0 -1 0
vn 0 -1 0
vn 0 -1 0
vn 0 -1 0
vn 0 -1 0
vn 0 -1 0
vn 0 -1 0
vn 0 -1 0
vn 0 -1 0
vn 0 -1 0
vn 0 -1 0
vn 1 0 0
vn 1 0 0
vn 1 0 0
vn 1 0 0
vn 1 0 0
vn 1 0 0
vn 0 -1 0
vn 0 -1 0
vn 0 -1 0
vn 0 -1 0
vn 0 -1 0
vn 0 -1 0
vn 0 0 -1
vn 0 0 -1
vn 0 0 -1
vn 0 0 -1
vn 0 0 -1
vn 0 0 -1
vn 0 0 1
vn 0 0 1
vn 0 0 1
vn 0 0 1
vn 0 0 1
vn 0 0 1
vn 1 0 0
vn 1 0 0
vn 1 0 0
vn 1 0 0
vn 1 0 0
vn 1 0 0
vn 0 -1 0
vn 0 -1 0
vn 0 -1 0
vn 0 -1 0
vn 0 -1 0
vn 0 -1 0
f 501//199 502//200 503//201
f 504//202 505//203 506//204
f 507//205 508//206 509//207
f 510//208 511//209 512//210
f 513//211 514//212 515//213
f 516//214 517//215 518//216
f 519//217 520//218 521//219
f 522//220 523//221 524//222
f 525//223 526//224 527//225
f 528//226 529//227 530//228
f 531//229 532//230 533//231
f 534//232 535//233 536//234
f 537//235 538//236 539//237
f 540//238 541//239 542//240
f 543//241 544//242 545//243
f 546//244 547//245 548//246
f 549//247 550//248 551//249
f 552//250 553//251 554//252
o 
v 3 -15 45
v 10 -15 45
v 3 -17 45
v 3 -15 45
v 0 -17 45
v 3 -17 45
v 0 -17 42
v 0 -17 45
v 0 -15 42
v 0 -17 42
v 0 -15 38
v 0 -15 42
v 0 -17 38
v 0 -15 38
v 0 -17 35
v 0 -17 38
v 3 -17 35
v 0 -17 35
v 3 -15 35
v 3 -17 35
v 10 -15 35
v 3 -15 35
v 10 -15 45
v 10 -15 35
v 10 -23 35
v 0 -23 35
v 10 -23 45
v 10 -23 35
v 0 -23 45
v 10 -23 45
v 0 -23 35
v 0 -23 45
v 10 -23 35
v 10 -15 35
v 10 -23 45
v 10 -15 45
v 0 -17 45
v 0 -23 45
v 0 -17 35
v 0 -23 35
l 555 556
l 557 558
l 559 560
l 561 562
l 563 564
l 565 566
l 567 568
l 569 570
l 571 572
l 573 574
l 575 576
l 577 578
l 579 580
l 581 582
l 583 584
l 585 586
l 587 588
l 589 590
l 591 592
l 593 594
o 
v 32 -9 64
v 38 -9 64
v 38 0 75
v 38 0 75
v 32 0 75
v 32 -9 64
v 32 -9 64
v 32 -9 62
v 38 -9 62
v 38 -9 62
v 38 -9 64
v 32 -9 64
v 38 0 75
v 38 0 77
v 32 0 77
v 32 0 77
v 32 0 75
v 38 0 75
vn 0 -0.7739573121070862 0.6332377791404724
vn 0 -0.7739573121070862 0.6332377791404724
vn 0 -0.7739573121070862 0.6332377791404724
vn 0 -0.7739573121070862 0.6332377791404724
vn 0 -0.7739573121070862 0.6332377791404724
vn 0 -0.7739573121070862 0.6332377791404724
vn 0 -1 0
vn 0 -1 0
vn 0 -1 0
vn 0 -1 0
vn 0 -1 0
vn 0 -1 0
vn 0 -1 0
vn 0 -1 0
vn 0 -1 0
vn 0 -1 0
vn 0 -1 0
vn 0 -1 0
f 595//253 596//254 597//255
f 598//256 599//257 600//258
f 601//259 602//260 603//261
f 604//262 605//263 606//264
f 607//265 608//266 609//267
f 610//268 611//269 612//270
o 
v 32 -9 62
v 38 -9 62
v 32 -9 64
v 32 -9 62
v 32 0 75
v 32 -9 64
v 32 0 77
v 32 0 75
v 38 0 77
v 32 0 77
v 38 0 75
v 38 0 77
v 38 -9 64
v 38 0 75
v 38 -9 62
v 38 -9 64
v 38 -8 75
v 32 -8 75
v 38 -8 75
v 38 -8 77
v 38 -16 64
v 38 -8 75
v 32 -8 75
v 32 -16 64
v 32 -8 75
v 32 -8 77
v 32 -8 77
v 38 -8 77
v 32 -14 62
v 38 -14 62
v 32 -16 64
v 38 -16 64
v 32 -14 62
v 32 -16 64
v 38 -16 64
v 38 -14 62
v 38 -8 77
v 38 0 77
v 32 -8 77
v 32 0 77
v 32 -14 62
v 32 -9 62
v 38 -14 62
v 38 -9 62
l 613 614
l 615 616
l 617 618
l 619 620
l 621 622
l 623 624
l 625 626
l 627 628
l 629 630
l 631 632
l 633 634
l 635 636
l 637 638
l 639 640
l 641 642
l 643 644
l 645 646
l 647 648
l 649 650
l 651 652
l 653 654
l 655 656
o 
v 41 0 80
v 41 0 95
v 32 0 95
v 32 0 95
v 32 0 92
v 41 0 80
v 41 0 80
v 32 0 92
v 29 0 92
v 29 0 92
v 29 0 80
v 41 0 80
v 32 0 95
v 32 -2 95
v 32 -2 92
v 32 -2 92
v 32 0 92
v 32 0 95
v 32 0 92
v 32 -2 92
v 29 -2 92
v 29 -2 92
v 29 0 92
v 32 0 92
v 32 -2 92
v 32 -2 95
v 29 -2 95
v 29 -2 95
v 29 -2 92
v 32 -2 92
vn 0 -1 0
vn 0 -1 0
vn 0 -1 0
vn 0 -1 0
vn 0 -1 0
vn 0 -1 0
vn 0 -1 0
vn 0 -1 0
vn 0 -1 0
vn 0 -1 0
vn 0 -1 0
vn 0 -1 0
vn 1 0 0
vn 1 0 0
vn 1 0 0
vn 1 0 0
vn 1 0 0
vn 1 0 0
vn 0 0 -1
vn 0 0 -1
vn 0 0 -1
vn 0 0 -1
vn 0 0 -1
vn 0 0 -1
vn 0 -1 0
vn 0 -1 0
vn 0 -1 0
vn 0 -1 0
vn 0 -1 0
vn 0 -1 0
f 657//271 658//272 659//273
f 660//274 661//275 662//276
f 663//277 664//278 665//279
f 666//280 667//281 668//282
f 669//283 670//284 671//285
f 672//286 673//287 674//288
f 675//289 676//290 677//291
f 678//292 679//293 680//294
f 681//295 682//296 683//297
f 684//298 685//299 686//300
o 
v 29 -2 95
v 32 -2 95
v 32 0 95
v 32 -2 95
v 41 0 95
v 32 0 95
v 41 0 80
v 41 0 95
v 29 0 80
v 41 0 80
v 29 0 92
v 29 0 80
v 29 -2 92
v 29 0 92
v 29 -2 95
v 29 -2 92
v 41 -10 95
v 41 -10 80
v 29 -10 95
v 41 -10 95
v 29 -10 80
v 29 -10 95
v 41 -10 80
v 29 -10 80
v 41 0 80
v 41 -10 80
v 29 -10 80
v 29 0 80
v 41 -10 95
v 41 0 95
v 29 -2 95
v 29 -10 95
l 687 688
l 689 690
l 691 692
l 693 694
l 695 696
l 697 698
l 699 700
l 701 702
l 703 704
l 705 706
l 707 708
l 709 710
l 711 712
l 713 714
l 715 716
l 717 718
o 
v 38 0 98
v 38 0 110
v 32 0 104
v 32 0 104
v 32 0 98
v 38 0 98
v 28 0 104
v 32 0 104
v 38 0 110
v 38 0 110
v 28 0 110
v 28 0 104
vn 0 -1 0
vn 0 -1 0
vn 0 -1 0
vn 0 -1 0
vn 0 -1 0
vn 0 -1 0
vn 0 -1 0
vn 0 -1 0
vn 0 -1 0
vn 0 -1 0
vn 0 -1 0
vn 0 -1 0
f 719//301 720//302 721//303
f 722//304 723//305 724//306
f 725//307 726//308 727//309
f 728//310 729//311 730//312
o 
v 38 0 98
v 32 0 98
v 28 0 104
v 28 0 110
v 38 0 110
v 38 0 98
v 38 0 110
v 28 0 110
v 32 0 104
v 28 0 104
v 32 0 98
v 32 0 104
v 35 -11 107
v 38 -10 110
v 35 -11 107
v 35 -11 98
v 35 -11 107
v 28 -11 107
v 38 -10 110
v 38 -10 98
v 28 -10 110
v 38 -10 110
v 32 -10 104
v 28 -10 104
v 32 -10 98
v 32 -10 104
v 35 -11 98
v 32 -10 98
v 35 -11 98
v 38 -10 98
v 28 -11 107
v 28 -10 104
v 28 -11 107
v 28 -10 110
v 28 -10 110
v 28 0 110
v 28 0 104
v 28 -10 104
v 38 0 110
v 38 -10 110
v 32 -10 104
v 32 0 104
v 32 0 98
v 32 -10 98
v 38 0 98
v 38 -10 98
l 731 732
l 733 734
l 735 736
l 737 738
l 739 740
l 741 742
l 743 744
l 745 746
l 747 748
l 749 750
l 751 752
l 753 754
l 755 756
l 757 758
l 759 760
l 761 762
l 763 764
l 765 766
l 767 768
l 769 770
l 771 772
l 773 774
l 775 776
o 
v 25 0 112
v 18 0 112
v 18 0 109
v 18 0 102
v 25 0 102
v 18 0 105
v 18 0 105
v 25 0 102
v 25 0 112
v 25 0 112
v 18 0 109
v 18 0 105
v 18 0 109
v 15 0 109
v 15 0 105
v 15 0 105
v 18 0 105
v 18 0 109
v 18 0 109
v 18 0 112
v 18 -2 112
v 18 -2 112
v 18 -2 109
v 18 0 109
v 18 -2 109
v 18 -2 112
v 15 -2 112
v 15 -2 112
v 15 -2 109
v 18 -2 109
v 18 0 109
v 18 -2 109
v 15 -2 109
v 15 -2 109
v 15 0 109
v 18 0 109
v 18 0 105
v 15 0 105
v 15 -2 105
v 15 -2 105
v 18 -2 105
v 18 0 105
v 18 0 105
v 18 -2 105
v 18 -2 102
v 18 -2 102
v 18 0 102
v 18 0 105
v 18 -2 105
v 15 -2 105
v 15 -2 102
v 15 -2 102
v 18 -2 102
v 18 -2 105
vn 0 -1 0
vn 0 -1 0
vn 0 -1 0
vn 0 -1 0
vn 0 -1 0
vn 0 -1 0
vn 0 -1 0
vn 0 -1 0
vn 0 -1 0
vn 0 -1 0
vn 0 -1 0
vn 0 -1 0
vn 0 -1 0
vn 0 -1 0
vn 0 -1 0
vn 0 -1 0
vn 0 -1 0
vn 0 -1 0
vn 1 0 0
vn 1 0 0
vn 1 0 0
vn 1 0 0
vn 1 0 0
vn 1 0 0
vn 0 -1 0
vn 0 -1 0
vn 0 -1 0
vn 0 -1 0
vn 0 -1 0
vn 0 -1 0
vn 0 0 -1
vn 0 0 -1
vn 0 0 -1
vn 0 0 -1
vn 0 0 -1
vn 0 0 -1
vn 0 0 1
vn 0 0 1
vn 0 0 1
vn 0 0 1
vn 0 0 1
vn 0 0 1
vn 1 0 0
vn 1 0 0
vn 1 0 0
vn 1 0 0
vn 1 0 0
vn 1 0 0
vn 0 -1 0
vn 0 -1 0
vn 0 -1 0
vn 0 -1 0
vn 0 -1 0
vn 0 -1 0
f 777//313 778//314 779//315
f 780//316 781//317 782//318
f 783//319 784//320 785//321
f 786//322 787//323 788//324
f 789//325 790//326 791//327
f 792//328 793//329 794//330
f 795//331 796//332 797//333
f 798//334 799//335 800//336
f 801//337 802//338 803//339
f 804//340 805//341 806//342
f 807//343 808//344 809//345
f 810//346 811//347 812//348
f 813//349 814//350 815//351
f 816//352 817//353 818//354
f 819//355 820//356 821//357
f 822//358 823//359 824//360
f 825//361 826//362 827//363
f 828//364 829//365 830//366
o 
v 18 0 112
v 25 0 112
v 18 -2 112
v 18 0 112
v 15 -2 112
v 18 -2 112
v 15 -2 109
v 15 -2 112
v 15 0 109
v 15 -2 109
v 15 0 105
v 15 0 109
v 15 -2 105
v 15 0 105
v 15 -2 102
v 15 -2 105
v 18 -2 102
v 15 -2 102
v 18 0 102
v 18 -2 102
v 25 0 102
v 18 0 102
v 25 0 112
v 25 0 102
v 25 -8 102
v 15 -8 102
v 25 -8 112
v 25 -8 102
v 15 -8 112
v 25 -8 112
v 15 -8 102
v 15 -8 112
v 25 -8 102
v 25 0 102
v 25 -8 112
v 25 0 112
v 15 -2 112
v 15 -8 112
v 15 -2 102
v 15 -8 102
l 831 832
l 833 834
l 835 836
l 837 838
l 839 840
l 841 842
l 843 844
l 845 846
l 847 848
l 849 850
l 851 852
l 853 854
l 855 856
l 857 858
l 859 860
l 861 862
l 863 864
l 865 866
l 867 868
l 869 870