o 
v 16 0 8
v 0 0 8
v 0 0 0
v 0 0 0
v 16 0 0
v 16 0 8
vn 0 -1 0
vn 0 -1 0
vn 0 -1 0
vn 0 -1 0
vn 0 -1 0
vn 0 -1 0
f 1//1 2//2 3//3
f 4//4 5//5 6//6
o 
v 16 0 8
v 0 0 8
v 16 0 0
v 16 0 8
v 0 0 0
v 16 0 0
v 0 0 8
v 0 0 0
v 0 -15 6
v 16 -15 6
v 0 -15 2
v 16 -15 2
v 16 -10 6
v 0 -10 6
v 0 -10 2
v 16 -10 2
v 16 -8 0
v 0 -8 0
v 0 -8 0
v 0 0 0
v 0 -10 2
v 0 -8 0
v 0 -15 2
v 0 -10 2
v 0 -15 6
v 0 -15 2
v 0 -10 6
v 0 -15 6
v 0 -8 8
v 0 -10 6
v 0 -8 8
v 0 0 8
v 16 -8 8
v 0 -8 8
v 16 -8 0
v 16 0 0
v 16 -10 2
v 16 -8 0
v 16 -15 2
v 16 -10 2
v 16 -15 6
v 16 -15 2
v 16 -10 6
v 16 -15 6
v 16 -8 8
v 16 -10 6
v 16 -8 8
v 16 0 8
l 7 8
l 9 10
l 11 12
l 13 14
l 15 16
l 17 18
l 19 20
l 21 22
l 23 24
l 25 26
l 27 28
l 29 30
l 31 32
l 33 34
l 35 36
l 37 38
l 39 40
l 41 42
l 43 44
l 45 46
l 47 48
l 49 50
l 51 52
l 53 54
o 
v 35 0 8
v 19 0 8
v 19 0 0
v 19 0 0
v 35 0 0
v 35 0 8
vn 0 -1 0
vn 0 -1 0
vn 0 -1 0
vn 0 -1 0
vn 0 -1 0
vn 0 -1 0
f 55//7 56//8 57//9
f 58//10 59//11 60//12
o 
v 35 0 8
v 19 0 8
v 35 0 0
v 35 0 8
v 19 0 0
v 35 0 0
v 19 0 8
v 19 0 0
v 19 -15 6
v 35 -15 6
v 19 -15 2
v 35 -15 2
v 35 -10 6
v 19 -10 6
v 19 -10 2
v 35 -10 2
v 35 -8 0
v 19 -8 0
v 19 -8 0
v 19 0 0
v 19 -10 2
v 19 -8 0
v 19 -15 2
v 19 -10 2
v 19 -15 6
v 19 -15 2
v 19 -10 6
v 19 -15 6
v 19 -8 8
v 19 -10 6
v 19 -8 8
v 19 0 8
v 35 -8 8
v 19 -8 8
v 35 -8 0
v 35 0 0
v 35 -10 2
v 35 -8 0
v 35 -15 2
v 35 -10 2
v 35 -15 6
v 35 -15 2
v 35 -10 6
v 35 -15 6
v 35 -8 8
v 35 -10 6
v 35 -8 8
v 35 0 8
l 61 62
l 63 64
l 65 66
l 67 68
l 69 70
l 71 72
l 73 74
l 75 76
l 77 78
l 79 80
l 81 82
l 83 84
l 85 86
l 87 88
l 89 90
l 91 92
l 93 94
l 95 96
l 97 98
l 99 100
l 101 102
l 103 104
l 105 106
l 107 108
o 
v 54 0 8
v 38 0 8
v 38 0 0
v 38 0 0
v 54 0 0
v 54 0 8
vn 0 -1 0
vn 0 -1 0
vn 0 -1 0
vn 0 -1 0
vn 0 -1 0
vn 0 -1 0
f 109//13 110//14 111//15
f 112//16 113//17 114//18
o 
v 54 0 8
v 38 0 8
v 54 0 0
v 54 0 8
v 38 0 0
v 54 0 0
v 38 0 8
v 38 0 0
v 38 -15 6
v 54 -15 6
v 38 -15 2
v 54 -15 2
v 54 -10 6
v 38 -10 6
v 38 -10 2
v 54 -10 2
v 54 -8 0
v 38 -8 0
v 38 -8 0
v 38 0 0
v 38 -10 2
v 38 -8 0
v 38 -15 2
v 38 -10 2
v 38 -15 6
v 38 -15 2
v 38 -10 6
v 38 -15 6
v 38 -8 8
v 38 -10 6
v 38 -8 8
v 38 0 8
v 54 -8 8
v 38 -8 8
v 54 -8 0
v 54 0 0
v 54 -10 2
v 54 -8 0
v 54 -15 2
v 54 -10 2
v 54 -15 6
v 54 -15 2
v 54 -10 6
v 54 -15 6
v 54 -8 8
v 54 -10 6
v 54 -8 8
v 54 0 8
l 115 116
l 117 118
l 119 120
l 121 122
l 123 124
l 125 126
l 127 128
l 129 130
l 131 132
l 133 134
l 135 136
l 137 138
l 139 140
l 141 142
l 143 144
l 145 146
l 147 148
l 149 150
l 151 152
l 153 154
l 155 156
l 157 158
l 159 160
l 161 162
o 
v 73 0 8
v 57 0 8
v 57 0 0
v 57 0 0
v 73 0 0
v 73 0 8
vn 0 -1 0
vn 0 -1 0
vn 0 -1 0
vn 0 -1 0
vn 0 -1 0
vn 0 -1 0
f 163//19 164//20 165//21
f 166//22 167//23 168//24
o 
v 73 0 8
v 57 0 8
v 73 0 0
v 73 0 8
v 57 0 0
v 73 0 0
v 57 0 8
v 57 0 0
v 57 -15 6
v 73 -15 6
v 57 -15 2
v 73 -15 2
v 73 -10 6
v 57 -10 6
v 57 -10 2
v 73 -10 2
v 73 -8 0
v 57 -8 0
v 57 -8 0
v 57 0 0
v 57 -10 2
v 57 -8 0
v 57 -15 2
v 57 -10 2
v 57 -15 6
v 57 -15 2
v 57 -10 6
v 57 -15 6
v 57 -8 8
v 57 -10 6
v 57 -8 8
v 57 0 8
v 73 -8 8
v 57 -8 8
v 73 -8 0
v 73 0 0
v 73 -10 2
v 73 -8 0
v 73 -15 2
v 73 -10 2
v 73 -15 6
v 73 -15 2
v 73 -10 6
v 73 -15 6
v 73 -8 8
v 73 -10 6
v 73 -8 8
v 73 0 8
l 169 170
l 171 172
l 173 174
l 175 176
l 177 178
l 179 180
l 181 182
l 183 184
l 185 186
l 187 188
l 189 190
l 191 192
l 193 194
l 195 196
l 197 198
l 199 200
l 201 202
l 203 204
l 205 206
l 207 208
l 209 210
l 211 212
l 213 214
l 215 216
o 
v 92 0 8
v 76 0 8
v 76 0 0
v 76 0 0
v 92 0 0
v 92 0 8
vn 0 -1 0
vn 0 -1 0
vn 0 -1 0
vn 0 -1 0
vn 0 -1 0
vn 0 -1 0
f 217//25 218//26 219//27
f 220//28 221//29 222//30
o 
v 92 0 8
v 76 0 8
v 92 0 0
v 92 0 8
v 76 0 0
v 92 0 0
v 76 0 8
v 76 0 0
v 92 -12 8
v 92 -15 3
v 76 -15 3
v 76 -12 8
v 92 -15 3
v 92 -11 3
v 76 -15 3
v 92 -15 3
v 76 -15 3
v 76 -11 3
v 92 -9 0
v 92 -11 3
v 76 -11 3
v 76 -9 0
v 92 -11 3
v 76 -11 3
v 92 -9 0
v 76 -9 0
v 76 -9 0
v 76 0 0
v 76 -12 8
v 76 0 8
v 92 -12 8
v 76 -12 8
v 92 -9 0
v 92 0 0
v 92 -12 8
v 92 0 8
l 223 224
l 225 226
l 227 228
l 229 230
l 231 232
l 233 234
l 235 236
l 237 238
l 239 240
l 241 242
l 243 244
l 245 246
l 247 248
l 249 250
l 251 252
l 253 254
l 255 256
l 257 258