o 
v 48 -5 5
v 48 -5 3
v 52 -5 5
v 52 -5 5
v 58 -5 5
v 54 -5 9
v 54 -5 9
v 48 -5 9
v 48 -5 5
v 48 -5 5
v 52 -5 5
v 54 -5 9
v 45 -2 3
v 48 -5 3
v 48 -5 5
v 48 -5 5
v 45 -2 5
v 45 -2 3
v 58 -5 16
v 54 -5 16
v 54 -5 9
v 54 -5 9
v 58 -5 5
v 58 -5 16
v 52 -5 0
v 52 -5 5
v 48 -5 3
v 48 -5 3
v 48 -5 0
v 52 -5 0
vn 0 -1 0
vn 0 -1 0
vn 0 -1 0
vn 0 -1 0
vn 0 -1 0
vn 0 -1 0
vn 0 -1 0
vn 0 -1 0
vn 0 -1 0
vn 0 -1 0
vn 0 -1 0
vn 0 -1 0
vn -0.7071067690849304 -0.7071067690849304 0
vn -0.7071067690849304 -0.7071067690849304 0
vn -0.7071067690849304 -0.7071067690849304 0
vn -0.7071067690849304 -0.7071067690849304 0
vn -0.7071067690849304 -0.7071067690849304 0
vn -0.7071067690849304 -0.7071067690849304 0
vn 0 -1 0
vn 0 -1 0
vn 0 -1 0
vn 0 -1 0
vn 0 -1 0
vn 0 -1 0
vn 0 -1 0
vn 0 -1 0
vn 0 -1 0
vn 0 -1 0
vn 0 -1 0
vn 0 -1 0
f 1//1 2//2 3//3
f 4//4 5//5 6//6
f 7//7 8//8 9//9
f 10//10 11//11 12//12
f 13//13 14//14 15//15
f 16//16 17//17 18//18
f 19//19 20//20 21//21
f 22//22 23//23 24//24
f 25//25 26//26 27//27
f 28//28 29//29 30//30
o 
v 48 -5 9
v 54 -5 9
v 48 -5 5
v 48 -5 9
v 54 -5 16
v 58 -5 16
v 54 -5 9
v 54 -5 16
v 45 -2 5
v 48 -5 5
v 45 -2 3
v 45 -2 5
v 48 -5 3
v 45 -2 3
v 48 -5 0
v 48 -5 3
v 52 -5 0
v 48 -5 0
v 52 -5 5
v 52 -5 0
v 58 -5 5
v 52 -5 5
v 58 -5 16
v 58 -5 5
v 45 -12 5
v 45 -2 5
v 45 -12 5
v 48 -12 5
v 48 -12 5
v 48 -5 5
v 48 -12 9
v 48 -5 9
v 48 -12 9
v 54 -12 9
v 48 -12 5
v 48 -12 9
v 45 -16 3
v 45 -2 3
v 48 -16 3
v 48 -5 3
v 48 -16 3
v 45 -16 3
v 48 -16 0
v 48 -16 3
v 52 -16 0
v 48 -16 0
v 48 -5 0
v 48 -16 0
v 52 -16 0
v 52 -5 0
v 52 -16 5
v 52 -16 0
v 52 -16 5
v 52 -5 5
v 58 -16 5
v 52 -16 5
v 58 -16 5
v 58 -5 5
v 58 -16 16
v 58 -16 5
v 58 -5 16
v 58 -16 16
v 54 -12 16
v 54 -12 9
v 54 -12 16
v 54 -5 16
v 54 -12 9
v 54 -5 9
l 31 32
l 33 34
l 35 36
l 37 38
l 39 40
l 41 42
l 43 44
l 45 46
l 47 48
l 49 50
l 51 52
l 53 54
l 55 56
l 57 58
l 59 60
l 61 62
l 63 64
l 65 66
l 67 68
l 69 70
l 71 72
l 73 74
l 75 76
l 77 78
l 79 80
l 81 82
l 83 84
l 85 86
l 87 88
l 89 90
l 91 92
l 93 94
l 95 96
l 97 98
o 
v 58 0 32
v 58 -3 32
v 54 -3 32
v 54 -3 32
v 54 0 32
v 58 0 32
v 58 -3 40
v 46 -3 40
v 46 -3 36
v 46 -3 36
v 54 -3 36
v 58 -3 40
v 54 -3 36
v 54 -3 32
v 58 -3 32
v 58 -3 32
v 58 -3 40
v 54 -3 36
v 51 0 19
v 51 -5 19
v 51 -5 24
v 51 -5 24
v 51 0 24
v 51 0 19
v 58 0 26
v 51 0 24
v 51 -5 24
v 51 -5 24
v 58 -5 26
v 58 0 26
v 58 -5 19
v 58 -5 26
v 51 -5 24
v 51 -5 24
v 51 -5 19
v 58 -5 19
vn 0 0 -1
vn 0 0 -1
vn 0 0 -1
vn 0 0 -1
vn 0 0 -1
vn 0 0 -1
vn 0 -1 0
vn 0 -1 0
vn 0 -1 0
vn 0 -1 0
vn 0 -1 0
vn 0 -1 0
vn 0 -1 0
vn 0 -1 0
vn 0 -1 0
vn 0 -1 0
vn 0 -1 0
vn 0 -1 0
vn -1 0 0
vn -1 0 0
vn -1 0 0
vn -1 0 0
vn -1 0 0
vn -1 0 0
vn -0.2747211158275604 0 0.9615239500999451
vn -0.2747211158275604 0 0.9615239500999451
vn -0.2747211158275604 0 0.9615239500999451
vn -0.2747211158275604 0 0.9615239500999451
vn -0.2747211158275604 0 0.9615239500999451
vn -0.2747211158275604 0 0.9615239500999451
vn 0 -1 0
vn 0 -1 0
vn 0 -1 0
vn 0 -1 0
vn 0 -1 0
vn 0 -1 0
f 99//31 100//32 101//33
f 102//34 103//35 104//36
f 105//37 106//38 107//39
f 108//40 109//41 110//42
f 111//43 112//44 113//45
f 114//46 115//47 116//48
f 117//49 118//50 119//51
f 120//52 121//53 122//54
f 123//55 124//56 125//57
f 126//58 127//59 128//60
f 129//61 130//62 131//63
f 132//64 133//65 134//66
o 
v 54 -3 32
v 54 0 32
v 46 -3 40
v 58 -3 40
v 54 -3 36
v 46 -3 36
v 54 -3 32
v 54 -3 36
v 58 0 32
v 54 0 32
v 51 0 24
v 58 0 26
v 51 0 19
v 51 0 24
v 58 -5 26
v 58 0 26
v 58 -5 19
v 58 -5 26
v 51 -5 19
v 58 -5 19
v 51 -5 19
v 51 0 19
v 58 -3 32
v 58 -3 40
v 58 -3 32
v 58 0 32
v 46 -3 36
v 46 -3 40
v 58 0 26
v 58 0 32
v 54 -3 36
v 54 0 36
v 54 0 36
v 46 0 36
v 54 0 32
v 54 0 36
v 46 0 40
v 58 0 40
v 58 -3 40
v 58 -16 40
v 58 -3 40
v 58 0 40
v 46 0 40
v 46 -3 40
v 46 0 36
v 46 -3 36
v 66 -16 40
v 66 0 40
v 66 -16 40
v 58 -16 40
v 66 0 40
v 66 0 48
v 66 0 40
v 58 0 40
v 46 0 48
v 46 0 40
v 66 0 48
v 46 0 48
v 58 -16 19
v 58 -16 40
v 58 -16 19
v 58 -5 19
v 46 0 19
v 46 0 36
v 51 0 19
v 46 0 19
l 135 136
l 137 138
l 139 140
l 141 142
l 143 144
l 145 146
l 147 148
l 149 150
l 151 152
l 153 154
l 155 156
l 157 158
l 159 160
l 161 162
l 163 164
l 165 166
l 167 168
l 169 170
l 171 172
l 173 174
l 175 176
l 177 178
l 179 180
l 181 182
l 183 184
l 185 186
l 187 188
l 189 190
l 191 192
l 193 194
l 195 196
l 197 198
l 199 200
o 
v 29 -5 46
v 29 -5 43
v 34 -5 43
v 41 -3 49
v 37 -3 49
v 37 -3 46
v 29 -3 38
v 29 -3 32
v 34 -3 38
v 40 -3 36
v 41 -3 40
v 37 -3 43
v 34 -3 38
v 34 -3 43
v 34 -5 43
v 37 -5 43
v 37 -5 46
v 29 -5 46
v 29 -5 46
v 34 -5 43
v 37 -5 43
v 41 -3 40
v 41 -3 49
v 37 -3 46
v 37 -3 46
v 37 -3 43
v 41 -3 40
v 37 -5 43
v 37 -3 43
v 37 -3 46
v 37 -3 46
v 37 -5 46
v 37 -5 43
v 34 -3 43
v 37 -3 43
v 37 -5 43
v 37 -5 43
v 34 -5 43
v 34 -3 43
v 40 -3 32
v 40 -3 36
v 34 -3 38
v 34 -3 38
v 29 -3 32
v 40 -3 32
v 34 -3 43
v 34 -3 38
v 40 -3 36
v 40 -3 36
v 37 -3 43
v 34 -3 43
v 29 -5 43
v 29 -3 38
v 34 -3 38
v 34 -3 38
v 34 -5 43
v 29 -5 43
v 40 -3 36
v 43 -3 36
v 43 -3 40
v 43 -3 40
v 41 -3 40
v 40 -3 36
vn 0 -1 0
vn 0 -1 0
vn 0 -1 0
vn 0 -1 0
vn 0 -1 0
vn 0 -1 0
vn 0 -1 0
vn 0 -1 0
vn 0 -1 0
vn 0 -1 0
vn 0 -1 0
vn 0 -1 0
vn 1 0 0
vn 1 0 0
vn 1 0 0
vn 0 -1 0
vn 0 -1 0
vn 0 -1 0
vn 0 -1 0
vn 0 -1 0
vn 0 -1 0
vn 0 -1 0
vn 0 -1 0
vn 0 -1 0
vn 0 -1 0
vn 0 -1 0
vn 0 -1 0
vn 1 0 0
vn 1 0 0
vn 1 0 0
vn 1 0 0
vn 1 0 0
vn 1 0 0
vn 0 0 -1
vn 0 0 -1
vn 0 0 -1
vn 0 0 -1
vn 0 0 -1
vn 0 0 -1
vn 0 -1 0
vn 0 -1 0
vn 0 -1 0
vn 0 -1 0
vn 0 -1 0
vn 0 -1 0
vn 0 -1 0
vn 0 -1 0
vn 0 -1 0
vn 0 -1 0
vn 0 -1 0
vn 0 -1 0
vn 0 -0.9284766912460327 -0.3713906705379486
vn 0 -0.9284766912460327 -0.3713906705379486
vn 0 -0.9284766912460327 -0.3713906705379486
vn 0 -0.9284766912460327 -0.3713906705379486
vn 0 -0.9284766912460327 -0.3713906705379486
vn 0 -0.9284766912460327 -0.3713906705379486
vn 0 -1 0
vn 0 -1 0
vn 0 -1 0
vn 0 -1 0
vn 0 -1 0
vn 0 -1 0
f 201//67 202//68 203//69
f 204//70 205//71 206//72
f 207//73 208//74 209//75
f 210//76 211//77 212//78
f 213//79 214//80 215//81
f 216//82 217//83 218//84
f 219//85 220//86 221//87
f 222//88 223//89 224//90
f 225//91 226//92 227//93
f 228//94 229//95 230//96
f 231//97 232//98 233//99
f 234//100 235//101 236//102
f 237//103 238//104 239//105
f 240//106 241//107 242//108
f 243//109 244//110 245//111
f 246//112 247//113 248//114
f 249//115 250//116 251//117
f 252//118 253//119 254//120
f 255//121 256//122 257//123
f 258//124 259//125 260//126
f 261//127 262//128 263//129
o 
v 37 -3 46
v 37 -3 49
v 37 -5 46
v 37 -3 46
v 29 -5 46
v 37 -5 46
v 29 -5 43
v 29 -5 46
v 41 -3 49
v 37 -3 49
v 29 -3 38
v 29 -5 43
v 40 -3 36
v 40 -3 32
v 43 -3 36
v 40 -3 36
v 43 -3 40
v 43 -3 36
v 43 -3 40
v 41 -3 40
v 29 -3 32
v 40 -3 32
v 29 -3 32
v 29 -3 38
v 41 -3 40
v 41 -3 49
v 37 -9 49
v 37 -3 49
v 37 -9 46
v 37 -5 46
v 29 -9 46
v 29 -5 46
v 37 -9 46
v 29 -9 46
v 37 -9 49
v 37 -9 46
v 29 -9 27
v 29 0 27
v 43 0 27
v 29 0 27
v 43 0 32
v 43 0 27
v 29 0 32
v 43 0 32
v 29 0 32
v 29 0 27
v 29 0 32
v 29 -3 32
v 29 -9 43
v 29 -9 27
v 29 -9 43
v 29 -5 43
v 40 -7 36
v 40 -7 32
v 43 0 32
v 43 -7 32
v 40 -7 32
v 40 -3 32
v 43 -7 32
v 40 -7 32
v 40 -7 36
v 43 -7 36
v 40 -7 36
v 40 -3 36
v 43 -7 36
v 43 -3 36
v 43 -7 40
v 43 -3 40
v 41 -7 40
v 43 -7 40
v 41 -7 40
v 41 -7 49
v 41 -7 40
v 41 -3 40
v 41 -7 49
v 41 -3 49
l 264 265
l 266 267
l 268 269
l 270 271
l 272 273
l 274 275
l 276 277
l 278 279
l 280 281
l 282 283
l 284 285
l 286 287
l 288 289
l 290 291
l 292 293
l 294 295
l 296 297
l 298 299
l 300 301
l 302 303
l 304 305
l 306 307
l 308 309
l 310 311
l 312 313
l 314 315
l 316 317
l 318 319
l 320 321
l 322 323
l 324 325
l 326 327
l 328 329
l 330 331
l 332 333
l 334 335
l 336 337
l 338 339
o 
v 37 -3 56
v 37 -3 52
v 41 -3 52
v 37 -3 68
v 37 -3 60
v 41 -3 68
v 41 -3 52
v 41 -3 68
v 37 -3 60
v 37 -3 60
v 37 -3 56
v 41 -3 52
v 37 -6 56
v 37 -6 60
v 26 -6 60
v 26 -6 60
v 26 -6 56
v 37 -6 56
v 37 -3 60
v 37 -6 60
v 37 -6 56
v 37 -6 56
v 37 -3 56
v 37 -3 60
v 37 0 68
v 37 -3 68
v 41 -3 68
v 41 -3 68
v 41 0 68
v 37 0 68
vn 0 -1 0
vn 0 -1 0
vn 0 -1 0
vn 0 -1 0
vn 0 -1 0
vn 0 -1 0
vn 0 -1 0
vn 0 -1 0
vn 0 -1 0
vn 0 -1 0
vn 0 -1 0
vn 0 -1 0
vn 0 -1 0
vn 0 -1 0
vn 0 -1 0
vn 0 -1 0
vn 0 -1 0
vn 0 -1 0
vn 1 0 0
vn 1 0 0
vn 1 0 0
vn 1 0 0
vn 1 0 0
vn 1 0 0
vn 0 0 1
vn 0 0 1
vn 0 0 1
vn 0 0 1
vn 0 0 1
vn 0 0 1
f 340//130 341//131 342//132
f 343//133 344//134 345//135
f 346//136 347//137 348//138
f 349//139 350//140 351//141
f 352//142 353//143 354//144
f 355//145 356//146 357//147
f 358//148 359//149 360//150
f 361//151 362//152 363//153
f 364//154 365//155 366//156
f 367//157 368//158 369//159
o 
v 37 0 68
v 41 0 68
v 37 -3 60
v 37 -3 68
v 37 -6 60
v 37 -3 60
v 26 -6 60
v 37 -6 60
v 26 -6 56
v 26 -6 60
v 37 -6 56
v 26 -6 56
v 37 -3 56
v 37 -6 56
v 37 -3 52
v 41 -3 52
v 37 -3 56
v 37 -3 52
v 41 -3 68
v 41 -3 52
v 37 -3 68
v 37 0 68
v 41 -3 68
v 41 0 68
v 26 -9 60
v 26 -6 60
v 37 -9 52
v 37 -3 52
v 37 -9 56
v 37 -6 56
v 37 -9 56
v 26 -9 56
v 37 -9 52
v 37 -9 56
v 26 -9 56
v 26 -6 56
v 37 -9 60
v 37 -6 60
v 26 -9 60
v 37 -9 60
v 37 -9 74
v 37 0 74
v 37 -9 60
v 37 -9 74
v 37 0 74
v 37 0 68
v 45 0 74
v 37 0 74
v 45 0 68
v 45 0 74
v 41 0 68
v 45 0 68
v 45 0 68
v 45 -7 68
v 41 -7 68
v 45 -7 68
v 41 -7 52
v 41 -3 52
v 41 -7 68
v 41 -7 52
v 41 -7 68
v 41 -3 68
l 370 371
l 372 373
l 374 375
l 376 377
l 378 379
l 380 381
l 382 383
l 384 385
l 386 387
l 388 389
l 390 391
l 392 393
l 394 395
l 396 397
l 398 399
l 400 401
l 402 403
l 404 405
l 406 407
l 408 409
l 410 411
l 412 413
l 414 415
l 416 417
l 418 419
l 420 421
l 422 423
l 424 425
l 426 427
l 428 429
l 430 431
o 
v 0 -6 77
v 0 -6 73
v 5 -6 73
v 5 -6 73
v 15 -6 73
v 19 -6 77
v 19 -6 77
v 0 -6 77
v 5 -6 73
v 23 -6 56
v 23 -6 60
v 11 -6 62
v 11 -6 62
v 11 -6 56
v 23 -6 56
v 23 -6 60
v 19 -6 64
v 15 -6 64
v 15 -6 64
v 11 -6 62
v 23 -6 60
v 15 -6 64
v 19 -6 64
v 19 -6 77
v 19 -6 77
v 15 -6 73
v 15 -6 64
vn 0 -1 0
vn 0 -1 0
vn 0 -1 0
vn 0 -1 0
vn 0 -1 0
vn 0 -1 0
vn 0 -1 0
vn 0 -1 0
vn 0 -1 0
vn 0 -1 0
vn 0 -1 0
vn 0 -1 0
vn 0 -1 0
vn 0 -1 0
vn 0 -1 0
vn 0 -1 0
vn 0 -1 0
vn 0 -1 0
vn 0 -1 0
vn 0 -1 0
vn 0 -1 0
vn 0 -1 0
vn 0 -1 0
vn 0 -1 0
vn 0 -1 0
vn 0 -1 0
vn 0 -1 0
f 432//160 433//161 434//162
f 435//163 436//164 437//165
f 438//166 439//167 440//168
f 441//169 442//170 443//171
f 444//172 445//173 446//174
f 447//175 448//176 449//177
f 450//178 451//179 452//180
f 453//181 454//182 455//183
f 456//184 457//185 458//186
o 
v 0 -6 77
v 19 -6 77
v 0 -6 73
v 0 -6 77
v 5 -6 73
v 0 -6 73
v 15 -6 73
v 5 -6 73
v 15 -6 64
v 15 -6 73
v 15 -6 64
v 11 -6 62
v 11 -6 56
v 11 -6 62
v 23 -6 56
v 11 -6 56
v 23 -6 60
v 23 -6 56
v 19 -6 64
v 23 -6 60
v 19 -6 77
v 19 -6 64
v 5 -6 73
v 5 0 73
v 5 -10 69
v 5 0 69
v 0 -10 69
v 0 0 69
v 0 -10 69
v 0 -10 73
v 5 -10 69
v 0 -10 69
v 5 -10 73
v 5 -10 69
v 5 0 73
v 15 0 73
v 5 0 69
v 0 0 69
v 5 0 73
v 5 0 69
v 0 0 73
v 5 0 73
v 0 0 69
v 0 0 73
v 0 0 56
v 0 0 69
v 0 -6 73
v 0 0 73
v 0 -10 73
v 0 -6 73
v 5 -10 73
v 5 -6 73
v 5 -10 73
v 0 -10 73
v 11 -12 56
v 23 -12 56
v 11 -12 56
v 11 -6 56
v 19 -12 77
v 0 -12 77
v 19 -12 64
v 19 -12 77
v 23 -12 60
v 19 -12 64
v 23 -12 56
v 23 -6 56
v 23 -6 60
v 23 -12 60
v 19 -12 64
v 19 -6 64
v 19 -12 77
v 19 -6 77
v 0 -6 77
v 0 -12 77
v 15 0 64
v 11 0 62
v 15 0 73
v 15 0 64
v 11 0 56
v 0 0 56
v 11 0 62
v 11 0 56
v 15 -6 73
v 15 0 73
v 15 0 64
v 15 -6 64
v 11 -6 62
v 11 0 62
v 11 -6 56
v 11 0 56
l 459 460
l 461 462
l 463 464
l 465 466
l 467 468
l 469 470
l 471 472
l 473 474
l 475 476
l 477 478
l 479 480
l 481 482
l 483 484
l 485 486
l 487 488
l 489 490
l 491 492
l 493 494
l 495 496
l 497 498
l 499 500
l 501 502
l 503 504
l 505 506
l 507 508
l 509 510
l 511 512
l 513 514
l 515 516
l 517 518
l 519 520
l 521 522
l 523 524
l 525 526
l 527 528
l 529 530
l 531 532
l 533 534
l 535 536
l 537 538
l 539 540
l 541 542
l 543 544
l 545 546
l 547 548
o 
v 15 -6 53
v 15 -6 38
v 19 -6 38
v 19 -6 38
v 19 -6 49
v 15 -6 53
v 26 -6 49
v 26 -6 53
v 15 -6 53
v 15 -6 53
v 19 -6 49
v 26 -6 49
vn 0 -1 0
vn 0 -1 0
vn 0 -1 0
vn 0 -1 0
vn 0 -1 0
vn 0 -1 0
vn 0 -1 0
vn 0 -1 0
vn 0 -1 0
vn 0 -1 0
vn 0 -1 0
vn 0 -1 0
f 549//187 550//188 551//189
f 552//190 553//191 554//192
f 555//193 556//194 557//195
f 558//196 559//197 560//198
o 
v 26 -6 53
v 26 -6 49
v 19 -6 49
v 26 -6 49
v 19 -6 38
v 19 -6 49
v 15 -6 38
v 19 -6 38
v 15 -6 53
v 15 -6 38
v 26 -6 53
v 15 -6 53
v 17 -12 51
v 17 -12 38
v 26 -12 51
v 17 -12 51
v 17 -12 38
v 15 -10 38
v 17 -12 38
v 19 -10 38
v 17 -12 51
v 19 -10 49
v 15 -10 53
v 17 -12 51
v 26 -12 51
v 26 -10 49
v 26 -10 53
v 26 -12 51
v 15 -6 38
v 15 -10 38
v 19 -10 38
v 19 -6 38
v 19 -6 49
v 19 -10 49
v 15 -10 53
v 15 -6 53
v 15 -10 38
v 15 -10 53
v 19 -10 49
v 19 -10 38
v 26 -10 53
v 15 -10 53
v 26 -10 49
v 19 -10 49
v 26 -6 49
v 26 -10 49
v 26 -10 53
v 26 -6 53
l 561 562
l 563 564
l 565 566
l 567 568
l 569 570
l 571 572
l 573 574
l 575 576
l 577 578
l 579 580
l 581 582
l 583 584
l 585 586
l 587 588
l 589 590
l 591 592
l 593 594
l 595 596
l 597 598
l 599 600
l 601 602
l 603 604
l 605 606
l 607 608
o 
v 29 -5 49
v 34 -5 49
v 34 -5 53
v 34 -5 53
v 29 -5 53
v 29 -5 49
vn 0 -1 0
vn 0 -1 0
vn 0 -1 0
vn 0 -1 0
vn 0 -1 0
vn 0 -1 0
f 609//199 610//200 611//201
f 612//202 613//203 614//204
o 
v 29 -5 49
v 29 -5 53
v 34 -5 49
v 29 -5 49
v 34 -5 53
v 34 -5 49
v 29 -5 53
v 34 -5 53
v 34 -10 51
v 29 -10 51
v 29 -10 51
v 29 -8 53
v 29 -8 49
v 29 -10 51
v 34 -10 51
v 34 -8 49
v 34 -8 53
v 34 -10 51
v 29 -8 53
v 34 -8 53
v 34 -8 49
v 29 -8 49
v 34 -5 53
v 34 -8 53
v 34 -8 49
v 34 -5 49
v 29 -8 53
v 29 -5 53
v 29 -8 49
v 29 -5 49
l 615 616
l 617 618
l 619 620
l 621 622
l 623 624
l 625 626
l 627 628
l 629 630
l 631 632
l 633 634
l 635 636
l 637 638
l 639 640
l 641 642
l 643 644
o 
v 19 -4 29
v 19 -4 35
v 15 -4 29
v 9 0 24
v 9 -4 24
v 19 -4 24
v 19 -4 24
v 19 0 24
v 9 0 24
v 19 0 29
v 19 -4 29
v 15 -4 29
v 15 -4 29
v 15 0 29
v 19 0 29
v 15 0 29
v 15 -4 29
v 12 -4 33
v 12 -4 33
v 12 0 33
v 15 0 29
v 12 0 33
v 12 -4 33
v 12 -4 35
v 12 -4 35
v 12 0 35
v 12 0 33
v 19 -4 18
v 19 -4 24
v 9 -4 24
v 9 -4 24
v 9 -4 18
v 19 -4 18
v 12 -4 33
v 15 -4 29
v 19 -4 35
v 19 -4 35
v 12 -4 35
v 12 -4 33
vn 0 -1 0
vn 0 -1 0
vn 0 -1 0
vn 0 0 1
vn 0 0 1
vn 0 0 1
vn 0 0 1
vn 0 0 1
vn 0 0 1
vn 0 0 -1
vn 0 0 -1
vn 0 0 -1
vn 0 0 -1
vn 0 0 -1
vn 0 0 -1
vn -0.800000011920929 0 -0.6000000238418579
vn -0.800000011920929 0 -0.6000000238418579
vn -0.800000011920929 0 -0.6000000238418579
vn -0.800000011920929 0 -0.6000000238418579
vn -0.800000011920929 0 -0.6000000238418579
vn -0.800000011920929 0 -0.6000000238418579
vn -1 0 0
vn -1 0 0
vn -1 0 0
vn -1 0 0
vn -1 0 0
vn -1 0 0
vn 0 -1 0
vn 0 -1 0
vn 0 -1 0
vn 0 -1 0
vn 0 -1 0
vn 0 -1 0
vn 0 -1 0
vn 0 -1 0
vn 0 -1 0
vn 0 -1 0
vn 0 -1 0
vn 0 -1 0
f 645//205 646//206 647//207
f 648//208 649//209 650//210
f 651//211 652//212 653//213
f 654//214 655//215 656//216
f 657//217 658//218 659//219
f 660//220 661//221 662//222
f 663//223 664//224 665//225
f 666//226 667//227 668//228
f 669//229 670//230 671//231
f 672//232 673//233 674//234
f 675//235 676//236 677//237
f 678//238 679//239 680//240
f 681//241 682//242 683//243
o 
v 19 0 24
v 9 0 24
v 12 0 33
v 12 0 35
v 15 0 29
v 12 0 33
v 19 0 29
v 15 0 29
v 12 -4 35
v 12 0 35
v 19 -4 35
v 12 -4 35
v 19 -4 29
v 19 -4 35
v 19 0 29
v 19 -4 29
v 19 -4 24
v 19 0 24
v 19 -4 18
v 19 -4 24
v 9 -4 18
v 19 -4 18
v 9 -4 24
v 9 -4 18
v 9 0 24
v 9 -4 24
v 25 0 29
v 25 0 24
v 19 -10 24
v 19 -4 24
v 25 0 24
v 19 0 24
v 25 -10 24
v 25 0 24
v 25 -10 24
v 19 -10 24
v 19 -10 24
v 19 -10 18
v 25 0 29
v 19 0 29
v 25 -10 29
v 25 0 29
v 19 -10 29
v 25 -10 29
v 19 -10 29
v 19 -4 29
v 19 -10 35
v 19 -10 29
v 19 -10 18
v 9 -10 18
v 9 -10 35
v 19 -10 35
v 9 -10 18
v 9 -10 35
v 19 -10 18
v 19 -4 18
v 19 -10 35
v 19 -4 35
v 9 -10 18
v 9 -4 18
v 9 -10 35
v 9 0 35
v 9 0 35
v 9 0 24
v 12 0 35
v 9 0 35
l 684 685
l 686 687
l 688 689
l 690 691
l 692 693
l 694 695
l 696 697
l 698 699
l 700 701
l 702 703
l 704 705
l 706 707
l 708 709
l 710 711
l 712 713
l 714 715
l 716 717
l 718 719
l 720 721
l 722 723
l 724 725
l 726 727
l 728 729
l 730 731
l 732 733
l 734 735
l 736 737
l 738 739
l 740 741
l 742 743
l 744 745
l 746 747
l 748 749
o 
v 34 -3 67
v 28 -3 67
v 28 -3 63
v 28 -3 63
v 34 -3 63
v 34 -3 67
vn 0 -1 0
vn 0 -1 0
vn 0 -1 0
vn 0 -1 0
vn 0 -1 0
vn 0 -1 0
f 750//244 751//245 752//246
f 753//247 754//248 755//249
o 
v 34 -3 67
v 34 -3 63
v 28 -3 67
v 34 -3 67
v 28 -3 63
v 28 -3 67
v 34 -3 63
v 28 -3 63
v 34 -8 63
v 28 -8 63
v 34 -8 67
v 34 -8 63
v 28 -8 67
v 34 -8 67
v 28 -8 63
v 28 -8 67
v 28 -3 63
v 28 -8 63
v 28 -8 67
v 28 -3 67
v 34 -8 63
v 34 -3 63
v 34 -8 67
v 34 -3 67
l 756 757
l 758 759
l 760 761
l 762 763
l 764 765
l 766 767
l 768 769
l 770 771
l 772 773
l 774 775
l 776 777
l 778 779
o 
v 22 -3 38
v 22 -3 32
v 26 -3 32
v 26 -3 32
v 26 -3 38
v 22 -3 38
vn 0 -1 0
vn 0 -1 0
vn 0 -1 0
vn 0 -1 0
vn 0 -1 0
vn 0 -1 0
f 780//250 781//251 782//252
f 783//253 784//254 785//255
o 
v 22 -3 38
v 26 -3 38
v 22 -3 32
v 22 -3 38
v 26 -3 32
v 22 -3 32
v 26 -3 38
v 26 -3 32
v 26 -8 38
v 26 -8 32
v 22 -8 38
v 26 -8 38
v 22 -8 32
v 22 -8 38
v 26 -8 32
v 22 -8 32
v 26 -3 32
v 26 -8 32
v 22 -8 32
v 22 -3 32
v 26 -8 38
v 26 -3 38
v 22 -8 38
v 22 -3 38
l 786 787
l 788 789
l 790 791
l 792 793
l 794 795
l 796 797
l 798 799
l 800 801
l 802 803
l 804 805
l 806 807
l 808 809