o 
v 0 -4 50
v 5 -4 50
v 5 -4 52
v 5 -4 56
v 0 -4 56
v 0 -4 50
v 0 -4 50
v 5 -4 52
v 5 -4 56
v 5 -4 52
v 5 -10 52
v 5 -10 56
v 5 -10 56
v 5 -4 56
v 5 -4 52
v 8 -10 52
v 8 -10 56
v 5 -10 56
v 5 -10 56
v 5 -10 52
v 8 -10 52
v 8 -4 56
v 8 -10 56
v 8 -10 52
v 8 -10 52
v 8 -4 52
v 8 -4 56
v 11 -4 56
v 8 -4 56
v 8 -4 52
v 8 -4 52
v 11 -4 52
v 11 -4 56
vn 0 -1 0
vn 0 -1 0
vn 0 -1 0
vn 0 -1 0
vn 0 -1 0
vn 0 -1 0
vn 0 -1 0
vn 0 -1 0
vn 0 -1 0
vn -1 0 0
vn -1 0 0
vn -1 0 0
vn -1 0 0
vn -1 0 0
vn -1 0 0
vn 0 -1 0
vn 0 -1 0
vn 0 -1 0
vn 0 -1 0
vn 0 -1 0
vn 0 -1 0
vn 1 0 0
vn 1 0 0
vn 1 0 0
vn 1 0 0
vn 1 0 0
vn 1 0 0
vn 0 -1 0
vn 0 -1 0
vn 0 -1 0
vn 0 -1 0
vn 0 -1 0
vn 0 -1 0
f 1//1 2//2 3//3
f 4//4 5//5 6//6
f 7//7 8//8 9//9
f 10//10 11//11 12//12
f 13//13 14//14 15//15
f 16//16 17//17 18//18
f 19//19 20//20 21//21
f 22//22 23//23 24//24
f 25//25 26//26 27//27
f 28//28 29//29 30//30
f 31//31 32//32 33//33
o 
v 5 -10 52
v 5 -4 52
v 8 -10 52
v 5 -10 52
v 8 -4 52
v 8 -10 52
v 11 -4 52
v 8 -4 52
v 11 -4 56
v 11 -4 52
v 8 -4 56
v 11 -4 56
v 8 -10 56
v 8 -4 56
v 5 -10 56
v 8 -10 56
v 5 -4 56
v 5 -10 56
v 0 -4 56
v 5 -4 56
v 0 -4 50
v 0 -4 56
v 5 -4 50
v 0 -4 50
v 5 -4 52
v 5 -4 50
v 5 -17 52
v 5 -10 52
v 5 -17 52
v 5 -17 50
v 0 -17 56
v 11 -17 56
v 5 -17 52
v 11 -17 52
v 0 -17 50
v 5 -17 50
v 0 -17 56
v 0 -4 56
v 0 -17 50
v 0 -4 50
v 5 -17 50
v 5 -4 50
v 11 -17 52
v 11 -4 52
v 11 -17 56
v 11 -4 56
v 11 -17 56
v 11 -17 52
v 0 -17 50
v 0 -17 56
l 34 35
l 36 37
l 38 39
l 40 41
l 42 43
l 44 45
l 46 47
l 48 49
l 50 51
l 52 53
l 54 55
l 56 57
l 58 59
l 60 61
l 62 63
l 64 65
l 66 67
l 68 69
l 70 71
l 72 73
l 74 75
l 76 77
l 78 79
l 80 81
l 82 83
o 
v 14 -4 46
v 24 -4 46
v 24 -4 62
v 24 -4 62
v 14 -4 62
v 14 -4 46
vn 0 -1 0
vn 0 -1 0
vn 0 -1 0
vn 0 -1 0
vn 0 -1 0
vn 0 -1 0
f 84//34 85//35 86//36
f 87//37 88//38 89//39
o 
v 24 -4 46
v 14 -4 46
v 24 -4 62
v 24 -4 46
v 14 -4 62
v 24 -4 62
v 14 -4 46
v 14 -4 62
v 24 -14 46
v 24 -4 46
v 14 -14 46
v 14 -4 46
v 24 -14 46
v 14 -14 46
v 24 -14 62
v 24 -4 62
v 24 -14 62
v 24 -14 46
v 14 -14 62
v 14 -4 62
v 14 -14 46
v 14 -14 62
v 14 -14 62
v 24 -14 62
l 90 91
l 92 93
l 94 95
l 96 97
l 98 99
l 100 101
l 102 103
l 104 105
l 106 107
l 108 109
l 110 111
l 112 113
o 
v 27 -4 48
v 33 -4 48
v 33 -4 60
v 33 -4 60
v 27 -4 60
v 27 -4 48
vn 0 -1 0
vn 0 -1 0
vn 0 -1 0
vn 0 -1 0
vn 0 -1 0
vn 0 -1 0
f 114//40 115//41 116//42
f 117//43 118//44 119//45
o 
v 33 -4 48
v 27 -4 48
v 33 -4 60
v 33 -4 48
v 27 -4 60
v 33 -4 60
v 27 -4 48
v 27 -4 60
v 32 -14 60
v 32 -14 48
v 28 -14 48
v 28 -14 60
v 32 -14 48
v 33 -12 48
v 28 -14 48
v 32 -14 48
v 28 -14 48
v 27 -12 48
v 32 -14 60
v 33 -12 60
v 28 -14 60
v 32 -14 60
v 28 -14 60
v 27 -12 60
v 27 -12 48
v 27 -4 48
v 33 -12 48
v 33 -4 48
v 33 -12 60
v 33 -4 60
v 27 -12 60
v 27 -4 60
v 27 -12 48
v 27 -12 60
v 33 -12 60
v 33 -12 48
l 120 121
l 122 123
l 124 125
l 126 127
l 128 129
l 130 131
l 132 133
l 134 135
l 136 137
l 138 139
l 140 141
l 142 143
l 144 145
l 146 147
l 148 149
l 150 151
l 152 153
l 154 155
o 
v 27 -4 29
v 33 -4 29
v 33 -4 41
v 33 -4 41
v 27 -4 41
v 27 -4 29
vn 0 -1 0
vn 0 -1 0
vn 0 -1 0
vn 0 -1 0
vn 0 -1 0
vn 0 -1 0
f 156//46 157//47 158//48
f 159//49 160//50 161//51
o 
v 33 -4 29
v 27 -4 29
v 33 -4 41
v 33 -4 29
v 27 -4 41
v 33 -4 41
v 27 -4 29
v 27 -4 41
v 32 -14 41
v 32 -14 29
v 28 -14 29
v 28 -14 41
v 32 -14 29
v 33 -12 29
v 28 -14 29
v 32 -14 29
v 28 -14 29
v 27 -12 29
v 32 -14 41
v 33 -12 41
v 28 -14 41
v 32 -14 41
v 27 -12 41
v 28 -14 41
v 27 -12 29
v 27 -4 29
v 33 -12 29
v 33 -4 29
v 33 -12 41
v 33 -4 41
v 27 -12 41
v 27 -4 41
v 27 -12 29
v 27 -12 41
v 33 -12 41
v 33 -12 29
l 162 163
l 164 165
l 166 167
l 168 169
l 170 171
l 172 173
l 174 175
l 176 177
l 178 179
l 180 181
l 182 183
l 184 185
l 186 187
l 188 189
l 190 191
l 192 193
l 194 195
l 196 197
o 
v 11 -4 41
v 5 -4 41
v 5 -4 29
v 5 -4 29
v 11 -4 29
v 11 -4 41
vn 0 -1 0
vn 0 -1 0
vn 0 -1 0
vn 0 -1 0
vn 0 -1 0
vn 0 -1 0
f 198//52 199//53 200//54
f 201//55 202//56 203//57
o 
v 5 -4 41
v 11 -4 41
v 5 -4 29
v 5 -4 41
v 11 -4 29
v 5 -4 29
v 11 -4 41
v 11 -4 29
v 6 -14 29
v 6 -14 41
v 10 -14 41
v 10 -14 29
v 6 -14 41
v 5 -12 41
v 10 -14 41
v 6 -14 41
v 10 -14 41
v 11 -12 41
v 6 -14 29
v 5 -12 29
v 10 -14 29
v 6 -14 29
v 11 -12 29
v 10 -14 29
v 11 -12 41
v 11 -4 41
v 5 -12 41
v 5 -4 41
v 5 -12 29
v 5 -4 29
v 11 -12 29
v 11 -4 29
v 11 -12 41
v 11 -12 29
v 5 -12 29
v 5 -12 41
l 204 205
l 206 207
l 208 209
l 210 211
l 212 213
l 214 215
l 216 217
l 218 219
l 220 221
l 222 223
l 224 225
l 226 227
l 228 229
l 230 231
l 232 233
l 234 235
l 236 237
l 238 239
o 
v 25 -5 24
v 25 -5 13
v 25 -6 13
v 25 -6 13
v 25 -6 24
v 25 -5 24
v 25 -6 24
v 25 -6 13
v 29 -6 13
v 29 -6 13
v 29 -6 24
v 25 -6 24
v 13 -5 13
v 13 -5 10
v 25 -5 10
v 25 -5 10
v 25 -5 13
v 13 -5 13
v 21 -5 20
v 25 -5 13
v 25 -5 24
v 25 -5 24
v 21 -5 24
v 21 -5 20
v 17 -5 24
v 13 -5 24
v 13 -5 13
v 13 -5 13
v 17 -5 20
v 17 -5 24
v 13 -5 13
v 25 -5 13
v 21 -5 20
v 21 -5 20
v 17 -5 20
v 13 -5 13
v 13 -5 24
v 13 -6 24
v 13 -6 13
v 13 -6 13
v 13 -5 13
v 13 -5 24
v 9 -6 24
v 9 -6 13
v 13 -6 13
v 13 -6 13
v 13 -6 24
v 9 -6 24
v 17 -4 24
v 17 -5 24
v 17 -5 20
v 17 -5 20
v 17 -4 20
v 17 -4 24
v 17 -4 20
v 17 -5 20
v 21 -5 20
v 21 -5 20
v 21 -4 20
v 17 -4 20
v 21 -4 24
v 21 -4 20
v 21 -5 20
v 21 -5 20
v 21 -5 24
v 21 -4 24
v 17 -4 24
v 17 -4 20
v 21 -4 20
v 21 -4 20
v 21 -4 24
v 17 -4 24
vn -1 0 0
vn -1 0 0
vn -1 0 0
vn -1 0 0
vn -1 0 0
vn -1 0 0
vn 0 -1 0
vn 0 -1 0
vn 0 -1 0
vn 0 -1 0
vn 0 -1 0
vn 0 -1 0
vn 0 -1 0
vn 0 -1 0
vn 0 -1 0
vn 0 -1 0
vn 0 -1 0
vn 0 -1 0
vn 0 -1 0
vn 0 -1 0
vn 0 -1 0
vn 0 -1 0
vn 0 -1 0
vn 0 -1 0
vn 0 -1 0
vn 0 -1 0
vn 0 -1 0
vn 0 -1 0
vn 0 -1 0
vn 0 -1 0
vn 0 -1 0
vn 0 -1 0
vn 0 -1 0
vn 0 -1 0
vn 0 -1 0
vn 0 -1 0
vn 1 0 0
vn 1 0 0
vn 1 0 0
vn 1 0 0
vn 1 0 0
vn 1 0 0
vn 0 -1 0
vn 0 -1 0
vn 0 -1 0
vn 0 -1 0
vn 0 -1 0
vn 0 -1 0
vn 1 0 0
vn 1 0 0
vn 1 0 0
vn 1 0 0
vn 1 0 0
vn 1 0 0
vn 0 0 1
vn 0 0 1
vn 0 0 1
vn 0 0 1
vn 0 0 1
vn 0 0 1
vn -1 0 0
vn -1 0 0
vn -1 0 0
vn -1 0 0
vn -1 0 0
vn -1 0 0
vn 0 -1 0
vn 0 -1 0
vn 0 -1 0
vn 0 -1 0
vn 0 -1 0
vn 0 -1 0
f 240//58 241//59 242//60
f 243//61 244//62 245//63
f 246//64 247//65 248//66
f 249//67 250//68 251//69
f 252//70 253//71 254//72
f 255//73 256//74 257//75
f 258//76 259//77 260//78
f 261//79 262//80 263//81
f 264//82 265//83 266//84
f 267//85 268//86 269//87
f 270//88 271//89 272//90
f 273//91 274//92 275//93
f 276//94 277//95 278//96
f 279//97 280//98 281//99
f 282//100 283//101 284//102
f 285//103 286//104 287//105
f 288//106 289//107 290//108
f 291//109 292//110 293//111
f 294//112 295//113 296//114
f 297//115 298//116 299//117
f 300//118 301//119 302//120
f 303//121 304//122 305//123
f 306//124 307//125 308//126
f 309//127 310//128 311//129
o 
v 25 -6 13
v 25 -5 13
v 29 -6 13
v 25 -6 13
v 29 -6 24
v 29 -6 13
v 13 -6 13
v 9 -6 13
v 13 -5 13
v 13 -6 13
v 13 -5 10
v 13 -5 13
v 25 -5 10
v 13 -5 10
v 25 -5 13
v 25 -5 10
v 25 -6 24
v 29 -6 24
v 25 -5 24
v 25 -6 24
v 21 -5 24
v 25 -5 24
v 21 -4 24
v 21 -5 24
v 17 -4 24
v 21 -4 24
v 17 -5 24
v 17 -4 24
v 13 -5 24
v 17 -5 24
v 13 -6 24
v 13 -5 24
v 9 -6 24
v 13 -6 24
v 9 -6 13
v 9 -6 24
v 25 -15 13
v 25 -6 13
v 29 -15 13
v 29 -6 13
v 25 -15 10
v 25 -5 10
v 13 -15 10
v 25 -15 10
v 25 -15 13
v 25 -15 10
v 13 -15 10
v 13 -5 10
v 13 -15 13
v 13 -15 10
v 13 -6 13
v 13 -15 13
v 13 -15 13
v 9 -15 13
v 29 -15 13
v 25 -15 13
v 9 -6 13
v 9 -15 13
v 29 -15 24
v 9 -15 24
v 29 -15 24
v 29 -6 24
v 29 -15 13
v 29 -15 24
v 9 -15 24
v 9 -6 24
v 9 -15 13
v 9 -15 24
l 312 313
l 314 315
l 316 317
l 318 319
l 320 321
l 322 323
l 324 325
l 326 327
l 328 329
l 330 331
l 332 333
l 334 335
l 336 337
l 338 339
l 340 341
l 342 343
l 344 345
l 346 347
l 348 349
l 350 351
l 352 353
l 354 355
l 356 357
l 358 359
l 360 361
l 362 363
l 364 365
l 366 367
l 368 369
l 370 371
l 372 373
l 374 375
l 376 377
l 378 379
o 
v 27 0 85
v 27 -7 85
v 11 -7 85
v 11 -7 85
v 11 0 85
v 27 0 85
v 27 0 70
v 11 0 70
v 11 -4 70
v 11 -4 70
v 27 -4 70
v 27 0 70
v 11 -4 65
v 27 -4 65
v 27 -4 70
v 27 -4 70
v 11 -4 70
v 11 -4 65
v 15 -7 96
v 15 -7 91
v 23 -7 91
v 23 -7 91
v 23 -7 96
v 15 -7 96
v 27 -7 91
v 23 -7 91
v 15 -7 91
v 15 -7 91
v 27 -7 85
v 27 -7 91
v 11 -7 91
v 11 -7 85
v 27 -7 85
v 27 -7 85
v 15 -7 91
v 11 -7 91
vn 0 0 -1
vn 0 0 -1
vn 0 0 -1
vn 0 0 -1
vn 0 0 -1
vn 0 0 -1
vn 0 0 1
vn 0 0 1
vn 0 0 1
vn 0 0 1
vn 0 0 1
vn 0 0 1
vn 0 -1 0
vn 0 -1 0
vn 0 -1 0
vn 0 -1 0
vn 0 -1 0
vn 0 -1 0
vn 0 -1 0
vn 0 -1 0
vn 0 -1 0
vn 0 -1 0
vn 0 -1 0
vn 0 -1 0
vn 0 0 0
vn 0 0 0
vn 0 0 0
vn 0 0 0
vn 0 0 0
vn 0 0 0
vn 0 -1 0
vn 0 -1 0
vn 0 -1 0
vn 0 -1 0
vn 0 -1 0
vn 0 -1 0
f 380//130 381//131 382//132
f 383//133 384//134 385//135
f 386//136 387//137 388//138
f 389//139 390//140 391//141
f 392//142 393//143 394//144
f 395//145 396//146 397//147
f 398//148 399//149 400//150
f 401//151 402//152 403//153
f 404//154 405//155 406//156
f 407//157 408//158 409//159
f 410//160 411//161 412//162
f 413//163 414//164 415//165
o 
v 27 -4 70
v 27 0 70
v 11 -4 70
v 11 0 70
v 11 -7 85
v 11 0 85
v 27 -7 85
v 27 0 85
v 27 0 70
v 11 0 70
v 27 0 85
v 27 0 70
v 11 0 85
v 27 0 85
v 11 0 70
v 11 0 85
v 11 -4 65
v 27 -4 65
v 27 -4 70
v 27 -4 65
v 11 -4 65
v 11 -4 70
v 23 -7 96
v 15 -7 96
v 23 -7 91
v 23 -7 96
v 27 -7 91
v 23 -7 91
v 27 -7 85
v 27 -7 91
v 11 -7 91
v 11 -7 85
v 15 -7 91
v 11 -7 91
v 15 -7 96
v 15 -7 91
v 11 -17 65
v 11 -4 65
v 27 -17 65
v 27 -4 65
v 11 -17 70
v 11 -4 70
v 27 -17 70
v 27 -4 70
v 27 -17 65
v 27 -17 70
v 11 -17 65
v 11 -17 70
v 11 -17 70
v 27 -17 70
v 11 -17 65
v 27 -17 65
v 23 -17 91
v 23 -7 91
v 23 -7 96
v 23 -17 96
v 15 -17 96
v 15 -7 96
v 15 -7 91
v 15 -17 91
v 11 -17 91
v 11 -7 91
v 11 -17 85
v 11 -7 85
v 27 -7 85
v 27 -17 85
v 27 -17 91
v 27 -7 91
v 23 -17 91
v 27 -17 91
v 23 -17 96
v 23 -17 91
v 15 -17 96
v 23 -17 96
v 15 -17 91
v 15 -17 96
v 11 -17 91
v 15 -17 91
v 11 -17 85
v 11 -17 91
v 27 -17 85
v 11 -17 85
v 27 -17 91
v 27 -17 85
l 416 417
l 418 419
l 420 421
l 422 423
l 424 425
l 426 427
l 428 429
l 430 431
l 432 433
l 434 435
l 436 437
l 438 439
l 440 441
l 442 443
l 444 445
l 446 447
l 448 449
l 450 451
l 452 453
l 454 455
l 456 457
l 458 459
l 460 461
l 462 463
l 464 465
l 466 467
l 468 469
l 470 471
l 472 473
l 474 475
l 476 477
l 478 479
l 480 481
l 482 483
l 484 485
l 486 487
l 488 489
l 490 491
l 492 493
l 494 495
l 496 497
l 498 499
o 
v 30 -4 68
v 38 -4 68
v 38 -8 68
v 38 -8 68
v 30 -8 68
v 30 -4 68
v 30 -4 65
v 38 -4 65
v 38 -4 68
v 38 -4 68
v 30 -4 68
v 30 -4 65
v 30 -7 91
v 30 -7 85
v 38 -7 85
v 38 -7 85
v 38 -7 91
v 30 -7 91
v 38 0 85
v 38 -7 85
v 30 -7 85
v 30 -7 85
v 30 0 85
v 38 0 85
v 38 0 70
v 30 0 70
v 30 -8 70
v 30 -8 70
v 38 -8 70
v 38 0 70
v 30 -8 68
v 38 -8 68
v 38 -8 70
v 38 -8 70
v 30 -8 70
v 30 -8 68
vn 0 0 -1
vn 0 0 -1
vn 0 0 -1
vn 0 0 -1
vn 0 0 -1
vn 0 0 -1
vn 0 -1 0
vn 0 -1 0
vn 0 -1 0
vn 0 -1 0
vn 0 -1 0
vn 0 -1 0
vn 0 -1 0
vn 0 -1 0
vn 0 -1 0
vn 0 -1 0
vn 0 -1 0
vn 0 -1 0
vn 0 0 -1
vn 0 0 -1
vn 0 0 -1
vn 0 0 -1
vn 0 0 -1
vn 0 0 -1
vn 0 0 1
vn 0 0 1
vn 0 0 1
vn 0 0 1
vn 0 0 1
vn 0 0 1
vn 0 -1 0
vn 0 -1 0
vn 0 -1 0
vn 0 -1 0
vn 0 -1 0
vn 0 -1 0
f 500//166 501//167 502//168
f 503//169 504//170 505//171
f 506//172 507//173 508//174
f 509//175 510//176 511//177
f 512//178 513//179 514//180
f 515//181 516//182 517//183
f 518//184 519//185 520//186
f 521//187 522//188 523//189
f 524//190 525//191 526//192
f 527//193 528//194 529//195
f 530//196 531//197 532//198
f 533//199 534//200 535//201
o 
v 38 0 85
v 38 0 70
v 30 0 70
v 30 0 85
v 30 -8 70
v 30 0 70
v 30 -8 68
v 30 -8 70
v 30 -4 68
v 30 -8 68
v 30 -4 65
v 30 -4 68
v 38 -4 65
v 30 -4 65
v 38 -4 68
v 38 -4 65
v 38 -8 68
v 38 -4 68
v 38 -8 70
v 38 -8 68
v 38 0 70
v 38 -8 70
v 30 0 70
v 38 0 70
v 38 0 85
v 30 0 85
v 38 -7 85
v 38 0 85
v 38 -7 91
v 38 -7 85
v 30 -7 91
v 38 -7 91
v 30 -7 85
v 30 -7 91
v 30 0 85
v 30 -7 85
v 30 -17 65
v 30 -4 65
v 38 -17 65
v 38 -4 65
v 38 -17 70
v 38 -8 70
v 30 -17 70
v 30 -8 70
v 30 -17 85
v 30 -7 85
v 38 -17 85
v 38 -7 85
v 38 -17 91
v 38 -7 91
v 30 -17 91
v 30 -7 91
v 38 -17 65
v 30 -17 65
v 38 -17 70
v 38 -17 65
v 30 -17 70
v 38 -17 70
v 30 -17 65
v 30 -17 70
v 38 -17 85
v 30 -17 85
v 38 -17 91
v 38 -17 85
v 30 -17 91
v 38 -17 91
v 30 -17 85
v 30 -17 91
l 536 537
l 538 539
l 540 541
l 542 543
l 544 545
l 546 547
l 548 549
l 550 551
l 552 553
l 554 555
l 556 557
l 558 559
l 560 561
l 562 563
l 564 565
l 566 567
l 568 569
l 570 571
l 572 573
l 574 575
l 576 577
l 578 579
l 580 581
l 582 583
l 584 585
l 586 587
l 588 589
l 590 591
l 592 593
l 594 595
l 596 597
l 598 599
l 600 601
l 602 603
o 
v 23 -7 121
v 15 -7 121
v 15 -7 118
v 15 -7 118
v 23 -7 118
v 23 -7 121
v 23 -9 121
v 15 -9 121
v 15 -7 121
v 15 -7 121
v 23 -7 121
v 23 -9 121
v 23 -9 124
v 15 -9 124
v 15 -9 121
v 15 -9 121
v 23 -9 121
v 23 -9 124
v 23 -9 124
v 23 -11 124
v 15 -11 124
v 15 -11 124
v 15 -9 124
v 23 -9 124
v 23 -11 129
v 15 -11 129
v 15 -11 124
v 15 -11 124
v 23 -11 124
v 23 -11 129
vn 0 -1 0
vn 0 -1 0
vn 0 -1 0
vn 0 -1 0
vn 0 -1 0
vn 0 -1 0
vn 0 0 -1
vn 0 0 -1
vn 0 0 -1
vn 0 0 -1
vn 0 0 -1
vn 0 0 -1
vn 0 -1 0
vn 0 -1 0
vn 0 -1 0
vn 0 -1 0
vn 0 -1 0
vn 0 -1 0
vn 0 0 -1
vn 0 0 -1
vn 0 0 -1
vn 0 0 -1
vn 0 0 -1
vn 0 0 -1
vn 0 -1 0
vn 0 -1 0
vn 0 -1 0
vn 0 -1 0
vn 0 -1 0
vn 0 -1 0
f 604//202 605//203 606//204
f 607//205 608//206 609//207
f 610//208 611//209 612//210
f 613//211 614//212 615//213
f 616//214 617//215 618//216
f 619//217 620//218 621//219
f 622//220 623//221 624//222
f 625//223 626//224 627//225
f 628//226 629//227 630//228
f 631//229 632//230 633//231
o 
v 23 -7 118
v 15 -7 118
v 23 -7 121
v 23 -7 118
v 23 -9 121
v 23 -7 121
v 23 -9 124
v 23 -9 121
v 23 -11 124
v 23 -9 124
v 23 -11 129
v 23 -11 124
v 15 -11 129
v 23 -11 129
v 15 -11 124
v 15 -11 129
v 15 -9 124
v 15 -11 124
v 15 -9 121
v 15 -9 124
v 15 -7 121
v 15 -9 121
v 15 -7 118
v 15 -7 121
v 15 -17 118
v 15 -7 118
v 23 -17 118
v 23 -7 118
v 23 -17 129
v 23 -11 129
v 15 -17 129
v 15 -11 129
v 23 -17 118
v 15 -17 118
v 23 -17 129
v 23 -17 118
v 15 -17 129
v 23 -17 129
v 15 -17 118
v 15 -17 129
l 634 635
l 636 637
l 638 639
l 640 641
l 642 643
l 644 645
l 646 647
l 648 649
l 650 651
l 652 653
l 654 655
l 656 657
l 658 659
l 660 661
l 662 663
l 664 665
l 666 667
l 668 669
l 670 671
l 672 673
o 
v 27 -6 4
v 33 -6 4
v 33 -6 10
v 33 -6 10
v 27 -6 10
v 27 -6 4
vn 0 -1 0
vn 0 -1 0
vn 0 -1 0
vn 0 -1 0
vn 0 -1 0
vn 0 -1 0
f 674//232 675//233 676//234
f 677//235 678//236 679//237
o 
v 33 -6 4
v 33 -6 10
v 27 -6 4
v 33 -6 4
v 27 -6 10
v 27 -6 4
v 33 -6 10
v 27 -6 10
v 27 -13 4
v 33 -13 4
v 27 -13 10
v 27 -13 4
v 33 -13 10
v 27 -13 10
v 33 -13 4
v 33 -13 10
v 33 -6 4
v 33 -13 4
v 27 -13 4
v 27 -6 4
v 27 -13 10
v 27 -6 10
v 33 -6 10
v 33 -13 10
l 680 681
l 682 683
l 684 685
l 686 687
l 688 689
l 690 691
l 692 693
l 694 695
l 696 697
l 698 699
l 700 701
l 702 703
o 
v 14 -4 27
v 24 -4 27
v 24 -4 43
v 24 -4 43
v 14 -4 43
v 14 -4 27
vn 0 -1 0
vn 0 -1 0
vn 0 -1 0
vn 0 -1 0
vn 0 -1 0
vn 0 -1 0
f 704//238 705//239 706//240
f 707//241 708//242 709//243
o 
v 24 -4 43
v 24 -4 27
v 24 -4 27
v 14 -4 27
v 14 -4 43
v 24 -4 43
v 14 -4 27
v 14 -4 43
v 24 -14 27
v 24 -4 27
v 24 -14 43
v 24 -4 43
v 24 -14 43
v 24 -14 27
v 14 -14 27
v 14 -4 27
v 14 -14 43
v 14 -4 43
v 14 -14 27
v 14 -14 43
v 24 -14 27
v 14 -14 27
v 14 -14 43
v 24 -14 43
l 710 711
l 712 713
l 714 715
l 716 717
l 718 719
l 720 721
l 722 723
l 724 725
l 726 727
l 728 729
l 730 731
l 732 733
o 
v 40 -7 0
v 40 -7 14
v 36 -7 14
v 36 -7 14
v 36 -7 0
v 40 -7 0
v 40 -5 0
v 40 -5 14
v 40 -7 14
v 40 -7 14
v 40 -7 0
v 40 -5 0
v 52 -5 0
v 52 -5 14
v 40 -5 14
v 40 -5 14
v 40 -5 0
v 52 -5 0
vn 0 -1 0
vn 0 -1 0
vn 0 -1 0
vn 0 -1 0
vn 0 -1 0
vn 0 -1 0
vn 1 0 0
vn 1 0 0
vn 1 0 0
vn 1 0 0
vn 1 0 0
vn 1 0 0
vn 0 -1 0
vn 0 -1 0
vn 0 -1 0
vn 0 -1 0
vn 0 -1 0
vn 0 -1 0
f 734//244 735//245 736//246
f 737//247 738//248 739//249
f 740//250 741//251 742//252
f 743//253 744//254 745//255
f 746//256 747//257 748//258
f 749//259 750//260 751//261
o 
v 36 -7 0
v 36 -7 14
v 40 -7 0
v 36 -7 0
v 40 -5 0
v 40 -7 0
v 52 -5 0
v 40 -5 0
v 52 -5 14
v 52 -5 0
v 40 -5 14
v 52 -5 14
v 40 -7 14
v 40 -5 14
v 36 -7 14
v 40 -7 14
v 52 -16 0
v 36 -16 0
v 36 -16 14
v 52 -16 14
v 36 -16 0
v 36 -7 0
v 52 -16 0
v 52 -5 0
v 52 -16 14
v 52 -5 14
v 36 -16 14
v 36 -7 14
v 36 -16 0
v 36 -16 14
v 52 -16 14
v 52 -16 0
l 752 753
l 754 755
l 756 757
l 758 759
l 760 761
l 762 763
l 764 765
l 766 767
l 768 769
l 770 771
l 772 773
l 774 775
l 776 777
l 778 779
l 780 781
l 782 783
o 
v 27 -7 99
v 27 -7 115
v 11 -7 115
v 11 -7 115
v 11 -7 99
v 27 -7 99
vn 0 -1 0
vn 0 -1 0
vn 0 -1 0
vn 0 -1 0
vn 0 -1 0
vn 0 -1 0
f 784//262 785//263 786//264
f 787//265 788//266 789//267
o 
v 11 -7 99
v 11 -7 115
v 27 -7 99
v 11 -7 99
v 27 -7 115
v 27 -7 99
v 11 -7 115
v 27 -7 115
v 27 -22 110
v 11 -22 110
v 27 -22 104
v 11 -22 104
v 11 -17 99
v 11 -7 99
v 27 -17 99
v 27 -7 99
v 27 -17 115
v 27 -7 115
v 11 -17 115
v 11 -7 115
v 11 -22 110
v 11 -17 115
v 11 -22 104
v 11 -22 110
v 11 -17 99
v 11 -22 104
v 27 -17 99
v 11 -17 99
v 27 -22 104
v 27 -17 99
v 27 -22 110
v 27 -22 104
v 27 -17 115
v 27 -22 110
v 11 -17 115
v 27 -17 115
l 790 791
l 792 793
l 794 795
l 796 797
l 798 799
l 800 801
l 802 803
l 804 805
l 806 807
l 808 809
l 810 811
l 812 813
l 814 815
l 816 817
l 818 819
l 820 821
l 822 823
l 824 825