o 
v 3 0 54
v 3 -5 54
v 9 -5 54
v 9 -5 54
v 9 0 54
v 3 0 54
v 3 -5 54
v 3 -5 45
v 9 -5 45
v 9 -5 45
v 9 -5 54
v 3 -5 54
vn 0 0 1
vn 0 0 1
vn 0 0 1
vn 0 0 1
vn 0 0 1
vn 0 0 1
vn 0 -1 0
vn 0 -1 0
vn 0 -1 0
vn 0 -1 0
vn 0 -1 0
vn 0 -1 0
f 1//1 2//2 3//3
f 4//4 5//5 6//6
f 7//7 8//8 9//9
f 10//10 11//11 12//12
o 
v 9 0 54
v 3 0 54
v 9 -5 54
v 9 -5 45
v 9 0 54
v 9 -5 54
v 3 -5 54
v 3 0 54
v 3 -5 45
v 3 -5 54
v 9 -5 45
v 3 -5 45
v 3 0 54
v 0 0 60
v 12 0 60
v 9 0 54
v 9 -9 60
v 9 -9 54
v 3 -9 54
v 3 -9 60
v 8 -5 68
v 7 -9 66
v 9 0 68
v 8 -5 68
v 4 -5 68
v 3 0 68
v 5 -9 66
v 4 -5 68
v 3 -9 60
v 5 -9 66
v 7 -9 66
v 9 -9 60
v 9 0 68
v 12 0 60
v 3 0 68
v 9 0 68
v 0 0 60
v 3 0 68
v 3 -9 54
v 9 -9 54
v 9 -9 60
v 11 -5 60
v 3 -9 60
v 1 -5 60
v 0 0 60
v 1 -5 60
v 11 -5 60
v 12 0 60
v 3 -9 45
v 3 -9 54
v 3 -9 45
v 9 -9 45
v 9 -9 54
v 9 -9 45
v 9 -9 54
v 9 -5 54
v 3 -9 54
v 3 -5 54
v 3 -9 45
v 3 -5 45
v 9 -9 45
v 9 -5 45
l 13 14
l 15 16
l 17 18
l 19 20
l 21 22
l 23 24
l 25 26
l 27 28
l 29 30
l 31 32
l 33 34
l 35 36
l 37 38
l 39 40
l 41 42
l 43 44
l 45 46
l 47 48
l 49 50
l 51 52
l 53 54
l 55 56
l 57 58
l 59 60
l 61 62
l 63 64
l 65 66
l 67 68
l 69 70
l 71 72
l 73 74
o 
v 22 -5 29
v 22 -5 33
v 20 -5 33
v 12 -5 33
v 12 -5 29
v 14 -5 33
v 22 -5 45
v 22 -5 49
v 20 -5 45
v 12 -5 45
v 14 -5 45
v 12 -5 49
v 14 -5 33
v 20 -5 33
v 20 -5 45
v 20 -5 45
v 14 -5 45
v 14 -5 33
v 12 -5 29
v 22 -5 29
v 20 -5 33
v 20 -5 33
v 14 -5 33
v 12 -5 29
v 22 -5 49
v 12 -5 49
v 14 -5 45
v 14 -5 45
v 20 -5 45
v 22 -5 49
vn 0 -1 0
vn 0 -1 0
vn 0 -1 0
vn 0 -1 0
vn 0 -1 0
vn 0 -1 0
vn 0 -1 0
vn 0 -1 0
vn 0 -1 0
vn 0 -1 0
vn 0 -1 0
vn 0 -1 0
vn 0 -1 0
vn 0 -1 0
vn 0 -1 0
vn 0 -1 0
vn 0 -1 0
vn 0 -1 0
vn 0 -1 0
vn 0 -1 0
vn 0 -1 0
vn 0 -1 0
vn 0 -1 0
vn 0 -1 0
vn 0 -1 0
vn 0 -1 0
vn 0 -1 0
vn 0 -1 0
vn 0 -1 0
vn 0 -1 0
f 75//13 76//14 77//15
f 78//16 79//17 80//18
f 81//19 82//20 83//21
f 84//22 85//23 86//24
f 87//25 88//26 89//27
f 90//28 91//29 92//30
f 93//31 94//32 95//33
f 96//34 97//35 98//36
f 99//37 100//38 101//39
f 102//40 103//41 104//42
o 
v 14 -5 33
v 14 -5 45
v 20 -5 45
v 20 -5 33
v 12 -5 45
v 12 -5 49
v 14 -5 45
v 12 -5 45
v 12 -5 33
v 14 -5 33
v 12 -5 29
v 12 -5 33
v 22 -5 29
v 12 -5 29
v 22 -5 33
v 22 -5 29
v 20 -5 33
v 22 -5 33
v 22 -5 45
v 20 -5 45
v 22 -5 49
v 22 -5 45
v 12 -5 49
v 22 -5 49
v 14 -12 33
v 14 -12 45
v 20 -12 45
v 20 -12 33
v 22 -12 49
v 12 -12 49
v 22 -12 49
v 22 -5 49
v 22 -12 45
v 22 -12 49
v 22 -12 45
v 22 -5 45
v 20 -12 45
v 22 -12 45
v 20 -12 45
v 20 -5 45
v 20 -12 33
v 20 -5 33
v 22 -12 33
v 20 -12 33
v 22 -12 33
v 22 -5 33
v 22 -12 29
v 22 -12 33
v 22 -12 29
v 22 -5 29
v 12 -12 29
v 22 -12 29
v 14 -5 33
v 14 -12 33
v 12 -12 33
v 12 -5 33
v 12 -12 29
v 12 -5 29
v 12 -12 33
v 12 -12 29
v 14 -12 33
v 12 -12 33
v 14 -12 45
v 14 -5 45
v 12 -12 45
v 14 -12 45
v 12 -12 45
v 12 -5 45
v 12 -12 49
v 12 -12 45
v 12 -12 49
v 12 -5 49
l 105 106
l 107 108
l 109 110
l 111 112
l 113 114
l 115 116
l 117 118
l 119 120
l 121 122
l 123 124
l 125 126
l 127 128
l 129 130
l 131 132
l 133 134
l 135 136
l 137 138
l 139 140
l 141 142
l 143 144
l 145 146
l 147 148
l 149 150
l 151 152
l 153 154
l 155 156
l 157 158
l 159 160
l 161 162
l 163 164
l 165 166
l 167 168
l 169 170
l 171 172
l 173 174
l 175 176
o 
v 22 -5 22
v 10 -5 22
v 10 -5 4
v 10 -5 4
v 22 -5 4
v 22 -5 22
vn 0 -1 0
vn 0 -1 0
vn 0 -1 0
vn 0 -1 0
vn 0 -1 0
vn 0 -1 0
f 177//43 178//44 179//45
f 180//46 181//47 182//48
o 
v 22 -5 22
v 10 -5 22
v 22 -5 4
v 22 -5 22
v 10 -5 4
v 22 -5 4
v 10 -5 22
v 10 -5 4
v 13 -16 22
v 10 -14 22
v 19 -16 22
v 13 -16 22
v 22 -14 22
v 19 -16 22
v 19 -16 4
v 22 -14 4
v 13 -16 4
v 10 -14 4
v 19 -16 4
v 13 -16 4
v 19 -16 22
v 19 -16 4
v 13 -16 4
v 13 -16 22
v 10 -14 22
v 10 -14 4
v 22 -14 4
v 22 -14 22
v 22 -14 4
v 22 -5 4
v 22 -14 22
v 22 -5 22
v 10 -14 4
v 10 -5 4
v 10 -14 22
v 10 -5 22
l 183 184
l 185 186
l 187 188
l 189 190
l 191 192
l 193 194
l 195 196
l 197 198
l 199 200
l 201 202
l 203 204
l 205 206
l 207 208
l 209 210
l 211 212
l 213 214
l 215 216
l 217 218
o 
v 25 0 54
v 25 -5 54
v 32 -5 54
v 32 -5 54
v 32 0 54
v 25 0 54
v 25 -5 44
v 32 -5 44
v 32 -5 54
v 32 -5 54
v 25 -5 54
v 25 -5 44
vn 0 0 1
vn 0 0 1
vn 0 0 1
vn 0 0 1
vn 0 0 1
vn 0 0 1
vn 0 -1 0
vn 0 -1 0
vn 0 -1 0
vn 0 -1 0
vn 0 -1 0
vn 0 -1 0
f 219//49 220//50 221//51
f 222//52 223//53 224//54
f 225//55 226//56 227//57
f 228//58 229//59 230//60
o 
v 32 0 54
v 25 0 54
v 32 -5 44
v 25 -5 44
v 32 -5 54
v 32 -5 44
v 32 0 54
v 32 -5 54
v 25 -5 54
v 25 0 54
v 25 -5 44
v 25 -5 54
v 23 -5 56
v 25 0 54
v 25 -12 54
v 23 -5 56
v 23 -5 56
v 23 -5 66
v 25 -5 54
v 23 -5 56
v 23 -5 66
v 25 0 66
v 25 -12 66
v 23 -5 66
v 25 -12 54
v 25 -5 54
v 25 -12 54
v 32 -12 54
v 32 -12 54
v 32 -5 54
v 32 -12 54
v 32 -12 44
v 32 -12 44
v 25 -12 44
v 25 0 66
v 25 0 54
v 39 0 66
v 25 0 66
v 39 0 59
v 39 0 66
v 32 0 54
v 39 0 59
v 32 -12 44
v 32 -5 44
v 25 -12 66
v 25 -12 54
v 39 -9 66
v 39 0 66
v 39 -9 59
v 39 -9 66
v 39 -9 59
v 39 0 59
v 32 -12 54
v 39 -9 59
v 25 -12 44
v 25 -12 54
v 25 -12 44
v 25 -5 44
l 231 232
l 233 234
l 235 236
l 237 238
l 239 240
l 241 242
l 243 244
l 245 246
l 247 248
l 249 250
l 251 252
l 253 254
l 255 256
l 257 258
l 259 260
l 261 262
l 263 264
l 265 266
l 267 268
l 269 270
l 271 272
l 273 274
l 275 276
l 277 278
l 279 280
l 281 282
l 283 284
l 285 286
l 287 288
o 
v 30 -5 28
v 30 -5 30
v 25 -5 33
v 25 -5 33
v 25 -5 25
v 30 -5 28
v 25 0 25
v 35 0 25
v 35 -5 25
v 35 -5 25
v 25 -5 25
v 25 0 25
v 35 -5 28
v 30 -5 28
v 25 -5 25
v 25 -5 25
v 35 -5 25
v 35 -5 28
v 33 -8 28
v 30 -5 28
v 35 -5 28
v 35 -5 28
v 35 -8 28
v 33 -8 28
v 33 -8 28
v 35 -8 28
v 35 -8 30
v 35 -8 30
v 33 -8 30
v 33 -8 28
v 30 -5 28
v 33 -8 28
v 33 -8 30
v 33 -8 30
v 30 -5 30
v 30 -5 28
v 35 -5 17
v 35 -5 21
v 25 -5 21
v 25 -5 21
v 25 -5 17
v 35 -5 17
v 25 0 21
v 25 -5 21
v 35 -5 21
v 35 -5 21
v 35 0 21
v 25 0 21
v 25 -5 33
v 30 -5 30
v 35 -5 30
v 35 -5 30
v 35 -5 33
v 25 -5 33
v 30 -5 30
v 33 -8 30
v 35 -8 30
v 35 -8 30
v 35 -5 30
v 30 -5 30
vn 0 -1 0
vn 0 -1 0
vn 0 -1 0
vn 0 -1 0
vn 0 -1 0
vn 0 -1 0
vn 0 0 -1
vn 0 0 -1
vn 0 0 -1
vn 0 0 -1
vn 0 0 -1
vn 0 0 -1
vn 0 -1 0
vn 0 -1 0
vn 0 -1 0
vn 0 -1 0
vn 0 -1 0
vn 0 -1 0
vn 0 0 -1
vn 0 0 -1
vn 0 0 -1
vn 0 0 -1
vn 0 0 -1
vn 0 0 -1
vn 0 -1 0
vn 0 -1 0
vn 0 -1 0
vn 0 -1 0
vn 0 -1 0
vn 0 -1 0
vn -0.7071067690849304 -0.7071067690849304 0
vn -0.7071067690849304 -0.7071067690849304 0
vn -0.7071067690849304 -0.7071067690849304 0
vn -0.7071067690849304 -0.7071067690849304 0
vn -0.7071067690849304 -0.7071067690849304 0
vn -0.7071067690849304 -0.7071067690849304 0
vn 0 -1 0
vn 0 -1 0
vn 0 -1 0
vn 0 -1 0
vn 0 -1 0
vn 0 -1 0
vn 0 0 1
vn 0 0 1
vn 0 0 1
vn 0 0 1
vn 0 0 1
vn 0 0 1
vn 0 -1 0
vn 0 -1 0
vn 0 -1 0
vn 0 -1 0
vn 0 -1 0
vn 0 -1 0
vn 0 0 1
vn 0 0 1
vn 0 0 1
vn 0 0 1
vn 0 0 1
vn 0 0 1
f 289//61 290//62 291//63
f 292//64 293//65 294//66
f 295//67 296//68 297//69
f 298//70 299//71 300//72
f 301//73 302//74 303//75
f 304//76 305//77 306//78
f 307//79 308//80 309//81
f 310//82 311//83 312//84
f 313//85 314//86 315//87
f 316//88 317//89 318//90
f 319//91 320//92 321//93
f 322//94 323//95 324//96
f 325//97 326//98 327//99
f 328//100 329//101 330//102
f 331//103 332//104 333//105
f 334//106 335//107 336//108
f 337//109 338//110 339//111
f 340//112 341//113 342//114
f 343//115 344//116 345//117
f 346//118 347//119 348//120
o 
v 35 0 21
v 25 0 21
v 35 0 25
v 25 0 25
v 25 -5 33
v 25 -5 25
v 25 -5 33
v 35 -5 33
v 25 0 25
v 25 -5 25
v 25 0 21
v 25 0 25
v 25 -5 21
v 25 0 21
v 25 -5 17
v 25 -5 21
v 35 -5 17
v 25 -5 17
v 35 -5 21
v 35 -5 17
v 35 0 21
v 35 -5 21
v 35 0 25
v 35 0 21
v 35 -5 25
v 35 0 25
v 35 -5 28
v 35 -5 25
v 35 -8 28
v 35 -5 28
v 35 -8 30
v 35 -8 28
v 35 -5 30
v 35 -8 30
v 35 -5 33
v 35 -5 30
v 32 -15 33
v 32 -15 17
v 28 -15 17
v 28 -15 33
v 32 -15 17
v 28 -15 17
v 28 -15 33
v 32 -15 33
v 35 -12 33
v 35 -12 17
v 25 -12 17
v 25 -12 33
v 25 -12 17
v 25 -5 17
v 28 -15 17
v 25 -12 17
v 35 -12 17
v 32 -15 17
v 35 -5 17
v 35 -12 17
v 35 -12 33
v 35 -5 33
v 32 -15 33
v 35 -12 33
v 25 -12 33
v 28 -15 33
v 25 -5 33
v 25 -12 33
l 349 350
l 351 352
l 353 354
l 355 356
l 357 358
l 359 360
l 361 362
l 363 364
l 365 366
l 367 368
l 369 370
l 371 372
l 373 374
l 375 376
l 377 378
l 379 380
l 381 382
l 383 384
l 385 386
l 387 388
l 389 390
l 391 392
l 393 394
l 395 396
l 397 398
l 399 400
l 401 402
l 403 404
l 405 406
l 407 408
l 409 410
l 411 412
o 
v 27 -5 5
v 27 -5 2
v 27 -8 2
v 25 -5 9
v 25 -5 2
v 27 -5 2
v 27 -5 2
v 27 -5 5
v 25 -5 9
v 29 -5 9
v 25 -5 9
v 27 -5 5
v 27 -5 5
v 29 -5 5
v 29 -5 9
v 29 -5 5
v 27 -5 5
v 27 -8 2
v 27 -8 2
v 29 -8 2
v 29 -5 5
v 29 -8 2
v 27 -8 2
v 27 -8 0
v 27 -8 0
v 29 -8 0
v 29 -8 2
vn -1 0 0
vn -1 0 0
vn -1 0 0
vn 0 -1 0
vn 0 -1 0
vn 0 -1 0
vn 0 -1 0
vn 0 -1 0
vn 0 -1 0
vn 0 -1 0
vn 0 -1 0
vn 0 -1 0
vn 0 -1 0
vn 0 -1 0
vn 0 -1 0
vn 0 -0.7071067690849304 0.7071067690849304
vn 0 -0.7071067690849304 0.7071067690849304
vn 0 -0.7071067690849304 0.7071067690849304
vn 0 -0.7071067690849304 0.7071067690849304
vn 0 -0.7071067690849304 0.7071067690849304
vn 0 -0.7071067690849304 0.7071067690849304
vn 0 -1 0
vn 0 -1 0
vn 0 -1 0
vn 0 -1 0
vn 0 -1 0
vn 0 -1 0
f 413//121 414//122 415//123
f 416//124 417//125 418//126
f 419//127 420//128 421//129
f 422//130 423//131 424//132
f 425//133 426//134 427//135
f 428//136 429//137 430//138
f 431//139 432//140 433//141
f 434//142 435//143 436//144
f 437//145 438//146 439//147
o 
v 25 -5 9
v 29 -5 9
v 25 -5 2
v 25 -5 9
v 29 -5 5
v 29 -5 9
v 29 -8 2
v 29 -5 5
v 29 -8 0
v 29 -8 2
v 27 -8 0
v 29 -8 0
v 27 -8 2
v 27 -8 0
v 27 -5 2
v 27 -8 2
v 25 -5 2
v 27 -5 2
v 25 -20 2
v 25 -20 9
v 29 -20 9
v 29 -20 0
v 29 -20 9
v 25 -20 9
v 25 -20 9
v 25 -5 9
v 29 -20 9
v 29 -5 9
v 29 -20 0
v 29 -8 0
v 27 -20 0
v 29 -20 0
v 27 -20 0
v 27 -8 0
v 27 -20 2
v 27 -20 0
v 25 -20 2
v 25 -5 2
v 27 -20 2
v 25 -20 2
v 27 -8 2
v 27 -20 2
l 440 441
l 442 443
l 444 445
l 446 447
l 448 449
l 450 451
l 452 453
l 454 455
l 456 457
l 458 459
l 460 461
l 462 463
l 464 465
l 466 467
l 468 469
l 470 471
l 472 473
l 474 475
l 476 477
l 478 479
l 480 481